<svg xmlns="http://www.w3.org/2000/svg">
<defs>
<font id="ljTurtlesTMNT-Bold" horiz-adv-x="720" >
  <font-face 
    font-family="ljTurtlesTMNT"
    font-weight="700"
    font-stretch="normal"
    units-per-em="1000"
    panose-1="2 11 8 3 5 3 2 2 2 4"
    ascent="800"
    descent="-200"
    x-height="525"
    cap-height="757.5"
    bbox="-19 -243 2525 1023"
    underline-thickness="0"
    underline-position="0"
    unicode-range="U+0020-2122"
  />
<missing-glyph horiz-adv-x="2551" 
d="M579 161q10 -42 -6 -73q-24 -30 -61 -24l-5 1l-2 -1l-3 -3q-16 -20 -26 -35t-40 -19q-40 0 -66 22q-18 16 -23 34t-9 40q-21 87 -62 166q-79 -43 -162 -4q-43 27 -43 85q6 26 29 50q26 10 49 6q7 0 21.5 12t20.5 18q13 12 28.5 26.5t33.5 20.5q14 40 50 57
q16 6 31.5 15.5t31.5 18.5q62 38 109 -8q15 8 39.5 11t42.5 -2q21 13 46.5 18.5t49.5 -3.5q12 24 33 29t45 5q11 0 15 -2q9 4 29.5 4t29.5 -5q11 11 25 19h-383l-150 248h1911l-153 -248h-439q44 -21 47 -57q5 22 29 34t45 15q57 5 98 -19q24 12 64 0t64 -18q25 -8 41 -26
q14 9 43 18t45 -2l5 2l19 3q50 -6 107.5 -20.5t77.5 -70.5q6 -33 -11 -59t-38 -47q5 -5 15 -14.5t12 -16.5l6 -4q41 -45 47 -102.5t-22 -109.5q-50 -83 -152 -96q-32 -5 -53 11q-30 -18 -68 -5t-65 31q-12 7 -37.5 28.5t-23.5 33.5l-2 -2h-22q-14 5 -24.5 12.5t-22.5 13.5
q-31 15 -67 21.5t-71 10.5q-18 0 -32 1t-30 10h-5l-2 1q-38 -29 -76 -22q-33 9 -64.5 19.5t-64.5 15.5q-15 1 -29.5 0.5t-28.5 0.5l-24 12l-14 19l-4 13q-16 -22 -43.5 -26t-51.5 -9q-46 -8 -83 16q-20 -25 -55 -34l-1 -1l-19 -15l-25 -4l-16 3q-13 4 -24 11t-22 15
q-28 -30 -70 -22q-26 -19 -53.5 -6.5t-42.5 35.5q-6 -9 -22 -26.5t-25 -20.5q-6 -9 -23 -19.5t-27 -15.5q-78 -39 -146 5zM1450 677h588l108 174h-1787l105 -174h754q25 9 68 15q40 8 84.5 9t79.5 -24zM480 389q-26 -6 -41 -6q15 -24 31 -47.5t31 -46.5q-5 24 -9.5 50
t-11.5 50zM1981 309l3 1q-15 12 -18 20l-2 -3q7 -4 17 -18zM1635 389l3 8l8 16q4 9 4.5 18t1.5 21q5 24 8.5 47t-0.5 49q-6 -26 -26.5 -47t-31.5 -43q-9 -16 -29 -38l3 -13v-7q27 0 59 -11zM1350 378q10 26 20.5 52t22.5 53q-12 1 -21.5 5t-18.5 7q0 -39 -11 -70

<glyph glyph-name=".notdef" horiz-adv-x="2551" 
d="M579 161q10 -42 -6 -73q-24 -30 -61 -24l-5 1l-2 -1l-3 -3q-16 -20 -26 -35t-40 -19q-40 0 -66 22q-18 16 -23 34t-9 40q-21 87 -62 166q-79 -43 -162 -4q-43 27 -43 85q6 26 29 50q26 10 49 6q7 0 21.5 12t20.5 18q13 12 28.5 26.5t33.5 20.5q14 40 50 57
q16 6 31.5 15.5t31.5 18.5q62 38 109 -8q15 8 39.5 11t42.5 -2q21 13 46.5 18.5t49.5 -3.5q12 24 33 29t45 5q11 0 15 -2q9 4 29.5 4t29.5 -5q11 11 25 19h-383l-150 248h1911l-153 -248h-439q44 -21 47 -57q5 22 29 34t45 15q57 5 98 -19q24 12 64 0t64 -18q25 -8 41 -26
q14 9 43 18t45 -2l5 2l19 3q50 -6 107.5 -20.5t77.5 -70.5q6 -33 -11 -59t-38 -47q5 -5 15 -14.5t12 -16.5l6 -4q41 -45 47 -102.5t-22 -109.5q-50 -83 -152 -96q-32 -5 -53 11q-30 -18 -68 -5t-65 31q-12 7 -37.5 28.5t-23.5 33.5l-2 -2h-22q-14 5 -24.5 12.5t-22.5 13.5
q-31 15 -67 21.5t-71 10.5q-18 0 -32 1t-30 10h-5l-2 1q-38 -29 -76 -22q-33 9 -64.5 19.5t-64.5 15.5q-15 1 -29.5 0.5t-28.5 0.5l-24 12l-14 19l-4 13q-16 -22 -43.5 -26t-51.5 -9q-46 -8 -83 16q-20 -25 -55 -34l-1 -1l-19 -15l-25 -4l-16 3q-13 4 -24 11t-22 15
q-28 -30 -70 -22q-26 -19 -53.5 -6.5t-42.5 35.5q-6 -9 -22 -26.5t-25 -20.5q-6 -9 -23 -19.5t-27 -15.5q-78 -39 -146 5zM1450 677h588l108 174h-1787l105 -174h754q25 9 68 15q40 8 84.5 9t79.5 -24zM480 389q-26 -6 -41 -6q15 -24 31 -47.5t31 -46.5q-5 24 -9.5 50
t-11.5 50zM1981 309l3 1q-15 12 -18 20l-2 -3q7 -4 17 -18zM1635 389l3 8l8 16q4 9 4.5 18t1.5 21q5 24 8.5 47t-0.5 49q-6 -26 -26.5 -47t-31.5 -43q-9 -16 -29 -38l3 -13v-7q27 0 59 -11zM1350 378q10 26 20.5 52t22.5 53q-12 1 -21.5 5t-18.5 7q0 -39 -11 -70
q6 -9 6.5 -22.5t1.5 -24.5zM495 704q-9 16 -27 46q-7 11 -14 22.5t-13 23.5h-11h-10q-5 7 -9.5 15t-9.5 16h33.5h33.5q9 -15 17 -31h-11h-10q6 -12 12.5 -23.5t13.5 -22.5q6 -12 12.5 -23t13.5 -23h-11h-10zM553 704q-9 15 -17 31t-16 31q-9 15 -17 30.5t-16 30.5h31.5h32.5
q3 -8 7 -15.5t8 -14.5h-21h-19q2 -4 3.5 -8t4.5 -7h15h17q3 -8 7 -15.5t8 -14.5h-16.5h-14.5l8 -16h19h21q5 -10 15 -32h-30h-30zM631 704q-12 28 -29 62q-7 15 -15 30.5t-14 30.5h31h33q3 -8 6 -15.5t6 -14.5h-20h-19q4 -10 7 -15h15h17q8 -20 13 -30h-16.5h-14.5
q1 -4 3 -8l4 -8h19h20q8 -18 14 -32h-30h-30zM709 704q-6 15 -12.5 31t-12.5 31q-12 29 -26 61h13h15q6 -9 12.5 -17.5t12.5 -17.5t12.5 -18t12.5 -18q-5 12 -13 36q-4 8 -7.5 17t-6.5 18h10.5h11.5q13 -33 23 -61q5 -15 10.5 -31t11.5 -31h-12h-12q-13 19 -25 36
q-18 24 -26 36q4 -12 14 -36q6 -19 14 -36h-10h-10zM807 747h6.5h7.5q-4 7 -10 21l-5.5 11l-5.5 11q0 -6 1 -11.5t2 -10.5q0 -6 1.5 -11t2.5 -10zM791 704q-3 15 -5 31t-4 31q-6 38 -8 61h14.5h14.5q8 -15 15.5 -30.5t15.5 -30.5t15 -31t15 -31h-11.5h-11.5q-5 11 -5 13h-12
h-12q0 -3 2 -13h-12h-11zM933 715q-3 -8 -7 -10q-6 -4 -14 -4q-18 0 -32 16q-8 9 -12 21q-8 14 -11 28q-5 16 -6 28q-2 12 2 21q6 16 26 16q17 0 29 -12q13 -11 20 -32h-12.5h-12.5q-5 8 -7 10q-6 4 -9 4q-7 0 -8 -10q-2 -6 2 -25q4 -18 11 -25q5 -10 13 -10q4 0 8 5
q2 2 2 12h-5h-4q-2 6 -4 13t-3 13h15.5h16.5q5 -21 8 -35q5 -21 8 -35h-5h-4q-4 8 -5 11zM969 704q-4 15 -7 31t-6 31t-6.5 30.5t-6.5 30.5h31h32q1 -8 2.5 -15.5t3.5 -14.5h-21h-19q0 -4 1 -8t2 -7h15h17q1 -10 5 -30h-16.5h-14.5q2 -10 3 -16h19h21q1 -10 5 -32h-30h-30z
M1108 704q-2 15 -3.5 31t-2.5 31q-2 15 -3.5 30.5t-2.5 30.5h16.5h17.5q2 -15 8 -37q1 -10 3 -19.5t4 -18.5q0 9 1 18.5t2 19.5q0 9 1 18.5t2 18.5h17h18q0 -21 2 -61q0 -15 0.5 -31t1.5 -31h-10h-10q0 18 -2 48l-2 24t-1 24q-1 -12 -2.5 -24t-1.5 -24q-1 -12 -2.5 -24
t-1.5 -24h-8.5h-7.5q-7 28 -11 48q-3 16 -11 48q4 -32 5 -48q0 -12 1.5 -24t2.5 -24h-10.5h-9.5zM1234 827v-15.5v-14.5v-15.5v-14.5q0 -19 3 -26q1 -7 9 -7q5 0 9 7q3 12 3 26v14.5v15.5v14.5v15.5h12h12q-1 -11 -1 -32q0 -9 -0.5 -17t-0.5 -16t-1.5 -15t-1.5 -12
q-1 -8 -6 -20q-10 -14 -25 -14q-18 0 -25 14q-5 7 -6 20q-3 10 -3 27v16v17q-1 10 -1 32h11h12zM1315 704q0 12 1.5 23t1.5 23q0 11 1 22.5t2 23.5h-11h-10q0 7 0.5 15t0.5 16h33h34l-2 -16t-1 -15h-11.5h-10.5q0 -12 -1.5 -23.5t-1.5 -22.5q-2 -30 -3 -46h-11h-11z
M1396 747h6.5h7.5q0 5 -0.5 10t-0.5 11v11v11q-4 -9 -7 -22q-2 -6 -3.5 -11t-2.5 -10zM1361 704q3 15 8.5 31t9.5 31q5 15 9.5 30.5t10.5 30.5h14.5h15.5q0 -15 1 -30.5t2 -30.5q0 -15 0.5 -31t1.5 -31h-11.5h-11.5v6.5v6.5h-12h-12q-2 -8 -3 -13h-11.5h-11.5zM1449 704
q2 15 4.5 31t5.5 31q2 15 4.5 30.5t5.5 30.5h13.5h14.5q1 -9 2 -17.5t3 -17.5q2 -24 4 -36q1 9 3 18l4 18q1 8 3 17l4 18h11h12q-4 -15 -7 -30.5t-6 -30.5q-4 -15 -7.5 -31t-6.5 -31h-12h-12q-2 9 -3 18l-2 18q-1 12 -5 36q-2 -9 -3.5 -18t-2.5 -18q-3 -9 -4 -18t-3 -18
h-10.5h-9.5zM1553 704q4 16 12 46q3 19 11 46h-11h-10q1 7 3 15l4 16h32.5h34.5q-3 -8 -5 -16t-4 -15h-11.5h-10.5q-3 -12 -6 -23.5t-6 -22.5q-3 -12 -6 -23t-5 -23h-11.5h-10.5zM1673 704q5 15 10 31t11 31q5 15 10 30.5t11 30.5h13h14q0 -9 -0.5 -18t-0.5 -17
q-2 -24 -2 -36q3 9 6.5 18t6.5 18q3 8 6.5 17t7.5 18h10.5h11.5q-6 -15 -12 -30.5t-12 -30.5t-12 -31t-12 -31h-12h-12q2 24 2 36q0 9 0.5 18t0.5 18q-3 -9 -6.5 -18t-6.5 -18t-6.5 -18t-6.5 -18h-10h-10zM1763 704q6 15 12.5 31t12.5 31t12.5 30.5t13.5 30.5h11h12
q-15 -32 -26 -61q-16 -35 -26 -62h-11.5h-10.5zM1808 704q6 15 13 31t14 31q6 15 13 30.5t14 30.5h13h15q-2 -9 -3 -18t-2 -17q-2 -9 -3.5 -18t-2.5 -18q12 24 17 36q4 9 8 17.5t9 17.5h11h12q-8 -15 -16 -30.5t-15 -30.5q-8 -15 -15.5 -31t-14.5 -31h-12h-12q0 9 2 18t3 18
q1 12 5 36q-12 -24 -17 -36q-4 -9 -8.5 -18t-7.5 -18h-11h-9zM1920 757h10.5h11.5q-1 -2 -5 -11t-3 -7q0 -5 2 -5q5 0 9 4q6 9 12 21q4 8 8.5 16.5t9.5 17.5q4 8 9 16.5t10 17.5h11h12q-9 -15 -17 -31q-12 -22 -18 -32q-15 -27 -18 -30q-3 -5 -6 -9t-5 -7q-9 -9 -16 -13
q-12 -4 -17 -4q-16 0 -16 11q0 7 3 16q0 2 10 23q0 1 1 2.5t2 3.5zM2017 747h6.5h7.5l4 10t5 11q4 8 10 22q-4 -5 -17 -22q-10 -14 -16 -21zM1962 704q12 15 23.5 31t23.5 31t24.5 30.5t24.5 30.5h14h15q-6 -15 -12.5 -30.5t-12.5 -30.5t-13 -31t-13 -31h-12h-12q2 5 6 13
h-12h-12q-6 -8 -9 -13h-11.5h-11.5zM462 507q-15 15 -25.5 27.5t-29.5 6.5q-15 -6 -40 -22.5t-45 -23.5q-18 -7 -23 -27.5t-11 -36.5q-19 7 -28 1q-28 -22 -60 -52.5t-65 -20.5q-10 3 -15 -10t4 -29q7 -16 35.5 -22t46.5 -3q41 6 53.5 21.5t43.5 32.5q10 6 6 -13.5t2 -30.5
q58 -110 82 -227q2 -13 22.5 -21t27.5 4q13 22 32 40.5t46 9.5q16 -6 13.5 20t-11.5 42q-33 46 -66.5 94t-64.5 99q-7 10 -7 26.5t10 24.5q18 15 44.5 14t45.5 13q7 5 2.5 17t-10.5 18q-6 5 -17.5 0.5t-12.5 2.5q-3 6 8 12.5t7 12.5zM296 420q15 -14 30.5 -16.5t18.5 -11.5
q2 -9 -20 -2.5t-16 3.5q8 -5 -5 12.5t-8 14.5zM480 107q-17 29 -41 72q-10 16 -27 28t-26 29q-3 4 7 3.5t14 -3.5q33 -22 44 -41q11 -21 16 -44t13 -44zM2082 507q-3 8 -2.5 17t-5.5 15q-5 4 -24 -1q-30 -12 -47 -31t-26 -42q-6 -15 0 -22.5t12 -8.5q-24 -19 -7 -41
q10 -13 18 -29.5t23 -22.5q13 -8 20 2.5t10 19.5q2 -9 2.5 -18t6.5 -15q12 -14 27.5 -23t29.5 -20q16 -15 33.5 -28t29.5 -30q8 -12 -3 -23.5t-19 -22.5q6 7 3 12t0 14q-5 3 -7 -6.5t-8 -9.5q-33 0 -78 14q-23 6 -28 30.5t-16 28.5q-22 7 -44 -12t-37 -37q-6 -8 -3 -20.5
t10 -18.5q4 -6 12 -1.5t15 6.5q-5 -7 -14 -14.5t-3 -12.5q22 -21 50 -38t58 -18q16 -1 25 17t21 30q6 -12 10 -32t17 -19q35 2 71 21.5t54 51.5q23 40 16 83.5t-31 67.5q-5 5 -15 3.5t-19 -1.5q3 6 9.5 14t0.5 13q-27 21 -63 30t-62 33q-7 6 -1 20.5t15 15.5q24 1 49 -20
t44 -6q12 10 30.5 33t11.5 35q-19 30 -60 38.5t-77 12.5q-12 0 -19 -13t-15 -21zM1708 557q9 -45 -2.5 -80.5t-6.5 -60.5q0 -6 3 -10.5t5 -10.5q-15 2 -14 5q-32 -65 -49 -129q-4 -11 8 -7q18 9 47 15q-9 -6 -23.5 -15.5t-3.5 -9.5q155 -8 220 -57q5 -4 12.5 1.5t11.5 11.5
q10 14 18.5 30.5t8.5 34.5q0 10 -11.5 16t-20.5 9q-15 5 -50 -11.5t-70 -32.5q17 12 45.5 23t32.5 26q3 17 -25.5 15.5t-46.5 1.5q-3 0 -8 -3t-5 0q-3 21 7 54q0 4 6.5 11.5t6.5 3.5q0 -6 -3.5 -19t10.5 -15q21 -3 46.5 -11t46.5 -4q13 2 22 18t16 32q4 10 -6 23.5t-21 14.5
q-23 1 -56 -18q0 3 5.5 11t2.5 11q-15 11 -43.5 6.5t-27.5 3.5q0 7 15.5 34t14.5 25q12 -18 32 -33t41 -6q9 3 58 0q3 0 4.5 7t-1.5 7l-22 1q4 2 12.5 5.5t9.5 8.5q3 13 6 33t-9 23q-27 6 -61 17.5t-46 2.5l-29 -20q-6 8 -9.5 17.5t-10.5 13.5q-20 9 -59.5 6.5t-33.5 -26.5z
M1755 441q-13 -24 -8 -43.5t12 -36.5q3 -9 -10.5 -17t-20.5 -15q12 14 17.5 31t-10.5 42q-6 8 4.5 18.5t15.5 20.5zM1498 617q-34 19 -37 -37q-3 -30 -8 -61t-17 -58q-18 -39 -32.5 -76.5t-27.5 -74.5q-3 -9 -2 -21.5t14 -10.5q45 4 89.5 -10t89.5 -26q20 -5 39 16
q6 6 10.5 19t-3.5 14q-15 2 -33 4.5t-34 6.5q17 2 36 1t35 2q9 1 10 17.5t-7 19.5q-24 10 -51.5 9t-53.5 -4q-16 -2 -30 -11t-29 -16q0 19 13 24q4 -6 5 -8q13 13 28.5 25.5t24.5 30.5q4 8 -2 19t-3 20q5 14 18 24t19 25q11 24 31.5 45t24.5 40q6 28 -27.5 33t-57.5 11
q-4 0 -11 -7q-6 3 -11 7.5t-10 7.5zM1512 531q-13 -47 -16 -83q-9 4 -16 -4q10 15 17 39t15 48zM543 439q15 20 15 66q0 20 -16 24q-11 2 -30.5 -1t-19.5 -13q0 -35 20.5 -76.5t23.5 -80.5q0 -4 7.5 -4.5t8.5 -4.5q0 -4 -5.5 -6.5t-4.5 -5.5q6 -46 22 -90t71 -59
q27 -8 55 4.5t48 29.5q3 3 2 9t3 9q2 2 5.5 -2.5t6.5 -1.5q55 46 59 134q0 8 -1.5 16.5t-1.5 17.5t-16.5 3t-34.5 2q22 8 35 6t17 12q9 31 1.5 64t-12.5 65q-4 16 -16 21q-17 6 -27 -4q-9 -9 -10 -20.5t-13 -26.5q-2 16 4 23.5t6 18.5q0 7 -12 7q-9 0 -20 1t-16 -6
q-7 -12 -5 -27t4 -28q1 -29 8 -57t7 -56q-1 -31 -7.5 -61.5t-14.5 -59.5q-4 -12 -12 -31t-14 -10q-8 12 6.5 28.5t5.5 28.5q-12 15 -21 29.5t-9 32.5q0 17 0.5 35.5t-5.5 34.5q-3 6 -16.5 1t-10.5 1q3 8 17.5 15t14.5 29q0 15 0.5 32t-5.5 32q-8 14 -31 7q-33 -10 -42 -31
q-6 -13 -2 -26.5t0 -27.5q-3 -8 -3.5 -12.5t-18.5 -9.5zM996 370q-2 -6 -7 -13.5t-2 -14.5q-1 6 -8.5 10t-4.5 10q0 5 11 9t11 -1zM935 516q3 9 17.5 5t24.5 -2q18 3 21 15t4 24q7 -29 19 -40q6 -7 12.5 -20t-0.5 -18q-15 -10 -36 -15.5t-37 -10.5q-14 -4 -20 -28t-7 -17
q-7 24 -7.5 53t9.5 54zM1131 522q18 2 36 7t33 2q10 -2 3 -24t-1 -37q1 -2 11 -9q-19 -14 -19 -17q-4 -33 -12 -69.5t-5 -72.5q0 -12 15.5 -15t26.5 0q17 4 37 5t31 10q18 14 15.5 43t-2.5 53q0 6 -6 9.5t-9 8.5q3 9 8.5 18.5t6.5 19.5q7 50 5 96q0 2 -10 22q6 -4 11.5 -9.5
t12.5 -6.5q25 -3 53 -17.5t49 -6.5q15 6 16.5 33t1.5 44q0 14 -14 26t-28 15q-27 6 -55 1t-55 -8q-19 -3 -38.5 -7t-34.5 -15q-8 -6 -6 -18t1 -21q-3 8 -2 19.5t-7 12.5q-26 1 -53 -2t-53 0q-17 2 -18 -7q-2 -5 -2 -17q-24 28 -41 30h-61.5t-58.5 -6q-25 -5 -48.5 -10.5
t-27.5 -19.5q-10 -27 -4 -48.5t12 -48.5q2 -13 13.5 -10t14.5 0q-9 -4 -22.5 -16t-4.5 -37q11 -33 5 -68.5t2 -68.5q8 -34 32 -38q10 -2 14 12.5t15 16.5q7 0 10.5 -11.5t11.5 -9.5q25 2 25 28q0 20 -11 33.5t-10 31.5q0 4 -1 25t2 16q15 -30 26 -64t47 -54q9 -5 17.5 -12.5
t19.5 -7.5q9 0 9 8.5t7.5 5.5t26 8t30.5 27q5 8 -6 11.5t-9 8.5q3 0 11.5 -4.5t15.5 3.5q6 6 0 10q-47 32 -95 56q-4 1 -13.5 -1t-4.5 1q27 13 60.5 18.5t54.5 29.5q13 15 8 38.5t-11 44.5q-2 1 -2.5 2.5t-1.5 3.5zM1212 366q0 -7 2 -14t0 -13q-3 -6 -9.5 -8t-10.5 -5
q14 14 18 40zM1249 543q17 -8 19 -11q3 -8 0 -16t-3 -16q-2 21 -16 43z" />
    <glyph glyph-name=".null" horiz-adv-x="0" 
 />
    <glyph glyph-name="nonmarkingreturn" horiz-adv-x="333" 
d="M159 728q3 -1 6 -3.5t8 -4.5l10 12q19 5 44.5 14.5t15.5 -28.5q-7 -23 -27 -56.5t-34 -68.5q-7 -19 -19.5 -37t-19.5 -38q-4 -12 -1 -21t-2 -22q-10 -24 -24.5 -46t-27.5 -45q-1 4 -2 7q-12 -11 -15 -34q12 15 25.5 32.5t25.5 27.5q22 15 43.5 29.5t40.5 12.5
q6 -1 1.5 -20t-11.5 -24q-13 -12 -28.5 -20t-28.5 -18q12 4 26.5 9t25.5 10q6 2 -0.5 -16t-11.5 -27q-7 -12 -17 -23t-17 -11q-33 -8 -66 -11.5t-71 -30.5q-10 -7 -9 6.5t6 25.5q17 51 36 102t40 105q14 36 24 76t17 75q13 68 37 61zM154 632q-11 -31 -21 -63.5t-21 -52.5
q8 11 14 11q6 27 13 53.5t15 51.5zM249 529q15 24 25 15q2 -4 -1.5 -18t-5.5 -24q5 11 8 25t11 23q11 14 29.5 31t15.5 -1q-14 -61 -35 -132.5t-37 -138.5q-3 -10 -12 -14t-15 -10q6 0 15.5 4.5t6.5 -8.5q-10 -36 -34.5 -93.5t-45.5 -90.5q-22 -34 -34.5 -41t-34.5 -42
q1 6 2.5 13t3.5 15q-6 -9 -12.5 -21t-11.5 -15q-16 13 -28 30t-18 31q-12 35 14 158q2 8 9.5 12t12.5 6q0 1 4 -10q2 6 3.5 13.5t4.5 12.5q19 28 28 27q6 -1 -8.5 -59t-9.5 -65q1 -5 6.5 -2.5t6.5 -2.5q2 -7 0.5 -17t-1.5 -18q3 9 6.5 20.5t6.5 20.5q3 8 17 25.5t18 27.5
q11 31 21.5 63t22.5 63q15 39 20.5 74.5t12.5 71.5q1 9 4 20.5t9 20.5z" />
    <glyph glyph-name="space" unicode=" " horiz-adv-x="360" 
 />
    <glyph glyph-name="space" unicode="&#xa0;" horiz-adv-x="360" 
 />
    <glyph glyph-name="exclam" unicode="!" horiz-adv-x="349" 
d="M173 24q10 2 23 2t19 8q7 8 8.5 14.5t2 14t0.5 17t4 23.5q-10 -23 -15 -37t-12 -23q-8 -9 -15 -11.5t-15 -7.5zM150 164q-14 -6 -19 -20t-6 -36q4 26 19 41t27 15h53q13 0 22 -9t9 -22v-101q0 -13 -9 -22.5t-22 -9.5h-99q-13 0 -22.5 9.5t-9.5 22.5v101q0 13 9.5 22
t22.5 9h25zM173 506q3 11 7.5 26t2.5 34q-2 14 -8 30.5t-13.5 32.5t-15 30t-11.5 23q22 -60 30 -103t8 -73zM228 281q-34 26 -76 11q-5 -2 -7.5 7t-3 21l-1 24t-0.5 17v-16.5t-1 -22.5t-2.5 -19.5t-5.5 -8.5q-10 -1 -20.5 7t-11.5 19q-4 38 -3 75t4 75q1 6 5.5 13.5t9 17
t7.5 20.5t1 24q-1 -3 -3 -10t-5 -15.5t-7.5 -16.5t-10.5 -13q2 19 1 34.5t-1 27.5q-3 44 -6.5 86.5t-5.5 86.5q-1 13 5 18.5t15 7.5t19.5 2h19.5q16 0 28 -1t20 -6q4 -2 3 -5.5t-3 -11.5t0.5 -18t6.5 -20.5t8.5 -21t6.5 -19.5q3 15 -1.5 34t-6.5 34q0 8 1.5 16t8.5 12
q16 8 28 3t13 -11q1 -28 2.5 -53t-0.5 -37q-1 -6 -1 -34.5v-62.5v-66.5t-1 -46.5q-1 -7 -4.5 -4t-8 8.5t-8.5 11t-7 4.5l6 -12t8.5 -17.5t7.5 -18.5t4 -14q1 -11 2 -28.5t-0.5 -35.5t-8 -32.5t-20.5 -18.5z" />
    <glyph glyph-name="quotedbl" unicode="&#x22;" horiz-adv-x="442" 
d="M337 520q7 11 8.5 31.5t12.5 41.5q6 10 6 19t-1.5 19t-2 21.5t4.5 26.5q-7 -12 -9 -22.5t-2.5 -20.5t-1.5 -19.5t-6 -19.5q-10 -20 -8.5 -39t-0.5 -38zM310 750q-20 -11 -20 -55q3 25 15.5 40t23.5 15h45q11 0 19 -9t8 -22v-79q0 -14 -5.5 -38.5t-12.5 -49.5t-14.5 -43
t-10.5 -18h-50q-3 0 -10.5 18t-15 43t-13.5 49.5t-6 38.5v79q0 13 7.5 22t18.5 9h21zM115 538q7 11 6.5 24.5t10.5 33.5q6 10 6 16.5t-1.5 12.5t-2 14.5t4.5 23.5q-7 -12 -8.5 -20t-1.5 -15t-0.5 -14t-5.5 -17t-6.5 -17t-1.5 -13t0.5 -13t-0.5 -16zM88 750q-21 -11 -21 -55
q3 25 15.5 40t23.5 15h45q11 0 19 -9t8 -22v-79q0 -14 -5.5 -38.5t-12.5 -49.5t-14 -43t-10 -18h-51q-3 0 -10.5 18t-15 43t-13.5 49.5t-6 38.5v79q0 13 8 22t19 9h21z" />
    <glyph glyph-name="numbersign" unicode="#" 
d="M415 104q0 48 18 114t47 167q-5 -16 -14 -38t-18.5 -47t-19 -51.5t-13.5 -51.5v-93zM254 343q11 21 19.5 47.5t8.5 47.5q4 25 4.5 54t-0.5 56.5t-2.5 51t-1.5 38.5q0 -100 -8.5 -172t-19.5 -123zM95 278q4 9 15.5 12t26.5 3t31.5 -1.5t32.5 -1.5q11 21 19.5 50t19.5 70
q-5 -5 -10 -16.5t-9.5 -25t-9.5 -27.5t-10 -23q11 29 12.5 57t1.5 49h-67q-5 0 -10 4.5t-7.5 9.5t-2 9.5t5.5 4.5q11 9 20 4.5t20 -4.5q-11 9 -20 10.5t-20 1.5q-4 4 -7 10q-7 12 -7 32q5 4 6.5 10.5t3.5 11.5t8 6.5t21 -3.5h81q0 40 7 87t7 87q5 20 12 28.5t14.5 11
t14.5 1.5t12 -1q11 0 19.5 -1.5t8.5 -10.5v-28q-5 -9 -8 -23t-4.5 -30.5t-1.5 -34v-33.5q11 21 12.5 49.5t1.5 57.5q0 10 7 26q3 8 7 16q19 9 22 3t3 -16q-5 -21 -8 -43t-5.5 -42t-5 -37t-6.5 -28v-39q29 0 50.5 7t41.5 7q0 11 1.5 18t12.5 7q0 11 2 28t4.5 37t4.5 42t2 43
q9 10 19 16t20 -3v-42q-10 -29 -18.5 -57.5t-8.5 -49.5q5 16 10 33.5t8.5 34t6 30.5t2.5 23q5 5 8 10.5t5 9.5t2 8q0 9 8 10.5t16 1.5q10 0 20 1t16.5 -1.5t8.5 -11t-3 -28.5q-11 -40 -21 -81.5t-21 -92.5h67q11 0 19.5 -8.5t8.5 -16.5q0 -5 -6.5 -6t-16.5 -2.5t-22 -5.5
t-22 -15q10 6 18 6.5t14 0.5t11 1t11 7q10 0 11.5 -17t1.5 -37q-5 -5 -18.5 -8t-29.5 -4.5t-32 -1.5h-26q-10 -21 -11.5 -49t-1.5 -57q-6 9 -9 23t-4.5 27.5t-1.5 25v16.5q-5 -20 -5.5 -37.5t0.5 -32.5t3 -27.5t2 -22.5h95q3 -8 4 -13q2 -13 -4 -13q0 -5 -4.5 -6t-11 0.5
t-13.5 3.5t-12 2q5 -5 11.5 -7.5t13.5 -4.5q8 -2 16 -2t9.5 -8.5t1.5 -16.5q0 -11 -0.5 -21t-2.5 -16.5t-7.5 -8.5t-14.5 3h-94q-11 -40 -14 -71t-12 -61q0 -21 -8 -31t-19 -10q-5 0 -3.5 15t5.5 35.5t8 40.5t4 29q-5 -15 -10 -33.5t-9 -36t-6.5 -31.5t-2.5 -19
q0 -11 -16 -11t-37 11q-5 0 -5.5 16t2 41t7.5 56t10 60h-95q-4 -29 -11 -60t-14.5 -56t-15 -41t-12.5 -16q-19 -11 -36 -11t-17 11q5 5 10 19t7.5 31.5t2 36t-5.5 33.5q0 -9 -2.5 -29t-6 -40.5t-8.5 -35.5t-10 -15q-11 0 -13 10t-2 31q0 30 7.5 61t7.5 71h-54q-10 0 -17.5 9
t-7.5 19q0 6 6.5 7t15 2t17.5 4t14 13q-5 -4 -12 -5t-13.5 -1t-11 -0.5t-4.5 -4.5q-9 0 -10.5 16t-1.5 37zM402 290q5 10 11.5 24.5t12.5 28.5t10.5 25.5t4.5 16.5q0 4 -4 -3.5t-9 -16.5t-9 -13.5t-4 4.5q0 11 6 29t6 39h-92q-11 -21 -12.5 -39t-1.5 -29q-5 -9 -8 -4.5
t-4.5 13.5t-1.5 16.5t0 3.5v-95h95z" />
    <glyph glyph-name="dollar" unicode="$" 
d="M217 713q15 4 24.5 12t17 16.5t15 15.5t16.5 7h18q1 8 1 19t2 37q0 13 7.5 21t15.5 6t10 -12t10 -16q-3 7 -3.5 12t-2.5 9q-3 9 12 11t28 -4q6 -3 9 -11.5t4.5 -20.5t1.5 -25.5v-25.5q25 -1 48 -3t40 -4q20 -4 39.5 -8t37 -10t32 -15t23.5 -23q4 -6 15.5 -27.5t22 -47
t15.5 -49.5t-4 -34q-9 -11 -33 -12t-50.5 0.5t-49.5 3t-30 -3.5q-10 -7 -12 -1t-3.5 18t-5 26.5t-16.5 24.5q-11 8 -35.5 10.5t-55.5 2.5q-18 12 -38.5 19t-52.5 6q21 -3 33.5 -9t26.5 -17q-32 -2 -60.5 -4.5t-39.5 -3.5q-18 -2 -30 -28q-3 -6 -4.5 -18t-1.5 -24t1 -22
t4 -14q13 -18 42 -25.5t62.5 -9.5t65 -2.5t49.5 -4.5q18 -5 42.5 -8t49 -6.5t46.5 -10t35 -16.5q7 -6 3.5 -8.5t-13 -5t-22 -6.5t-21.5 -13q12 3 27.5 4t30.5 0.5t28 -4.5t20 -12q17 -20 24 -47t8.5 -52.5t0 -45t-0.5 -24.5q3 -21 -0.5 -38.5t-11 -34t-18.5 -33t-22 -35.5
q-9 -15 -21.5 -22t-27.5 -11.5t-32 -9.5t-35 -14q-20 -9 -54 -11t-69 -1q-1 -18 -1 -36t-1 -37q0 -4 -4 -7.5t-9 -5t-10 -1t-8 5.5q-3 6 1 13t1 21q-4 -16 -7 -23t-3 -13q0 -4 -7 -6t-16 0q-5 0 -11 -0.5t-11 1.5t-8 8.5t-3 21.5q1 16 1 31v31h-6q-6 -1 -13.5 -2t-14.5 -0.5
t-12.5 4t-7.5 12.5q-3 18 -15.5 34.5t-24.5 26.5q5 -13 11 -26t7.5 -23t-5 -16t-25.5 -4q-17 2 -37 9t-39 16.5t-35 21.5t-25 23q-5 7 -4.5 12.5t9.5 13.5t16.5 10.5t14.5 3.5q-8 6 -16.5 6t-16.5 -4q-15 -8 -23 0q-15 12 -21 36t7 37q7 8 3.5 16t-9 15t-9 13.5t4.5 12.5
q11 9 35.5 11t51.5 1.5t51 -2.5t36 -2q7 0 9 -4.5t2 -12.5t-0.5 -18t1.5 -22q5 -23 29.5 -31.5t54.5 -10.5q20 -1 38 1t37 -1q6 -1 11.5 2t11.5 7l12 8t13 6q-9 -9 -10 -23q7 -1 21.5 1.5t29.5 7t28.5 10t18.5 11.5q5 5 9.5 16t6.5 23.5t1.5 24t-4.5 17.5q-11 17 -33 26
t-51 14q-16 2 -42 3.5t-55 3t-56.5 3.5t-45.5 6q-9 2 -20.5 3t-22.5 2.5t-19.5 3.5t-11.5 6q-8 11 -12 30.5t-21 33.5q1 -12 2 -22t-1 -16t-9 -7t-23 7q-29 13 -45 45q-8 15 -8.5 33.5t-6.5 33.5q-13 31 -3 52q2 4 7 12.5t11 17.5t11.5 17t9.5 12q-6 1 -11.5 -3t-10.5 -8.5
t-9 -7.5t-7 0q-3 4 -3.5 11t1 16t3.5 18t5 16q10 22 16.5 44t22.5 39q10 11 26.5 19t35 14t37 10.5t33.5 8.5q16 4 21.5 1t4 -10.5t-7.5 -17.5t-12 -19zM642 292q-8 14 -20.5 21.5t-26.5 12.5q10 -6 19.5 -24t16.5 -39t11.5 -41t3.5 -30q1 15 2 31t0.5 30t-2 24.5t-4.5 14.5
zM481 713q48 -14 84 -43t46 -68q4 22 -5 47.5t-21 35.5q-11 9 -22.5 14t-24 7t-27 3.5t-30.5 3.5z" />
    <glyph glyph-name="uni0025" unicode="%" horiz-adv-x="907" 
d="M138 712q-4 -1 -7.5 -1h-6.5q-8 0 -14 -6q-5 -3 -7 -11q-2 -5 -2.5 -8.5t-2.5 -6.5q15 25 40 33zM674 336q-5 -2 -15 -2q-6 0 -13 -5q-4 -2 -8 -12q-2 -11 -4 -15q17 27 40 34zM432 349q12 17 30 41.5t35 54.5q12 23 22.5 49.5t19.5 52t16 48t13 37.5
q-38 -96 -72.5 -165.5t-63.5 -117.5zM276 8q-11 -3 -24 -5.5t-23 -2.5t-14 2.5t2 8.5q7 6 16.5 21t18 32.5t14 35.5t5.5 30q-3 -9 -12.5 -28.5t-21 -40t-23 -36.5t-18.5 -17q-9 -2 -10 11t9 31q32 60 68.5 120t74.5 120q6 9 16.5 21.5t23.5 27.5t26.5 33t24.5 39
q-4 -4 -12.5 -15.5t-19 -25t-22 -27t-21.5 -21.5q19 30 33.5 56t25.5 44q39 71 77 140.5t78 138.5q11 21 21.5 30t19.5 12t17 2.5t16 -0.5q28 3 34 -9q2 -4 -3 -9.5t-13 -18.5q-9 -13 -16.5 -29.5t-14.5 -33.5t-13.5 -33.5t-13.5 -30.5q17 23 31 53.5t28 55.5q7 13 16 26
t17 18q21 13 26.5 6t-0.5 -18q-26 -45 -48.5 -85t-35.5 -60q-4 -7 -17.5 -30t-32.5 -55.5t-41 -70t-43 -73t-38.5 -64.5t-27.5 -44q-7 -11 -7.5 -7t1.5 13t3.5 18t-1.5 7q-4 -8 -9 -21t-10 -28t-10 -29t-9 -22q-9 -17 -23 -42.5t-30.5 -51t-33.5 -45.5t-31 -24zM804 9
q1 -8 -10 -10q-9 -2 -17.5 -4.5t-17.5 -4.5q-17 -5 -66 0q-10 2 -22 6t-26 9t-28 12.5t-28 17.5q-9 11 -16 32q-4 10 -5.5 19.5t-2.5 17.5q0 8 12 19q12 9 15 28q-2 -7 -6 -11.5t-9 -9.5q-14 -7 -15 -4q-5 2 -5 11v14q-2 16 -3 32t-1 32q0 31 12 69q3 19 21 36q8 9 15.5 17
t15.5 16q14 10 40 16q24 8 37 6q7 -3 5 -15q-1 -6 -4 -13t-11 -16q15 4 18 21t16 25h41q35 0 43 -7q20 -15 28 -32q6 -10 11.5 -19.5t12.5 -20.5q5 -11 8.5 -24t2.5 -29q0 -9 -6 -25q-3 -8 -6 -16.5t-6 -17.5q10 17 13 28q4 10 10 11q5 -8 8 -21q1 -5 1.5 -11t0.5 -11
q-1 -10 -1.5 -20t-1.5 -20q-3 -20 -9 -37q-6 -13 -12 -24t-14 -22q-14 -21 -21 -39q-4 -4 -20 4q-15 5 -20 8q2 -5 15 -11q13 -8 8 -12zM738 319q-2 -8 -11 -20q-8 -12 -19 -14q-12 -7 -20 -8q-9 -3 -16 -14q-10 -15 -13 -35q-2 -10 -4 -19t-4 -19q-3 -18 -11 -33q3 0 8 10
q4 8 7 4q9 -13 11 -30q5 -18 14 -29q5 -7 10 -13t10 -13q13 -10 24 -2q6 5 13 9t16 6q15 6 17 27q-2 25 8 36q4 6 9.5 11.5t13.5 12.5q-5 0 -9 -4q-3 -5 -8 -3q-13 -9 -15 14q0 11 -0.5 21t-1.5 21q-3 21 -11 27q-3 2 -6.5 5.5l-6.5 6.5q-3 4 -6 7.5t-7 5.5q-5 1 1 12
q7 7 7 20zM732 33q-2 1 -5.5 2.5t-5.5 3.5q-8 2 -16 -3q-19 -2 -28 1q-13 2 -29 11q23 -22 37 -23q17 -3 47 8zM269 394q0 -8 -12 -8q-8 -3 -16.5 -5.5t-16.5 -4.5q-18 -3 -67 0q-21 4 -48 15q-14 5 -28 12t-29 17q-9 12 -15 31q-7 22 -8 36q0 8 12 19q11 8 15 27
q-2 -7 -5.5 -11.5t-10.5 -8.5q-11 -8 -14 -5q-4 1 -4 11v14q-2 15 -3 30.5t-1 31.5q0 29 11 67q5 19 21 35q8 8 15.5 16t14.5 15q15 9 41 16q25 7 37 6q6 -5 5 -15q-1 -11 -14 -28q14 6 17 20q3 15 17 25q6 2 40 0q32 0 44 -7q16 -12 28 -31q5 -10 10.5 -19t11.5 -20
q12 -19 12 -51q0 -4 -1 -10t-5 -14l-6 -16t-5 -17q5 9 8 15.5t5 11.5q3 10 9 10q7 -8 8 -20q2 -5 2 -10.5v-10.5q0 -19 -3 -40q-1 -10 -3.5 -18.5t-6.5 -16.5q-5 -12 -11 -23t-13 -22q-8 -10 -13 -19.5t-9 -18.5q-4 -2 -19 4q-17 7 -21 9q1 -5 15 -12q12 -5 9 -12zM202 696
q-1 -7 -11 -20q-8 -11 -20 -14q-4 -3 -8.5 -4.5t-9.5 -3.5q-11 0 -16 -12q-12 -20 -13 -34q-2 -10 -4 -19t-4 -19q-4 -16 -12 -32q5 2 8 11q4 7 7 4q4 -7 7 -14.5t5 -16.5q3 -15 13 -28q9 -12 21 -24q11 -11 22 -2q7 5 14.5 8.5t15.5 6.5t12.5 8.5t4.5 16.5q0 12 1.5 21
t6.5 14q5 6 10.5 11.5t13.5 11.5q-7 0 -10 -3q-3 -5 -7 -3q-15 -9 -15 13q0 21 -3 41q-3 21 -11 26q-4 2 -6.5 5.5t-5.5 7.5q-5 5 -13 11q-6 4 1 12q6 9 6 20zM197 419q-8 2 -12 4q-4 4 -17 -2q-15 -2 -27 0q-12 3 -29 13q21 -21 38 -24q14 -3 47 9z" />
    <glyph glyph-name="ampersand" unicode="&#x26;" horiz-adv-x="774" 
d="M407 426q4 -4 19.5 -18.5t35.5 -32.5t40.5 -36.5t34.5 -31.5q1 14 1 24.5t1 16.5q2 12 0 22t-3 17.5t1.5 12t13.5 4.5q12 0 31.5 3t41 5.5t41 1.5t31.5 -10q7 -6 6 -11.5t-4 -11.5t-4 -13t7 -15q6 -7 4.5 -26.5t-6.5 -31.5q-3 -6 -2 -16t2.5 -20t2 -17.5t-2.5 -7.5
q-4 -1 -10.5 0t-13.5 2.5t-13 2t-10 -2.5q7 -2 13.5 -4.5t16.5 -10.5t10 -13t-5 -12q-1 -2 -1.5 -4.5t-2.5 -4.5q12 -12 34.5 -33.5t45.5 -42.5l-78 -102l-69 56q-17 -20 -36 -34t-35 -21q-18 -8 -23 -3.5t-2.5 15t9 25.5t11.5 28q-11 -11 -24 -31t-17 -38q-2 -9 -7.5 -12.5
t-12.5 -4t-14.5 1t-14.5 1.5q-25 2 -50.5 -0.5t-49.5 -2.5q-37 -2 -70.5 0t-52.5 12q-18 9 -35.5 13.5t-33 9t-28 11.5t-21.5 22q-11 19 -21.5 36t-18 34t-11 34.5t-0.5 37.5q1 5 0 24.5t0.5 45t8 52.5t23.5 48q7 8 20 12t28 4.5t30.5 -0.5t27.5 -4q-10 9 -24 13.5t-26 7.5
t-17.5 6t2.5 9q14 12 40.5 14.5t57.5 1.5q-3 9 -6.5 18.5t-13.5 17.5q1 -9 2 -17t-0.5 -12.5t-7 -5t-18.5 5.5q-22 9 -36 34q-5 13 -6 28t-6 26q-9 24 -2 41q2 4 6 11t8.5 14t9 13t7.5 9q-5 1 -9 -2t-8 -7t-7.5 -6t-5.5 1q-5 5 -2.5 20.5t7.5 26.5q8 17 13 34.5t17 31.5
q8 9 21 15.5t27.5 11t29.5 8.5t27 7q13 3 17 0t3 -9t-6 -14t-10 -15q12 3 19.5 10t13.5 13.5t12 12t14 5.5h13q36 0 72.5 0.5t71.5 -6.5q32 -5 57.5 -16.5t46.5 -27.5q24 -18 23.5 -38t-15.5 -41t-40 -42.5t-52 -42.5q-8 -6 -13 2t-9.5 21t-10 27.5t-15.5 22.5
q-9 7 -21.5 14t-35.5 7q-15 10 -32 15t-40 5q15 -3 25.5 -7.5t21.5 -13.5q-14 -1 -32 -11t-30.5 -27t-15 -39.5t14.5 -46.5q6 -9 16.5 -20.5t22.5 -25.5q12 -11 23 -21.5t22 -21.5zM288 342q-11 10 -19 6t-14 -15.5t-9.5 -27t-6.5 -29.5q-1 -7 -1.5 -21t0.5 -29t3.5 -28
t8.5 -18q5 -5 18.5 -11t29 -10.5t29.5 -7t22 -1.5q-2 8 -4.5 13t-7.5 10q14 -4 25 -14.5t24 -8.5q20 4 38 4t37 4q17 4 32 14zM111 291q-2 -4 -3 -14.5t-1.5 -24t-0.5 -29.5t2 -32q0 10 4 30.5t11.5 42t17 39t19.5 23.5q-14 -5 -27.5 -12.5t-21.5 -22.5z" />
    <glyph glyph-name="quotesingle" unicode="'" horiz-adv-x="220" 
d="M116 539q7 11 6.5 24.5t10.5 33.5q6 10 6 16.5t-1.5 12.5t-2 14.5t4.5 23.5q-7 -12 -8.5 -20t-1.5 -15t-0.5 -14t-5.5 -17t-6.5 -17t-1.5 -13t0.5 -13t-0.5 -16zM89 751q-21 -11 -21 -55q3 25 15.5 40t23.5 15h45q11 0 19 -9t8 -22v-79q0 -14 -5.5 -38.5t-12.5 -49.5
t-14 -43t-10 -18h-51q-3 0 -10.5 18t-15 43t-13.5 49.5t-6 38.5v79q0 13 8 22t19 9h21z" />
    <glyph glyph-name="parenleft" unicode="(" horiz-adv-x="385" 
d="M114 74q-5 18 -15 30.5t-20 22t-18 18t-8 20.5q0 15 -0.5 44t-0.5 64.5t0.5 74t1.5 74.5t3 65t5 46q4 25 8.5 52t12 52.5t18.5 46t29 32.5q5 3 19 9.5t32.5 13.5t39.5 13.5t40.5 10t36 2.5t24.5 -9q13 -11 14.5 -32.5t-0.5 -44t-4 -42t4 -27.5q9 -12 2 -15t-21.5 -4.5
t-32 -6t-29.5 -19.5q-8 -11 -12 -48.5t-5 -89t0 -109.5t3 -109.5t4 -88.5t3 -47t7 -20t14.5 -18.5t18.5 -14.5t20 -7q9 -1 13 -1.5t5.5 -2t2 -5.5t0.5 -13q2 -20 4 -36.5t2 -40.5q0 -35 -6.5 -50.5t-17 -16t-24 12.5t-27.5 35q-2 -7 -0.5 -13t3.5 -11.5t2.5 -10.5t-3.5 -8
t-13 -3.5t-19.5 1t-21.5 4.5t-20 7q-13 6 -22 9t-17 6t-16 7.5t-19 14.5q-14 13 -23.5 34t-16 45t-10 48t-6.5 42q-5 29 -0.5 36.5t13.5 4t20.5 -14.5t22.5 -19z" />
    <glyph glyph-name="parenright" unicode=")" horiz-adv-x="385" 
d="M61 754q24 2 52.5 -0.5t57 -9t54 -16.5t42.5 -24q16 -13 23 -31t11 -38.5t8.5 -43t16.5 -44.5q7 -15 10 -47t3.5 -72t-1 -84.5t-3.5 -84.5t-3.5 -72t-0.5 -46q1 -8 2.5 -17.5t0.5 -18t-5 -15t-15 -9.5q-23 -5 -43 -19.5t-32 -30.5q16 7 32 14.5t28.5 9t19.5 -6.5t5 -32
q-2 -21 -9.5 -41.5t-19 -38.5t-25 -33t-28.5 -25q-8 -5 -14.5 -4.5t-15.5 11.5q-17 23 -18 38q-7 -10 -6.5 -20.5t5.5 -20.5q4 -10 -0.5 -15.5t-13 -8.5t-18 -4t-15.5 -2q-14 -5 -25 -4.5t-22 0.5q-14 -1 -25.5 0.5t-15.5 24.5q-5 38 -2.5 65.5t2.5 55.5q0 9 4 12t11 5t17 5
t23 11q23 16 25.5 40t4.5 61q1 12 0.5 44t-1.5 67.5t-1 67t3 43.5q2 10 6 18t8.5 16.5t8 20t4.5 29.5q-5 -9 -7.5 -13t-5 -7t-5.5 -6.5l-9 -10.5q1 9 1 33.5t-2.5 51.5t-7 50t-10.5 29q-12 12 -31 24t-37 8q0 22 -4 41t4 39q2 5 11.5 6.5t24 1.5t32 -1.5t34.5 -3.5
q-13 11 -40.5 14t-57.5 3q-6 0 -9 9.5t-3.5 20.5t2.5 21t10 10z" />
    <glyph glyph-name="asterisk" unicode="*" 
d="M345 750q-4 -2 -5 -10t-0.5 -18.5t2.5 -21t4 -17.5q1 8 2.5 19.5t3.5 22t5 18t6 7.5h24q7 0 12 -6t5 -14v-53q0 -7 -2 -18t-5.5 -23.5t-7 -24.5t-6.5 -20h3l3 -7q6 5 16 12.5t21 15t22 14t17 8.5l51 15q8 3 15 0t9 -9l5 -14q-3 3 -11 1.5t-18 -5.5t-20 -9l-16 -8
q9 1 20.5 3t22.5 3t19 0.5t9 -3.5l7 -22q2 -6 -2 -13t-12 -9l-51 -17q-6 -2 -18 -3.5t-25.5 -2.5t-26.5 -1h-21l1 -3l-5 -4q7 -4 17.5 -11.5t21.5 -16t20 -16.5t13 -14l32 -43q4 -7 3.5 -14.5t-6.5 -12.5l-11 -8q1 4 -2.5 11.5t-10 15.5t-14 15t-13.5 12l9 -18t9.5 -20
t6.5 -17.5t-1 -9.5l-17 -13q-15 -10 -27 5l-31 44q-4 6 -9.5 17t-10.5 23.5t-9 24.5t-6 20l-5 -3l-4 3q-2 -8 -6 -20.5t-8.5 -25t-9.5 -23.5t-9 -16l-31 -44q-5 -7 -12.5 -8t-14.5 3l-10 8q4 0 9.5 6t11 14.5t10.5 18t8 16.5q-6 -6 -14 -14.5t-16.5 -15.5t-15 -11t-9.5 -2
l-18 12q-6 5 -6.5 12.5t4.5 14.5l31 43q4 6 13 14t19 16.5t20 16t17 11.5l-4 4l2 6q-9 -1 -21.5 -1.5t-25.5 0t-25 2t-18 3.5l-51 17q-8 2 -12 9t-2 14l5 13q1 -4 8.5 -7.5t17.5 -6.5t20.5 -4.5l17.5 -2.5q-7 4 -17.5 9t-20 10.5t-16 10.5t-4.5 9l7 22q2 6 9.5 9t15.5 0
l50 -15q6 -2 16 -8t21.5 -13t22 -14t16.5 -13l1 5h7q-3 8 -7 20t-7.5 24.5t-6 23.5t-2.5 18v53q0 8 5 14t12 6h15z" />
    <glyph glyph-name="plus" unicode="+" horiz-adv-x="600" 
d="M445 220q-23 -1 -44.5 -1.5t-43.5 -0.5q0 -92 -3 -183q0 -4 -4 -7.5t-9 -5t-10.5 -1t-8.5 5.5q-4 7 0 19t0 26q-4 -16 -10 -28.5t-5 -18.5q0 -4 -8.5 -6t-19.5 -1q-6 0 -13 -0.5t-13 2t-9.5 9t-3.5 20.5q1 42 1 83.5v83.5q-92 0 -183 3q-4 0 -7.5 4t-5 9t-1 10.5t5.5 8.5
q7 4 19 0t26 0q-15 4 -28 10t-19 6q-4 -1 -5.5 7.5t-0.5 19.5q0 6 -0.5 13t1.5 13t8.5 10t20.5 3q84 -2 168 0q-2 84 3 168q0 13 9.5 21t18.5 6q4 -1 5 -8t2.5 -16.5t4.5 -19t11 -15.5q-5 9 -5.5 17t0 14.5t1 11.5t-1.5 9t2.5 7t12 3.5t16.5 -0.5t16 -4q9 -3 13 -16t5 -29
t0.5 -32.5t-0.5 -27.5q1 -23 1.5 -44.5t0.5 -43.5q85 0 169 -3q13 -1 21 -10.5t6 -17.5q-1 -5 -8 -6t-16 -2.5t-19 -4.5t-16 -11q9 5 17 5.5t14.5 0t11.5 -1t9 1.5t7 -2.5t3.5 -12t0 -16.5t-3.5 -16q-4 -9 -16.5 -13t-29 -5t-33 -0.5t-27.5 0.5z" />
    <glyph glyph-name="comma" unicode="," horiz-adv-x="360" 
d="M243 90q-3 10 -2.5 23t-7.5 19q-8 7 -14.5 8.5t-14 2t-17 0.5t-23.5 4q23 -10 37 -15t23 -12q9 -8 11.5 -15.5t7.5 -14.5zM94 58q7 -13 21 -18t36 -6q-26 4 -41.5 18.5t-15.5 27.5v53q0 13 9.5 22t22.5 9h101q13 0 22 -9t9 -22v-99q0 -4 -1.5 -18.5t-7 -34t-16.5 -41.5
t-29 -40.5t-45 -30.5t-65 -11q-11 0 -11 5.5t2.5 16t3.5 26t-8 34.5q27 -7 43.5 1.5t25.5 22t10 26t-3 12.5h-31q-13 0 -22.5 9t-9.5 23v24z" />
    <glyph glyph-name="hyphen" unicode="-" horiz-adv-x="833" 
d="M422 313q-11 2 -28.5 5t-37.5 1q-16 -1 -34.5 -5t-36 -9t-33.5 -10t-26 -7q66 14 114.5 19.5t81.5 5.5zM663 361q0 -8 0.5 -19.5t0.5 -21.5t-2 -16t-6 -4q-5 2 -15 3t-22 -0.5t-24.5 -5.5t-21.5 -10q6 1 19.5 3t28 2.5t25.5 -1t12 -6.5q1 -6 -8 -18t-21 -12
q-42 -3 -83.5 2.5t-83.5 7.5q-12 1 -33 9t-50 6q3 -1 11 -2t17.5 -3t18.5 -5.5t14 -7.5q-20 2 -38 1.5t-31 -1.5l-96 -4t-97 -3q-14 0 -20 3.5t-8.5 9.5t-2 12.5t0.5 12.5q-2 22 7 32q3 3 19 0q18 -2 43 4.5t45 9.5q-17 2 -38 -1t-38 -4q-8 0 -17.5 1t-12.5 5q-9 11 -4 19
t12 8q32 1 59.5 2t41.5 0q7 -1 38 -1h69.5h74t51.5 -1q7 0 4 -2.5t-9.5 -5t-12.5 -5.5t-4 -5q5 0 14.5 2.5t19.5 5.5t19.5 6t14.5 3q12 1 32 2.5t39.5 2.5t33.5 -1t14 -9z" />
    <glyph glyph-name="period" unicode="." horiz-adv-x="360" 
d="M220 164q14 0 23 -9t9 -23v-100q0 -14 -9 -23t-23 -9h-98q-14 0 -23 9t-9 23v100q0 14 9 23t23 9h52q13 0 27.5 -15.5t18.5 -40.5q0 43 -24 56h24zM165 16q-8 5 -15.5 7.5t-14.5 11.5q-8 9 -13 23t-14 36q3 -14 3.5 -23.5t0.5 -16.5t1.5 -13.5t8.5 -14.5t19.5 -8t23.5 -2
z" />
    <glyph glyph-name="slash" unicode="/" horiz-adv-x="637" 
d="M300 291q11 19 29 47.5t35 63.5q12 27 23 58t20.5 60.5t17 55.5t13.5 44q-40 -112 -75 -192.5t-63 -136.5zM140 -105q-11 -3 -23.5 -5.5t-22 -3t-13 2.5t2.5 10t15.5 24t18.5 37.5t15 41t6 35.5q-3 -10 -12.5 -33t-21 -47t-23.5 -42.5t-19 -20.5q-8 -2 -9 13.5t10 36.5
q32 70 69 139.5t75 139.5q6 10 16.5 24.5t23 32t26 39t24.5 45.5q-4 -5 -12.5 -18.5t-19 -29.5t-21.5 -31.5t-21 -24.5q19 35 33.5 64.5t25.5 51.5q40 82 78.5 162.5t78.5 161.5q12 24 22 34.5t18.5 14t16.5 2.5t15 0q27 2 32 -12q1 -3 -3.5 -10t-13.5 -22q-18 -30 -32 -72
t-27 -75q17 27 31.5 62.5t28.5 64.5q7 14 16 29.5t17 21.5q20 15 25 6t-1 -21q-26 -52 -48.5 -98.5t-35.5 -69.5q-4 -8 -18 -35t-33 -64.5t-41.5 -81.5t-43.5 -84.5t-38.5 -74.5t-27.5 -51q-7 -12 -7 -7.5t2 15l4 21t-1 8.5q-4 -9 -9 -24.5t-10.5 -32.5t-11 -33t-9.5 -25
q-9 -20 -23.5 -50.5t-31 -60t-33 -52.5t-29.5 -28z" />
    <glyph glyph-name="zero" unicode="0" horiz-adv-x="724" 
d="M283 673q-14 -3 -29.5 -3t-26.5 -10q-10 -9 -14 -25t-9 -29q31 53 79 67zM540 25q2 -16 -21 -18q-34 -8 -67.5 -17.5t-131.5 -0.5q-41 10 -95.5 30t-110.5 60q-19 23 -31.5 62t-14.5 74q-2 17 22.5 37t30.5 56q-8 -25 -31.5 -41t-28.5 -11q-9 5 -9 23v29q-8 64 -8 125.5
t24 137.5q6 36 40 70t60 65q33 18 81.5 32t71.5 11q15 -6 11.5 -29.5t-28.5 -57.5q28 12 33.5 42t32.5 50q14 1 80.5 0t85.5 -13q35 -25 56 -63.5t45 -79.5q24 -43 23 -105q0 -16 -12.5 -49t-21.5 -66q18 33 24.5 53.5t19.5 21.5q11 -16 15 -40t4 -45q-1 -39 -6 -79t-18 -73
q-20 -49 -49.5 -91.5t-41.5 -76.5q-8 -6 -39.5 7.5t-40.5 16.5q5 -8 29 -22.5t17 -24.5zM409 640q-3 -15 -21 -40t-39 -28q-18 -12 -37 -16.5t-33 -26.5q-20 -34 -25.5 -70t-14.5 -75q-9 -38 -24 -66q9 4 17 21.5t14 9.5q17 -28 17 -60.5t31 -59.5q34 106 49 132
q-11 -53 -26 -115.5t63 -70.5q26 21 58.5 31.5t34.5 49.5q-2 52 14.5 73.5t46.5 47.5q-10 0 -17.5 -8t-14.5 -6q-22 -6 -26.5 32.5t4.5 70.5q-6 37 -14 60q-15 20 -39.5 48t-51.5 -115q8 123 21 139.5t13 41.5zM399 76q-12 3 -23 9t-33 -4q-32 -4 -54.5 -0.5t-56.5 23.5
q43 -40 73.5 -45t93.5 17z" />
    <glyph glyph-name="one" unicode="1" 
d="M63 455q260 282 296 291q29 6 62.5 8t62.5 -8q13 -5 12 -21.5t3 -29.5q3 9 3 22t12 14q16 0 32.5 -10t18.5 -23q6 -45 -5.5 -109.5t8.5 -108.5q-25 -15 -38 -26.5t-16 -26.5q6 7 21 13t34 19q-2 -23 -12.5 -111t-9.5 -102q4 -71 8.5 -105t9.5 -106q0 -7 -3 -17.5
t-8 -10.5q-32 -4 -82 -6t-77 8q-12 4 0 21t9 28q-6 18 -9 36t-8 37q-4 -14 -6 -28.5t-4 -26.5q-7 -15 -5 -33t-15 -27q-28 -9 -47 -0.5t-19 16.5q-5 68 -1 97t16 98q0 6 13 6t22 3q-8 10 -19 20t-12 22q14 65 19.5 168.5t-169.5 -44.5q-39 17 -97 53zM445 271
q-4 -12 -12.5 -23.5t-6.5 -24.5q4 -23 17.5 -46t24.5 -46q-15 39 -19 73.5t-4 66.5z" />
    <glyph glyph-name="two" unicode="2" 
d="M418 706q3 13 4 28t11 25q7 6 20.5 3t22.5 -6q55 -19 84.5 -50t48.5 -69q10 -57 0 -69t-22 -14q16 -11 23.5 -28t-11.5 -38q-18 -22 -23.5 -41t-32.5 -26q-37 -26 -39.5 -12t-8.5 29q-4 -13 -4.5 -28t-10.5 -25q-21 -23 -34.5 -30.5t-61.5 -92.5q-35 5 -62.5 -5
t-49.5 -38q-22 -26 -19 -45.5t36 -31.5q-14 10 -16.5 17t3.5 25q-2 -11 4 -17.5t16 -6.5q39 0 73.5 6.5t69.5 15.5q42 11 51 14t29 10q40 13 80 -19t68 -60q12 -13 6 -33t-19 -32q-8 -7 -22 -0.5t-27 8.5q8 -9 25 -22t6 -22q-40 -34 -114.5 -25t-129.5 7q-28 -3 -14 16
t49 20q-41 11 -68.5 -16t-51.5 -26q-64 3 -125 -1t-110 105q-8 75 -6 102.5t35 93.5q10 9 29 6t33 -1q-4 11 -16 23.5t-2 19.5q101 16 150.5 58.5t81.5 109.5q13 10 3 33.5t-27 24.5q-43 3 -88.5 -32t-81.5 -10q-24 17 -57.5 70t-19.5 75q35 51 109 63t141 19q21 2 34 -20
t28 -35zM220 335q-5 -2 -1 -9.5t4 -13.5q6 20 42 23q-10 0 -22.5 2t-22.5 -2z" />
    <glyph glyph-name="three" unicode="3" 
d="M57 675q9 19 26.5 31.5t40.5 19.5t49.5 10t51.5 4q18 1 33.5 4t31.5 6q34 6 75.5 6t81.5 -7.5t74 -24t53 -43.5q8 -11 11 -17.5t4 -12.5t3.5 -14t8.5 -21q15 -29 7 -63t-30 -56q-4 -4 -11.5 -8t-17 -9t-18 -10t-12.5 -7q-2 -2 3.5 -0.5t12 2.5t11.5 1.5t3 -1.5
q-10 -6 -16 -12.5t-16 -12.5q-4 -2 -12.5 -3t-15.5 -2t-11 -1.5t1 -1.5q25 -4 46 -7.5t39.5 -10.5t33.5 -18.5t26 -30.5q11 -18 16 -41.5t14 -43.5q16 -38 12 -83.5t-34 -78.5q-2 -2 -0.5 7.5t0 20.5t-3.5 17.5t-10 20.5q-3 0 -4.5 -13t-2.5 -29t-1.5 -30t-2.5 -15
q-17 -12 -28.5 -24t-23.5 -23t-27.5 -21t-37.5 -18q-25 -9 -53.5 -16t-57 -9.5t-56.5 0t-51 11.5q-4 1 6 6t22 10t21 8.5t6 3.5q-6 0 -24.5 -5t-40 -11t-40.5 -11t-25 -5q-22 0 -45.5 3.5t-42.5 12.5t-32.5 24.5t-15.5 38.5q-3 27 4 52t18 45h5q0 1 1.5 -4.5t4 -12t5 -12
t4.5 -4.5t2 8.5t-1 16.5t0 15.5t3 6.5v4q31 7 70 3.5t76.5 -7.5t69 -1t46.5 26q2 2 6.5 0t10 -4.5t10.5 -4.5t8 0q1 1 -2 6t-7.5 10.5t-7.5 10.5t-1 6q16 11 26 31.5t-2 32.5q0 1 -2.5 -2t-5.5 -6.5t-6 -6.5t-5 -1q-2 4 -5 17.5t-6 17.5q-2 2 -6.5 13t-7.5 13q-8 6 -21 8
t-30.5 4t-35.5 5t-33 9v6.5t0.5 13.5t1.5 13t-1 6t-7 2.5t-9 6l-8 7t-4 4.5q0 11 3 16t9.5 7.5t15.5 3.5t20 6q4 2 15.5 5.5t13.5 5.5q1 3 8 4.5t15 3t13.5 4t5.5 5.5q-2 11 8.5 25.5t20.5 27.5t14.5 25t-7.5 19q-11 6 -25 8t-28 0t-26 -8t-17 -14h-3.5t-2.5 -3
q-6 -9 -17 -9q-1 -3 -3 -3t-3 -2q-6 -9 -16.5 -15t-23.5 -9t-26.5 -2.5t-24.5 4.5q-3 2 -14.5 14.5t-16.5 16.5q-4 3 -3 8h-3q-7 11 -11.5 18.5t-6.5 22.5q0 8 -4.5 14t-10 11t-11 11.5t-9.5 14.5q-1 5 -7 6.5t-4 6.5zM311 687q17 4 35.5 7.5t35.5 7.5q15 3 31 -1.5
t27 -13.5q5 -4 11 -11t12 -15.5t12.5 -15.5t9.5 -11q-35 25 -56.5 33.5t-36.5 9.5t-28.5 0t-33.5 5zM482 375q17 -1 35 -2t35 -2q13 -1 19.5 -11t6.5 -24q0 -9 3.5 -17t2.5 -15q-1 -8 -2.5 -11.5t-5.5 -7.5q-11 37 -19.5 51t-17.5 17.5t-17.5 2.5t-16.5 9z" />
    <glyph glyph-name="four" unicode="4" 
d="M473 757l6 -3q1 -4 7 -2.5t10 -0.5q11 -3 25.5 -3h29.5q-1 -3 2 -3h7h4t1 -2h11v-3q11 -2 9 -12t0 -17q5 -18 9 -37t1 -40q-4 0 -2.5 -4t0.5 -6q-6 -2 -4.5 -6.5t-0.5 -7.5q-5 2 -3.5 -2t-1.5 -3v-4q2 -4 -1.5 -6t-2.5 -5q-6 -3 -5 -6.5t-5 -4.5q-3 -4 -5.5 -8.5
t-3.5 -9.5h3q2 4 7 3t9 0q6 -28 3.5 -63t0.5 -67q-4 -4 -4 -9v-10h-3q1 -5 -2 -9t-5 -9q22 2 31 2.5t14.5 0.5t11 -1t21.5 -2q3 3 14 -0.5t13 -6.5q8 10 10.5 1.5t-1.5 -17.5v-34q-3 -9 -8 -20t-2 -24l-15 -5q-9 0 -8.5 -1t5 -1.5t11.5 -1t10 -0.5q5 1 3 -3t4 -2
q1 -31 -5 -46.5t-17 -21.5t-23.5 -6.5t-22.5 -1.5q-13 2 -28 4.5t-32 0.5q-6 -27 -6 -46v-50q2 1 2 -1.5v-4.5q-2 -4 1.5 -6t2.5 -5q9 -19 10 -41t0 -43q3 -5 -1 -6.5t-4 -4.5q-4 1 -5 0t-4 -3q-16 -6 -37.5 -1.5t-40.5 1.5q0 2 -2.5 2.5t-5.5 0.5t-5 1t-1 5q-6 2 -10 4.5
t-10 3.5v3q-3 0 -3 3h-4q1 2 -0.5 2.5t-3 0.5t-3.5 0.5t-2 2.5q2 -5 2 -11v-13q-23 -1 -53 -2.5t-52 6.5v3q-6 0 -4 6.5t0 10.5q9 33 12.5 64t0.5 69q-4 2 -6 7t-7 5q2 3 -1.5 4t-4.5 4q2 3 -1.5 5t-2.5 4q-16 5 -39 3t-44 0v-3h-3q0 -8 -11 -6v4q-4 -1 -3 2.5t0 5.5
q-18 7 -31.5 10t-28 3.5t-30 0.5t-34.5 2q-2 5 -8 2.5t-8 3.5q8 17 6 40q-6 1 -8.5 -0.5t-2.5 -5t1.5 -7.5t-0.5 -7h-3q1 -3 -2 -3h-5q-12 34 -10.5 79t7.5 85q-3 4 0.5 6t2.5 6h3q0 14 11 21t16 18q9 6 16 12.5t18 8.5q-2 4 2.5 5t6.5 3h4l-32 3q7 5 10.5 12t12.5 9
q3 5 8 8.5t8 8.5q25 9 38.5 26t34.5 29q-2 5 7 5v3q5 -1 7 3t6 6q2 5 8.5 5t5.5 7h3q0 6 6.5 11t14.5 3v3q5 -1 7.5 1t8.5 1q3 3 5 3t4 3q3 -2 6.5 2.5t-2.5 3.5q-4 -2 -5.5 1t-3.5 2v3h-4v2q-3 8 2.5 11.5t6.5 9.5h4v3q6 -1 6.5 2.5t3.5 5.5q5 -1 4 3t0 6q28 5 50.5 20.5
t45.5 34.5q9 11 30.5 11h42.5zM408 537q1 -2 -3 -3.5t-2 -6.5q-4 1 -8.5 -2t-2.5 -7h-5q1 -8 -4 -15h-4q2 -5 -2 -6.5t-2 -3.5q-5 1 -3.5 -2t-0.5 -5h-5v-3h-4v-4q-4 0 -6 -2t-7 -3h-5q3 -6 -2.5 -8t-8.5 -6q-6 2 -10 -1t-2 -9q-5 1 -7 -1.5t-2 -7t1 -9t0 -7.5h-4v-3
q-5 1 -3.5 -2t-0.5 -5q-6 1 -4.5 -1t1.5 -6q-5 -1 -5.5 -3.5t-4.5 -1.5q3 -4 -0.5 -5.5t-2.5 -4.5q-5 0 -6 -2.5t-2 -5.5t-3 -6t-6 -3v-3q-7 0 -10 -2.5t-3 -7.5t0.5 -10t-0.5 -9q9 -4 22.5 -2.5t23.5 2.5q18 5 42 7t48 1q0 3 6 2t7 3q7 19 8 41.5t0.5 47t-1.5 48.5t0 46z
M117 362q-6 -11 -3 -29.5t7 -30.5q6 -13 8.5 -15.5t8.5 -10.5q4 -7 18 -12.5t30.5 -10.5t35 -8t3.5 5q-34 7 -56 18.5t-32 28t-10 40.5t9 60z" />
    <glyph glyph-name="five" unicode="5" 
d="M654 717q-1 -1 -7 -31q-1 -5 -12 1t-24 9q5 -5 10 -14.5t9 -21t6.5 -22t2.5 -15.5q-3 -33 -10.5 -47t-10.5 -13q-3 -3 -17.5 -2t-35 4t-46 7.5t-52.5 7.5q-4 0 -11.5 4.5t-11 8.5t-11.5 6t-23 4q4 -3 10.5 -7.5t12 -8t6.5 -6.5t-8 -4q-7 -1 -21 -0.5t-28 1.5t-27 1.5
t-18 -1.5q-6 -2 -12 -3t-9.5 -1.5t-6 -2.5t-3.5 -8t-3 -11t0 -13q2 -4 -2 -12.5t-8.5 -18t-5.5 -15.5t-4 -15q10 4 11 6.5t6.5 9.5t10.5 12t6 3q2 -2 24.5 -6.5t44.5 -9.5q19 -4 39 -9t37 -8.5t29.5 -7t15.5 -4.5q27 -15 44.5 -26t29 -21.5t21 -23.5t20.5 -32
q11 -18 16 -40.5t14 -42.5q16 -38 12 -82.5t-35 -77.5q-1 -2 0.5 7t0 20t-4 17.5t-9.5 21.5q-4 0 -5 -13.5t-2.5 -29t-2 -29.5t-1.5 -15q-18 -11 -29.5 -23t-24 -23t-28 -21t-37.5 -17q-26 -9 -55 -16t-58 -9.5t-57.5 -0.5t-51.5 12q-4 1 6 6t22.5 9.5t21.5 8.5t5 4
q-6 0 -24.5 -4.5t-40 -11t-41 -11t-25.5 -4.5q-22 0 -46.5 3t-43.5 11.5t-32.5 24t-16.5 38.5q-2 27 4.5 51.5t17.5 43.5h5q0 1 2 -4.5t4.5 -12t5 -12t4.5 -4.5t2 8.5t-1 16.5t0 16t3 7v3q31 7 71 3t78 -7.5t70 -0.5t48 25q1 2 6 0.5t10.5 -4t10.5 -5t8 -0.5q1 2 -2 6.5
t-7.5 10.5t-7.5 10.5t-1 5.5q16 11 26 31t-2 32q0 1 -2.5 -2t-5.5 -6t-6.5 -6t-4.5 -1q-2 3 -5.5 16.5t-5.5 17.5q-3 2 -8.5 12t-6.5 14q-7 22 -26 29t-42.5 3.5t-50.5 -13t-52 -19t-45.5 -15.5t-30.5 -2l2.5 6.5t6.5 13t7 12t2 5.5q-3 0 -4 3t-1 8v9.5v5.5q0 6 -5 26.5
t-10 48.5t-9.5 58t-4.5 55q0 5 3 15t7.5 21t9.5 19t16 29q-7 -4 -13.5 -10.5t-12 -11.5t-8.5 -7.5t-3 1.5q1 18 2.5 36.5t4 34.5t5.5 27t7 13q1 0 15 1t34.5 2t44 2.5t43.5 2t33.5 1.5t15.5 2q1 1 21.5 1t50.5 -1t66 -2t67 -3t53 -3.5t24 -2.5zM477 371q17 -1 35.5 -2.5
t36.5 -2.5q12 -1 19 -10.5t7 -23.5q0 -9 3.5 -16.5t2.5 -14.5q-1 -8 -2.5 -11.5t-6.5 -7.5q-11 37 -19.5 50.5t-17.5 17t-17.5 3t-17.5 8.5z" />
    <glyph glyph-name="six" unicode="6" 
d="M469 236q0 33 -29.5 58t-67.5 25q-36 0 -65.5 -22.5t-29.5 -60.5q0 -34 27.5 -59t67.5 -25q44 0 70.5 26t26.5 58zM653 727q-2 -1 -1 -9.5t-6 -21.5q-6 -13 -13 -3.5t-19 13.5q4 -6 8.5 -15.5t8.5 -21t6.5 -22t2.5 -15.5q-4 -34 -9 -41t-23 -12q-7 -6 -41 -2.5t-84 11.5
q-3 0 -10 4.5t-10 8.5t-10.5 6t-20.5 4q3 -3 9 -7.5t11 -8t6 -6.5t-7 -5q-7 -1 -19.5 -6.5t-25.5 -12.5t-24.5 -13.5t-16.5 -8.5q-12 -6 -17 -5t-11 -10q-35 -44 -23 -71q25 3 36.5 12t45.5 13q8 -4 12.5 -4t8 1t8.5 2t16 -3q16 -4 33 -9t31 -8.5t24.5 -7.5t12.5 -5
q24 -15 36.5 -22.5t19.5 -14.5t11.5 -16.5t14.5 -28.5q10 -18 14.5 -41.5t12.5 -43.5q14 -39 11 -84t-31 -78q-2 -2 -0.5 7t0 20.5t-3.5 18t-9 21.5q-1 -12 -2 -26.5t-2 -28t-3 -23t-3 -10.5q-16 -12 -26.5 -24t-21.5 -23t-25.5 -21t-34.5 -18q-23 -9 -49 -16t-52.5 -9.5
t-52.5 -0.5t-47 12q-3 1 6 6t20 9.5t19.5 9t5.5 4.5q-6 0 -23 -5t-36.5 -11t-37 -11t-23.5 -5q-41 -1 -75 16t-50 62q-8 20 -16 41t-13.5 39.5t-7.5 33.5t-2 33l-3 84q0 1 1.5 12t4.5 25t4.5 26t1.5 14q3 52 57 192q22 30 38.5 53t36.5 37q-33 -114 -6.5 -39t78.5 86
q14 18 47 22q28 16 42.5 18t31 3.5t17.5 2.5q1 2 29.5 3t63.5 1t64.5 -1t32.5 -3zM492 375q16 -1 33 -2t33 -2q11 -1 17 -10.5t6 -24.5q0 -9 3.5 -16.5t2.5 -14.5q-1 -9 -2.5 -12t-5.5 -8q-10 38 -18 52t-16 17t-15.5 2.5t-15.5 9.5z" />
    <glyph glyph-name="seven" unicode="7" 
d="M385 2q-14 3 -26 10t17 137q-47 -129 -54 -137t-16 -9q-60 0 -141 -3.5t-68 58.5q9 42 58 94t75 107q14 32 21.5 54.5t21.5 56.5q9 20 16.5 44.5t17.5 46.5q19 39 57 70t22.5 33.5t-55.5 -9.5q-61 -19 -127.5 -33t-126.5 -4q-21 4 -17.5 38t8.5 44q31 40 54 54
q-32 -13 -53 -42q-3 12 11.5 42.5t25.5 45.5q18 19 44 35t52 15q109 -4 219 -14t219 19q33 11 36.5 -13.5t-5.5 -47.5q-32 -84 -66 -168t-75 -172q-27 -64 -39.5 -130t-17.5 -129q-3 -120 -88 -93zM271 147q26 67 59 116t56 82q-16 -20 -39 -14q-25 -48 -49.5 -89.5
t-26.5 -94.5z" />
    <glyph glyph-name="eight" unicode="8" 
d="M78 121q-18 15 -20.5 34t-1.5 30q6 22 8.5 33.5t-1.5 17.5q-1 33 29 62q27 45 85 91q-67 55 -81.5 88t-12.5 55q44 18 92 81q-49 -57 -92 -63q2 12 4 22q12 70 59 123q0 11 23 0.5t40 -11.5q-8 11 -23.5 28.5t-1.5 21.5q37 14 64 20.5t71 5.5q37 -2 67 -1t68 -11
q15 -6 21 -24t16 -30q1 9 0 25.5t8 13.5q40 -12 63 -25.5t63 -50.5q22 -89 19 -117t-23 -73q-17 -35 -47.5 -53t-23.5 -22q18 -18 52 -43t59 -87q13 -57 5 -121t-49 -94q-55 -39 -136 -50t-181 -2q-59 9 -88.5 10t-84.5 19q-32 8 -46 57q-1 26 19 26.5t58 6.5zM550 189
q-21 -39 -58.5 -71.5t-99.5 -56.5q74 14 117 47q20 17 28 36.5t13 44.5zM301 183q20 -7 34.5 -16t35.5 -8q11 0 23.5 3.5t23 9.5t18 13t9.5 14q3 22 0 47t-23 35q-27 14 -59.5 12t-46.5 -20q-6 -6 -12 -13t-12 -13l-6 -28zM300 517q18 -8 31 -16.5t33 -7.5q10 0 21.5 4
t21.5 9t17.5 12t8.5 14q2 21 -1 44.5t-21 32.5q-26 13 -55.5 12t-42.5 -19q-6 -6 -11 -13t-11 -12l-5 -27z" />
    <glyph glyph-name="nine" unicode="9" 
d="M260 510q0 -33 29 -58t67 -25q36 0 78.5 17t42.5 67q-6 40 -34 58.5t-87 23.5q-44 0 -70 -25.5t-26 -57.5zM98 42q2 1 1 9.5t6 21.5q6 13 13 3t19 -13q-4 4 -8.5 14.5t-8.5 21.5t-6.5 22t-2.5 16q4 33 9 40t23 12q3 3 15.5 2t31 -4.5t41.5 -8.5t48 -8q3 0 10 -5t10 -8.5
t10.5 -5.5t20.5 -4q-3 3 -9 7t-11 8t-6 6.5t7 4.5q7 1 19.5 7t25.5 13t24.5 13.5t16.5 8.5q12 5 17 4t11 11q1 33 -10 60q-26 -4 -37.5 -13t-44.5 -12q-8 3 -12.5 3t-8.5 -1t-9 -1.5t-15 2.5q-17 5 -34 9.5t-31 8.5t-24 7t-12 5l-37.5 22.5t-19 14.5t-11 16.5t-14.5 28.5
q-11 19 -15.5 41.5t-11.5 43.5q-15 38 -11.5 83t31.5 78q1 2 0 -7t0 -20t3 -17.5t9 -21.5q1 12 2.5 26t2.5 27.5t2 22.5t3 11q15 12 26 24t22.5 23t25.5 20.5t34 18.5q24 8 49.5 15t52 10t52 0.5t47.5 -11.5q4 -1 -5 -6t-20.5 -10t-20 -9t-4.5 -4q5 0 22 5t36.5 11t37 11
t23.5 5q42 1 75.5 -16t50.5 -62q8 -20 15.5 -41t13.5 -39t7.5 -33t1.5 -33l3 -84q0 -1 -1.5 -12t-4.5 -25t-4.5 -26t-1.5 -14q-2 -52 -11 -212q-23 -30 -39 -53t-37 -37q33 113 12.5 49t-72.5 -74q-15 -19 -47 -23q-29 -16 -43.5 -17.5t-30.5 -3t-17 -2.5q-2 -1 -18 -0.5
t-40.5 2.5t-52.5 4.5t-52.5 5.5t-41.5 5.5t-19 3.5zM236 371q-16 1 -32.5 2t-32.5 2q-11 1 -17.5 10.5t-6.5 24.5q0 9 -3.5 16.5t-1.5 14.5q1 9 2 12t5 8q11 -38 18.5 -52t15.5 -17t15.5 -2.5t16.5 -9.5z" />
    <glyph glyph-name="colon" unicode=":" horiz-adv-x="360" 
d="M121 0q-13 0 -22.5 9t-9.5 23v101q0 13 9.5 22t22.5 9h99q13 0 22 -9t9 -22v-101q0 -14 -9 -23t-22 -9h-53q-13 0 -27.5 15.5t-18.5 41.5q1 -23 6 -36.5t19 -20.5h-25zM177 148q8 -5 15 -7t15 -12q7 -9 12 -23t15 -36q-4 14 -4 23.5t-0.5 17t-2 14t-8.5 14.5q-6 7 -19 7
t-23 2zM220 526q13 0 22 -9t9 -23v-100q0 -14 -9 -23t-22 -9h-99q-13 0 -22.5 9t-9.5 23v100q0 14 9.5 23t22.5 9h52q13 0 27.5 -15.5t18.5 -40.5q0 43 -24 56h25zM164 378q-8 5 -15.5 7.5t-14.5 11.5t-12 23t-15 37q3 -14 3.5 -23.5t0.5 -17t2 -14t9 -14.5q6 -8 18.5 -8
t23.5 -2z" />
    <glyph glyph-name="semicolon" unicode=";" horiz-adv-x="360" 
d="M225 528q13 0 22 -9.5t9 -22.5v-101q0 -13 -9 -22t-22 -9h-99q-13 0 -22.5 9t-9.5 22v101q0 13 9.5 22.5t22.5 9.5h52q13 0 27.5 -15.5t18.5 -41.5q0 44 -24 57h25zM169 380q-8 5 -15.5 7t-14.5 11q-7 10 -12.5 24t-14.5 36q3 -14 3.5 -23.5t0.5 -17t2 -14t9 -14.5
q6 -7 18.5 -7t23.5 -2zM240 89q-2 11 -2 23.5t-7 19.5q-8 7 -14.5 8.5t-14 1.5t-17 0.5t-23.5 3.5q23 -9 36.5 -14t23.5 -13q9 -7 11 -14.5t7 -15.5zM92 58q13 -24 57 -24q-26 4 -41.5 18.5t-15.5 27.5v52q0 14 9.5 23t22.5 9h101q13 0 22 -9t9 -23v-98q0 -4 -1.5 -18.5
t-7 -34t-16.5 -41.5t-29 -40.5t-45 -30.5t-65 -11q-11 0 -11.5 5.5t2 16t3.5 26t-8 34.5q27 -7 44 1.5t26 22t10 26t-3 12.5h-31q-13 0 -22.5 9t-9.5 23v24z" />
    <glyph glyph-name="less" unicode="&#x3c;" horiz-adv-x="600" 
d="M178 240q43 -20 102.5 -53.5t137.5 -85.5q-12 8 -29.5 21.5t-37.5 28.5t-41.5 29.5t-41.5 25.5q-26 14 -50 21.5zM232 342q-8 -3 -24.5 -10t-35 -14.5t-37 -14.5t-28.5 -11l64 14q20 10 35 19.5t26 16.5zM66 227q-10 3 -16 17t-7 31t4 32t19 19q25 7 45 14.5t38 16
t36.5 18.5t39.5 21q-5 -7 -15 -15t-21 -15.5t-20.5 -13t-12.5 -8.5q19 7 34.5 16.5t27.5 18.5t21 16.5t17 11.5q53 27 106.5 52.5t109.5 48.5q16 7 32.5 6.5t18.5 -6.5q2 -5 -11.5 -13t-32.5 -16.5t-38 -15t-28 -8.5q16 0 34.5 4t35 10t29 12.5t17.5 11.5q4 4 9 1.5t9.5 -9
t8 -15.5t5.5 -17q2 -9 -13 -21t-37.5 -23t-46.5 -21.5t-40 -16.5q-8 -3 -21.5 -6.5t-28.5 -7.5t-28.5 -7.5t-20.5 -6.5q6 1 16 2.5t18.5 2t11 -0.5t-6.5 -6q-17 -8 -53.5 -25t-79.5 -37q30 -14 61 -28.5t57 -26.5t44 -20.5t24 -10.5q18 -8 54 -24.5t76 -36.5q9 -5 11 -15
t-16 -13q-8 -2 -20 3t-23 10q-22 11 -47.5 26t-48.5 23q12 -7 25 -16.5t27 -18.5t28 -17t26 -12q12 -5 17.5 -6.5t6.5 -5.5q6 -14 -10 -31q-4 -5 -7.5 -11t-10 -9.5t-17 -3.5t-28.5 9q-63 31 -123.5 61.5t-122.5 61.5q-17 8 -39.5 19t-50.5 23q10 0 23.5 -3t27 -7t24.5 -8
t15 -5q-22 16 -44.5 23.5t-42.5 10.5t-36 3.5t-25 3.5z" />
    <glyph glyph-name="equal" unicode="=" horiz-adv-x="600" 
d="M315 394l-27.5 5t-36.5 1q-16 -1 -33.5 -5t-35 -9t-32.5 -10t-25 -7q64 14 111 19.5t79 5.5zM545 429q2 -7 3.5 -16.5t1.5 -17t-1.5 -12t-5.5 -2.5t-14 3t-21.5 -0.5t-23.5 -5.5t-21 -10q6 1 19 3t27 2.5t25 -1t12 -6.5q1 -6 -8 -13.5t-21 -7.5q-41 -2 -81 -1.5t-81 2.5
q-12 1 -32.5 9t-49.5 6q3 -1 11 -2t17 -3t18 -5.5t14 -7.5q-20 2 -37 1.5t-30 -1.5q-48 -2 -94 -4t-94 -3q-14 0 -20 3.5t-8.5 9.5t-2 12.5t0.5 12.5q-2 22 7 32q3 3 19 0q17 -2 41.5 4.5t43.5 9.5q-16 2 -36.5 -1t-37.5 -4q-8 0 -17 1t-12 5q-9 11 -4 19t12 8q31 1 57.5 2
t40.5 0q7 -1 37.5 -1h67.5h72t50 -1q7 0 4 -2.5t-9 -5t-12 -5.5t-4 -5q5 0 14 2.5t19 5.5t19 6t15 3q11 1 28.5 1.5t35 -0.5t30.5 -5.5t16 -13.5zM283 164l27.5 5t36.5 1q16 -1 34 -5t35 -9t32.5 -9.5t25.5 -7.5q-65 14 -112 19.5t-79 5.5zM53 200q-2 -8 -3.5 -17
t-1.5 -16.5t1.5 -12t6.5 -2.5q4 2 14 2.5t21.5 -1t23.5 -5.5t21 -10q-6 1 -19.5 3t-27 3t-24.5 -0.5t-12 -7.5q-2 -6 7.5 -13t21.5 -8q41 -2 81 -1.5t81 2.5q12 1 32.5 9t48.5 6q-3 -1 -10.5 -2t-16.5 -3t-18 -5t-15 -7q20 1 37.5 0.5t30.5 -0.5q47 -2 93.5 -4t94.5 -4
q13 0 19.5 3.5t8.5 9.5t1.5 13t-0.5 13q2 21 -7 31q-2 3 -6 2.5t-12 -2.5q-17 -2 -41.5 5t-44.5 9q16 3 36.5 0t37.5 -4q8 -1 17 0t13 6q8 11 3 18.5t-12 7.5q-30 2 -57 2.5t-41 -0.5h-19.5h-37.5h-47.5h-49.5t-43.5 -0.5t-29.5 -0.5q-7 -1 -4 -3t9 -5l12 -6t5 -4
q-5 0 -14.5 2.5t-19 5.5t-19 5.5t-14.5 2.5q-12 1 -29.5 2t-34.5 0t-30.5 -5.5t-16.5 -13.5z" />
    <glyph glyph-name="greater" unicode="&#x3e;" horiz-adv-x="600" 
d="M419 240q-15 -5 -39 -12.5t-50 -21.5q-21 -11 -42.5 -25.5t-41.5 -29.5t-37 -28.5t-29 -21.5q78 52 137 85.5t102 53.5zM365 342q11 -7 26 -16.5t35 -19.5l65 -14q-11 4 -29 11t-37 14.5t-35.5 14.5t-24.5 10zM532 227q-9 -3 -25.5 -3.5t-36.5 -3.5t-42.5 -10.5
t-44.5 -23.5q4 1 15.5 5t25 8t27 7t23.5 3q-28 -12 -50.5 -23t-39.5 -19q-63 -31 -123.5 -61.5t-122.5 -61.5q-18 -9 -28.5 -9t-17 3.5t-10 9.5t-7.5 11q-15 17 -11 31q2 4 7.5 5.5t17.5 6.5q12 4 26 12t27.5 17t27 18.5t25.5 16.5q-23 -8 -48.5 -23t-47.5 -26
q-11 -5 -23.5 -10t-19.5 -3q-18 3 -16.5 13t11.5 15q40 20 75.5 36.5t53.5 24.5q6 2 24.5 10.5t44.5 20.5t56.5 26.5t60.5 28.5q-42 20 -79 37t-54 25q-9 5 -6 6t11 0.5t18.5 -2t16.5 -2.5q-7 3 -21 6.5t-29 7.5t-29 7.5t-21 6.5q-16 6 -40 16.5t-46 21.5t-37.5 23t-13.5 21
q2 8 5.5 17t8 15.5t9.5 9t10 -1.5q4 -5 17 -11.5t29.5 -12.5t35 -10t33.5 -4q-9 2 -27.5 8.5t-37.5 15t-32.5 16.5t-11.5 13q2 6 18 6.5t33 -6.5q56 -23 109 -48.5t107 -52.5q8 -4 17 -11.5t21 -16.5t27 -18.5t35 -16.5q-3 3 -13 8.5t-21 13t-21.5 15.5t-14.5 15
q22 -11 40 -21t36.5 -18.5t38.5 -16t45 -14.5q13 -4 18.5 -19t4.5 -32t-7 -31t-16 -17z" />
    <glyph glyph-name="question" unicode="?" horiz-adv-x="605" 
d="M363 314q-4 -14 -3 -25t-7 -24q-2 -5 -12.5 -3.5t-15.5 6.5q-12 11 -18.5 26.5t-15.5 28.5q-2 -5 0 -15t3 -19.5t0 -16.5t-9 -7q-19 0 -38.5 1.5t-45.5 -1.5q-8 1 -11.5 9t-4 19t1 23.5t4.5 21.5q8 26 18.5 49.5t33.5 45.5q10 10 29.5 20t40.5 21t40.5 23.5t29.5 27.5
q8 13 11 22.5t1.5 18.5t-5.5 19t-9 23q-3 9 -12.5 17t-26.5 4q-16 -5 -32.5 -6.5t-26.5 1.5l-12.5 2.5t-16 3.5t-16 5t-11.5 6q0 -5 4 -8l8 -6t6.5 -5.5t-0.5 -5.5q-3 -11 -19 -16q-7 -2 -7 -11v-14q-1 -10 -4 -15.5t-5 -9.5t-1 -8t9 -10q-21 0 -49 -3.5t-53.5 -6t-45 -1.5
t-24.5 11q-8 22 -6.5 46.5t8 48t17.5 44t22 34.5q13 16 49 31t56 15q9 0 10.5 -10t4.5 -17q3 10 3 14.5t11 9.5q29 14 63 14.5t63 -4.5q16 -3 9 -20q-8 -18 -9 -29q12 23 26 35q3 3 10 3t16.5 -1.5t21 -3.5t23.5 -1q11 4 23 -1.5t24 -15t23 -20t19 -17.5q16 -14 19.5 -36.5
t4.5 -42.5q0 -8 2 -15.5t3 -18.5t0.5 -26t-5.5 -37q-1 -4 -6 -6t-11.5 -3t-13 -1h-10.5q9 -6 22.5 -10t12.5 -12q-2 -20 -15 -36.5t-29.5 -29.5t-33.5 -23.5t-29 -19.5q-16 -11 -28.5 -15t-22.5 -7t-17.5 -10t-12.5 -24zM404 695q11 -10 24.5 -18t22.5 -23q6 -11 9.5 -22
t7.5 -24t8 -29t10 -37q-8 45 -3 73q3 30 -10 52q-10 18 -31 20q-20 1 -38 8zM299 164q13 -7 18.5 -20.5t6.5 -35.5q-5 26 -19.5 41t-26.5 15h-53q-13 0 -22.5 -9t-9.5 -22v-101q0 -14 9.5 -23t22.5 -9h99q13 0 22 9t9 23v101q0 13 -9 22t-22 9h-25zM268 16q-10 2 -23 2
t-19 8q-7 8 -9 14.5t-2 14t-0.5 17t-3.5 23.5q10 -23 15 -37t12 -23q8 -9 15 -11.5t15 -7.5z" />
    <glyph glyph-name="at" unicode="@" horiz-adv-x="760" 
d="M293 351q7 -15 12 -31t12.5 -29t19 -21t30.5 -8q22 0 36.5 9t25 24.5t19.5 35.5t21 43q9 16 4.5 31t-17.5 27t-31 19t-36 7q-41 0 -69 -33q-7 -8 -14.5 -14.5t-12.5 -14.5t-6 -18.5t6 -26.5zM508 557h95l-43 -257q-9 -22 2 -21t28.5 19t36 50.5t24.5 73t-6.5 86.5
t-57.5 91q-35 36 -83.5 51.5t-108.5 15.5q-15 0 -28 -3.5t-26 -7.5t-25.5 -6.5t-26.5 -0.5q-29 3 -54.5 -18.5t-41.5 -47.5q-11 -19 -19.5 -40t-35.5 -47q-11 -11 -15.5 -25t-6 -30t-1 -33t0.5 -34t3 -30.5t6.5 -27t7 -28t4.5 -32.5q1 -14 7 -26.5t15 -23.5t19.5 -21.5
l20.5 -20.5q12 -11 25 -18.5t26.5 -14t28 -13.5t28.5 -18q20 -16 48 -15.5t57 0.5q15 0 27 4.5t24.5 9t26.5 7.5t34 0q11 -2 21.5 2.5t20 11.5t19 15.5t18.5 16.5h99q-114 -157 -298 -157q-25 0 -51 -0.5t-50 2.5t-44.5 11.5t-34.5 26.5q-12 16 -24.5 24.5t-25 14.5t-24 12
t-22.5 17q-13 13 -27 26t-25.5 27t-19.5 29t-9 31q-2 19 -7 38t-10 38.5t-9.5 39.5t-4.5 42v44.5t2.5 43.5t10 40.5t22.5 36.5q22 24 37 53.5t39 53.5q15 15 29 29.5t29.5 26.5t33 20t38.5 10q35 3 69 14t72 11q10 0 20 1.5t19.5 2t19 -2t18.5 -10.5q17 -14 41 -17.5
t45 -13.5q10 -5 21 -9.5t21 -9.5t18.5 -12t12.5 -17q4 -11 11.5 -19t16 -15l17 -14t14.5 -16q8 -11 16.5 -20.5t9.5 -21.5q1 -20 5.5 -34.5t9 -28t8.5 -26.5t3 -28q-1 -14 -4.5 -25.5t-7.5 -22.5t-6 -23.5t1 -28.5q2 -15 -3 -29t-14 -26.5t-20 -24.5t-21 -23
q-10 -12 -18 -20t-17.5 -15t-21 -15t-29.5 -19q-20 -12 -43 -15.5t-46 -3.5q-58 0 -58 49l-2 2q-20 -23 -44.5 -38t-51.5 -9q-24 5 -41 8.5t-29.5 9t-23.5 13.5t-24 21q-50 53 -50 125q0 23 1.5 46.5t7.5 45t17.5 39.5t30.5 30q22 13 39 25t33.5 22t34 16t40.5 6
q79 0 123 -59z" />
    <glyph glyph-name="A" unicode="A" horiz-adv-x="767" 
d="M252 313q0 2 1 4.5t1 3.5q0 3 15 14q5 4 8.5 7.5t7.5 4.5q4 2 32.5 10t69.5 16q13 0 -3.5 -1t-29 -1t27.5 6.5t157 18.5q-25 6 -32 9.5t-26 7.5q-12 35 -52.5 74.5t-65.5 43.5q-4 17 18 33t34 34q-16 -9 -32.5 -18.5t-30.5 -19.5q-19 -11 -38.5 -21.5t-27.5 -26.5
q-20 -33 -24.5 -56t-16.5 -55q-11 -27 -30 -53.5t-31 -50.5q12 13 35.5 43.5t23.5 12.5q4 -69 4 -149.5t-9 -172.5q0 -49 -88 -29t-130 50q-28 20 -9.5 59.5t23.5 70.5q7 40 16.5 80t24.5 69q8 27 21 35.5t32 55.5q-37 -37 -45 -45.5t-10 31.5q-5 15 5 50.5t15 66.5
q4 35 32 67t59 60q37 30 80 62.5t94 40.5q41 6 84 -9t73 -40q12 -13 12 -34t5 -52q5 21 5 43.5t18 10.5q37 -29 57 -73.5t37 -88.5q36 -104 76.5 -210.5t38.5 -270.5q-2 -30 -33.5 -31.5t-60.5 10.5q-22 8 -27 32t-16 44q-1 -22 4 -43.5t-10 -37.5q-9 -11 -52 -2.5t-47 21.5
q-17 35 -14.5 91.5t-3.5 92.5l41 69l-86 -17q-41 8 -89.5 -14t-95.5 -12q-7 2 -10 7t-7 7q-3 1 -6 33q0 5 2 8.5t4 4.5q5 1 30.5 2t47.5 7q-9 1 -22.5 0.5t-26 -0.5t-22 1t-10.5 6zM117 223q-9 -23 -20 -45t-11 -46q0 -11 13 -18t22 -15q-15 26 -13.5 58t9.5 66z" />
    <glyph glyph-name="B" unicode="B" horiz-adv-x="753" 
d="M63 112q-19 15 -4 38.5t16 35.5q6 21 8 32t-1 17q-1 32 10 75q-3 15 -7 30q-6 51 2 106.5t11 76.5q46 18 96 80q-52 -55 -96 -62q1 13 3 23q12 67 26 140q0 12 23 1.5t43 -11.5q-10 10 -25.5 27t-1.5 22q38 14 85.5 9.5t92.5 -5.5q38 -2 82 -4.5t83 -13.5q16 -6 23 -23.5
t17 -29.5q2 10 0.5 25.5t7.5 13.5q42 -12 89.5 -30t67.5 -50q27 -42 -2.5 -86t-49.5 -87q-17 -36 -62 -53.5t-38 -20.5q20 -18 71 -50t47 -86q38 -48 29 -121t-52 -102q-58 -38 -154 -30t-178 0q-63 9 -115.5 5t-109.5 12q-34 9 -34 57q-1 26 19.5 26.5t60.5 5.5zM310 190
q28 -24 56.5 -18.5t60.5 22.5q30 15 29 45.5t-16 49.5q-14 14 -33.5 29.5t-40.5 22.5q-50 15 -48.5 48t27.5 61q17 19 51 23.5t57 19.5q14 8 28 22.5t11 29.5q-5 17 -25 27.5t-36 16.5q-24 7 -49.5 7t-49.5 3q-14 0 -36 4.5t-35 5.5q11 -7 34 -15t30 -8q1 -23 -9 -37.5
t-10 -27.5q-4 -36 4 -73.5t-11 -80.5q2 0 -14.5 7t-26.5 25q2 -32 11 -35.5t23 -11.5q-11 -64 -10 -102.5t28 -59.5zM562 194q-21 -38 -61 -70t-105 -54q78 13 122 45q23 16 31 35.5t13 43.5zM392 433q-25 -7 -33 -20.5t11 -10.5q25 1 46 19t41 34q-19 -5 -34.5 -12
t-30.5 -10z" />
    <glyph glyph-name="C" unicode="C" horiz-adv-x="750" 
d="M718 637q20 -19 -6 -50q-24 -30 -32 -21q-24 1 -52.5 15.5t-52.5 24.5q11 -8 26 -17t33 -22q39 -21 19 -36q-19 -17 -29 -30t-28 -4q-31 18 -59.5 25t-81.5 16q-3 2 -11 9t-16.5 13.5t-16 14t-10.5 11.5q-4 -11 11 -27q13 -17 -27 -13q-30 1 -38.5 -3.5t-38.5 -28.5
q-25 -16 -45 -115q-1 -26 6.5 -53t10.5 -50q6 -14 -3 -37t3 -59q-2 20 -1 30.5t3 15.5t5 6t8 1q9 -5 19.5 -12.5t23 -16t24.5 -15t24 -7.5q44 -20 98 3q12 5 21.5 14.5t18.5 19l18 19t21 16.5q20 38 58 6q27 -41 -4 -39q4 -8 -8.5 -17.5t-16.5 -18.5q15 4 29 18q14 13 29 1
q30 -1 41 -27q27 -19 19 -28q-18 -27 -55.5 -65.5t-106.5 -72.5q-66 -31 -141 -30t-151 18q-47 12 -75.5 38.5t-56.5 61.5q-6 11 -12 24t-8.5 26.5t-4 25.5t0.5 19q-11 -10 -8 -35q1 -12 -2.5 -9t-12.5 22q-40 59 -40 172q0 60 17 120t44 118q34 60 92 94q24 11 45 20
t42 14.5t42.5 9t50.5 6.5q51 2 123 -11q77 -13 121 -34q89 -41 104 -64zM265 659q-33 0 -47 -7q-39 -22 -43 -55q-5 -35 -14 -63q8 16 12.5 31t9.5 32q11 33 50 51q18 1 27 1h23q-17 10 -18 10zM571 107q-27 -7 -55.5 -16.5t-57.5 -10.5q-30 -2 -59 3t-56 8q24 -12 49.5 -20
t53.5 -6q36 3 64 14.5t61 27.5z" />
    <glyph glyph-name="D" unicode="D" horiz-adv-x="792" 
d="M100 734q13 20 41 14.5t118 -10.5q11 -4 11 -19.5t5 -27.5q7 12 12.5 29.5t19.5 17.5q28 0 97.5 -14t96.5 -27q42 -23 104 -47t86 -71q33 -68 44.5 -148.5t6.5 -156.5q-6 -65 -30 -130t-66 -105q-64 -28 -113 -26t-175 7q-8 0 -8 13.5t-2 22.5q-7 -12 -10 -27t-14 -18
q-65 -18 -205 -4q-15 4 -31 16t-16 29q-4 224 32 442q2 13 17.5 14.5t29.5 6.5q-9 5 -17 11t-15 11q-12 7 -28.5 11t-18.5 19q-3 42 0 89t28 78zM262 537q8 -14 21 -26.5t17 -28.5q7 -29 5.5 -59t-2.5 -59q-2 -33 -2.5 -67.5t-14.5 -62.5q-30 -55 -50.5 -59.5t-36.5 -13.5
q32 4 62.5 6.5t61.5 11.5q153 -21 175.5 -12t34.5 30q18 73 28 111.5t5 75.5q-7 35 -30 63.5t-50 46.5q-24 16 -110.5 26.5t-113.5 16.5zM478 646q-8 1 -60 -2.5t-60 -7.5q122 -6 174 -27q-14 8 -27 20.5t-27 16.5z" />
    <glyph glyph-name="E" unicode="E" horiz-adv-x="679" 
d="M59 649q-21 46 53 67t115 14q17 -4 28 -21.5t-25 -47.5l85 63q46 16 107.5 20t116.5 -7q25 0 27 -40.5t2 -66.5q0 -10 -14.5 -21t-21.5 -17l43 8q5 0 5 -14t-6 -14q-40 -7 -70 -13t-39 -12q-35 -27 -60.5 -15.5t-72.5 5.5q3 28 -23 54q19 0 -8 -57.5t-24 -72.5
q1 -16 53 5.5t86 5.5q5 -4 -1 -21.5t-6 -25.5q53 51 100 61q21 4 46 -18.5t22 -44.5q-7 -43 -17 -77.5t-34 -44.5q-38 -18 -90 -14t-94 2q-28 -2 -27.5 25.5t0.5 38.5q-3 8 -11.5 -9.5t-8.5 -25.5q-1 -28 1 -56t9 -54q2 -6 10.5 2.5t15.5 11.5q34 2 87.5 17t55.5 -20
q0 -32 -50.5 -65.5t-14.5 -5.5q-3 -13 57 35t90 45q18 -4 42 -9.5t30 -27.5q8 -34 -1.5 -79t-22.5 -77q-6 -11 -18 -26.5t-22 -9.5q-82 38 -189.5 39.5t-234.5 -24.5q-22 -3 1.5 20.5t39.5 41.5q-54 -23 -85 -50q-5 -3 -12 1t-7 8q3 87 13.5 157t6.5 135q0 5 10 1t28 -33
q-14 40 -21 48.5t-11 17.5q-21 57 -13.5 131t-30.5 157zM199 443q-13 13 -28.5 -11.5t-1.5 -47.5q42 -41 39 -76.5t-19 -69.5q10 18 32 39.5t12 37.5q-21 31 -39 71t5 57z" />
    <glyph glyph-name="F" unicode="F" horiz-adv-x="632" 
d="M574 700q48 -25 37.5 -67t-47.5 -60q-16 -9 -20.5 -17.5t-23.5 -8.5q-72 12 -134.5 9t-106.5 14q7 -17 5.5 -21.5t1.5 -12.5q5 -28 -8.5 -63.5t15.5 -49.5q42 -26 87 -10t96 5q9 -2 -8.5 -13.5t-21.5 -20.5q12 7 36 19t36 5q19 -11 27 -32.5t-3 -36.5q-9 -11 -27.5 -38.5
t-27.5 -33.5q-25 -16 -89.5 4.5t-122.5 -15.5q-28 -18 7 -59.5t-15 -47.5q-41 -5 -51.5 1.5t-5.5 0t24 -8.5q6 -7 44 -7q14 -4 -3 -42q4 -23 10 -45.5t-13 -34.5q-38 -12 -98 -7t-27 47q-8 6 -17 -17t-19 -23q-13 0 -31.5 -2t-14.5 23q-7 61 1 123t11 124q-1 14 -4 29t7 25
q3 6 13 -4t18 -13q-8 16 -18 32t-10 33q-1 37 1.5 68t2.5 96q23 -2 39.5 2t30.5 11q-44 -3 -67 5q-8 3 -9.5 77.5t21.5 81.5q79 20 155.5 16.5t160.5 -5.5q53 -2 81.5 -7t74.5 -28zM424 689q-56 -1 -116.5 2t-107.5 -8q-19 -11 -22 -26.5t-3 -28.5q3 44 38 51.5t211 9.5z
" />
    <glyph glyph-name="G" unicode="G" horiz-adv-x="778" 
d="M286 230l44 20q17 -12 36 -19.5t35 -14.5q18 -11 39.5 -9.5t44.5 0.5q0 16 3.5 33t-1.5 31q-5 11 -21.5 8t-27.5 -1q-14 1 9.5 30t24.5 44q0 10 -9 34t2 24q32 0 81.5 -14.5t78.5 -29.5q5 -3 8.5 -18t9.5 -15q13 -1 22 12t22 11q13 -4 32 -14t19 -28q-1 -35 -32.5 -64
t-24.5 -63q8 -41 12.5 -90t-18.5 -84q-10 -18 -33 -2.5t-41 16.5q-16 0 -50 -1.5t-39 -1.5q-10 20 -5 42.5t-5 38.5q-14 16 -38 17t-44 8q14 -11 33 -17.5t25 -21.5q4 -18 -0.5 -41.5t-20.5 -29.5q-32 -14 -72.5 -11t-69.5 15q-43 14 -106 34.5t-82 64.5q-10 21 17.5 36
t47.5 31q-23 -8 -56 -24t-46 5q-33 58 -38.5 125.5t-0.5 123.5q3 47 27.5 117t77.5 129q33 42 108 59t133 30q8 1 11 -12.5t7 -21.5q3 8 3 21t6 13q52 0 125 -3.5t117 -30.5q26 -15 32.5 -66.5t7.5 -66.5q0 -14 -16 -24t-28 -11q-9 -1 -16.5 8t-13.5 15q-2 -15 0 -33.5
t-7 -25.5q-13 -8 -28.5 1.5t-64.5 16.5q-44 20 -75 45q-8 7 -16 18t-17 5q0 3 5.5 -12.5t-1.5 -26.5q-25 -31 -70 -45.5t-63 -46.5q-22 -57 -30.5 -83.5t5.5 -69.5q11 -35 33 -52zM288 603q-21 1 -65.5 -12t-57.5 -35q-15 -22 -17.5 -50.5t-8.5 -71.5q45 126 149 169z" />
    <glyph glyph-name="H" unicode="H" horiz-adv-x="791" 
d="M76 714q0 12 14.5 15.5t25.5 3.5q32 0 37.5 -9t12.5 -13q7 4 14 12.5t17 9.5q43 3 75.5 5t48.5 -12q14 -18 13 -44.5t-4 -50.5q0 -7 -11 -10.5t-11 -10.5q0 -28 9.5 -55.5t12.5 -53.5q3 -18 1.5 -56.5t-1.5 -56.5q1 7 3 35t4 36q3 10 4 22.5t11 16.5q20 7 57.5 4.5
t60.5 -1.5q-2 58 -13.5 117.5t6.5 114.5q7 22 37.5 16.5t50.5 -16.5q67 -7 68.5 -26t8.5 -33q4 12 6 28.5t15 23.5q11 7 33.5 9t25.5 -13q13 -73 18 -203t-6 -136q-3 -17 -17.5 17t-21.5 75q2 -10 4 -39.5t13 -54.5q5 -20 15 -28.5t10 -24.5q-3 -80 -10.5 -161.5
t-12.5 -158.5q-1 -9 -22.5 3.5t-27.5 18.5q-9 -6 -33.5 -13.5t-72.5 -8.5q-12 -1 -27.5 -0.5t-18.5 12.5q-16 61 -5.5 131t-14.5 127q-11 25 -59 15.5t-71 -0.5q-10 5 -13.5 15t-7.5 20q-2 -11 -4 -20t-2 -18q-8 -71 -8 -144t-18 -142q-3 -13 -31.5 -1t-34.5 24
q-39 25 -42 53.5t-8 55.5q0 -27 5 -55.5t-5 -53.5q-6 -15 -36.5 -16.5t-44.5 1.5q-22 3 -22 27q-8 84 -9.5 171.5t9.5 172.5q0 11 13.5 11.5t24.5 4.5q-10 11 -20.5 38.5t-11.5 41.5q-8 57 -12 117.5t6 117.5zM498 383q27 -15 38 -41t58 -56q-45 25 -45.5 50.5t-12.5 46.5
q-5 9 -17 4.5t-21 -4.5z" />
    <glyph glyph-name="I" unicode="I" horiz-adv-x="330" 
d="M61 569q0 27 32 36q24 7 52 8.5t52 -8.5q12 -6 10.5 -23t2.5 -31q3 10 3 23.5t10 14.5q13 0 27.5 -10t15.5 -24q5 -48 -4.5 -98.5t-12.5 -98.5q-2 -14 -13 -26t-13 -28q4 7 16.5 13.5t29.5 19.5q-2 -24 -1.5 -44.5t1.5 -35.5q4 -75 8 -110.5t8 -112.5q0 -7 -2.5 -18
t-7.5 -11q-26 -4 -68.5 -6t-65.5 8q-10 4 0 22t8 29q-6 20 -7.5 39t-6.5 39q-4 -15 -5.5 -30.5t-3.5 -27.5q-5 -16 -3.5 -35t-14.5 -28q-22 -10 -38 -1t-16 17q-5 72 -1.5 103t13.5 103q0 7 11 7t18 3q-6 10 -15 20.5t-11 23.5q-7 68 -10.5 138t2.5 140zM184 284
q-4 -13 -11 -25t-5 -26q3 -25 14 -49t21 -48q-13 41 -16 77t-3 71zM284 662q15 -65 -34 -35q-35 15 -57 21.5t-36.5 8.5t-23.5 1.5t-19 1.5q-27 5 -39 -14q-30 -12 -28 20q5 12 14 26q18 -23 43 -6q-52 -8 -35 29q9 3 17.5 12.5t50.5 17.5q33 4 66.5 -9.5t63.5 -41.5
q2 -8 -10.5 -13.5t-52.5 11.5q42 -27 58.5 -19t29.5 -3z" />
    <glyph glyph-name="J" unicode="J" horiz-adv-x="602" 
d="M351 744q14 13 26.5 15t26.5 -6q5 3 6.5 0t1.5 -9.5t-1 -16t-1 -18.5q-2 -35 6 -52q1 17 3.5 41.5t10.5 47.5q10 2 24 1t34 6t35 1.5t21 -24.5q2 -22 0 -50t-4 -58l-4 -60t0 -57q4 -54 5 -104.5t0 -101.5q-3 -15 -31 -5q-26 12 -37 63q7 -57 30 -71q12 -7 21.5 -11
t16.5 -6q2 -17 2.5 -38.5t-1.5 -44t-6.5 -43.5t-12.5 -36q-9 -18 -23.5 -37t-33 -35t-40.5 -26t-47 -10q-18 1 -38 -2t-42 -8q-12 1 -1 17t78 49q-75 -21 -92 -44q-16 -22 -33 -17q-20 -1 -43 2t-47 11t-46.5 20.5t-41.5 30.5q-18 17 -27.5 48.5t-14.5 67t-6.5 69.5t-2.5 56
q-2 14 18 14h34q3 0 5 -13t5 -30.5t7.5 -35.5t11.5 -29q-7 41 -10.5 68t4.5 35q4 3 12.5 3.5t20 0.5t23.5 -0.5t23 1.5q13 2 20.5 -0.5t11.5 -8t4.5 -13t0.5 -14.5v-24.5t1 -29t3.5 -26.5t7.5 -16q7 -9 27 -9q19 1 30 -5q3 -6 -9 -20t-47 -33q27 8 41 16.5t23.5 17.5
t19.5 17.5t30 17.5q3 11 4.5 28.5t2 36.5t0 37t-2.5 30q-8 48 0 92q4 28 6.5 61t2.5 67t-2 66.5t-7 59.5q-2 7 -3 19t-0.5 24.5t3 23t7.5 16.5z" />
    <glyph glyph-name="K" unicode="K" horiz-adv-x="782" 
d="M114 731q21 15 54 12t58 -12q12 -5 11.5 -21t4.5 -27q6 14 8.5 30t16.5 27q26 20 45 -4q11 -15 10.5 -34t0.5 -37q2 -42 0 -84q-4 -32 0 -77t-18 -60q28 -4 42 24t27 38q26 22 45 40.5t47 39.5q33 26 76.5 60.5t86.5 51.5q53 38 107.5 8t42.5 -48q-28 -13 -61.5 -20
t-36.5 -21q15 1 33 8t33 0q13 -7 21 -24.5t0 -27.5q-24 -32 -61.5 -51.5t-66.5 -45.5q-21 -18 -49 -37t-38 -50q32 -73 105.5 -172t88.5 -178q4 -22 -31.5 -26t-59.5 -5q-40 50 -51 58t-22 14q9 -12 25.5 -23.5t7.5 -35.5q-4 -4 -27 -11t-36 4q-33 25 -55 62t-32 74
q-8 42 -23 68t-38 88q-5 28 -19 4t-32 -20q-16 2 -22 17t-10 28q0 -48 1 -71q0 -14 3 -26.5t3 -25.5q-3 -48 2.5 -98t-19.5 -92q-12 -20 -45.5 -17.5t-55.5 12.5q-17 8 -15 27.5t-1 34.5q-5 -14 -4.5 -33.5t-15.5 -23.5q-24 -7 -55.5 -0.5t-36.5 26.5q-20 54 -8 113.5
t13 116.5q0 46 0.5 94t5.5 94q1 44 0.5 89t14.5 88q4 10 21 10t30 4q-29 6 -31 8q-9 14 -20 35t5 31zM618 604q-32 -19 -63.5 -37t-59.5 -38q-20 -18 -16 -30q3 -20 27 -4q32 25 57.5 53t54.5 56z" />
    <glyph glyph-name="L" unicode="L" horiz-adv-x="600" 
d="M160 735q11 -4 23 -10t19 -132q11 126 15.5 133.5t12.5 8.5q52 3 122.5 9t74.5 -55q1 -40 -29.5 -91.5t-40.5 -107.5q-5 -31 -26 -58.5t-25 -59.5q-3 -20 15.5 -38t15.5 -38q-8 -38 -33.5 -71t-41 -58t-17.5 5q-25 -18 9 -28q1 -6 26 19.5t57 38.5q50 19 105.5 35.5
t111.5 8.5q19 -3 25 -36t-12 -41q-45 -2 -70.5 -1.5t-73.5 -41.5q50 37 82.5 31.5t62.5 -2.5q17 2 14 -34t-10 -51q-12 -20 -31.5 -36.5t-41.5 -14.5q-98 0 -197.5 5.5t-188.5 -26.5q-27 -12 -36 12t-6 46q7 82 17.5 165t25.5 168q9 61 4.5 126t-16.5 126q-24 115 58 94z
M293 600q-5 -66 -23.5 -114.5t-30.5 -82.5q10 20 31 15q12 47 23.5 88t-0.5 94z" />
    <glyph glyph-name="M" unicode="M" horiz-adv-x="1058" 
d="M280 729q18 23 68.5 17t74.5 -25q21 -17 29.5 -53.5t35.5 -79.5q5 -11 -4.5 -11t-13.5 -15q11 7 20.5 1.5t22.5 -7.5q13 -4 17.5 -32.5t15.5 -18.5q22 19 27.5 54.5t16.5 63.5q21 63 26.5 89t62.5 26q18 0 23.5 -30.5t15.5 -48.5q0 20 -3 38.5t11 33.5q7 9 24 11t23 -9
q19 -47 32 -108.5t17 -111.5q0 -15 -14 -27t-22 -25q14 4 31 17.5t27 1.5q29 -36 43 -84t29 -93q18 -64 50 -132t11 -130q-12 -37 -94 -35.5t-118 11.5q-14 4 -24.5 27.5t-10.5 40.5q-1 15 9.5 30.5t17.5 30.5q-11 -7 -24 -13.5t-19 1.5q-28 31 -30 65.5t-8 67.5
q0 39 -5.5 75.5t-7.5 61.5q-59 -29 -79.5 -99t-42.5 -70q-41 -2 -53 23.5t-20 39.5q-14 23 -36 53.5t-22 60.5q-1 19 20.5 22.5t25.5 19.5q-12 -13 -32 -12t-27 -13q-16 -29 -18.5 -57.5t-11.5 -64.5q-9 -9 -8 16t-8 43q0 -13 -0.5 -48.5t-6.5 -50.5q-18 -59 -17.5 -127.5
t-39.5 -121.5q-14 -19 -63.5 -15.5t-62.5 21.5q-11 15 -9 43.5t8 48.5q-15 -19 -12 -51t-18 -37q-16 -4 -32.5 10t-20.5 54q18 156 69 299q10 15 15.5 0.5t13.5 -28.5q3 16 0 34t-1 42q21 75 40 152.5t66 137.5zM379 621q-11 9 -20.5 29t-20.5 12q-25 -18 -34 -53t-24 -63
q27 46 52.5 74.5t46.5 0.5z" />
    <glyph glyph-name="N" unicode="N" horiz-adv-x="871" 
d="M93 299q14 23 30.5 32t35.5 36q-21 -14 -38.5 -26.5t-21.5 7.5q-20 79 -9.5 162t19.5 165q1 36 31 53q28 16 74 10q5 -1 6 -11.5t9 -10.5q13 -2 26 7t26 5q14 -3 25 -16t21 -24q16 -19 27.5 -33.5t25.5 -33.5q3 -22 -5.5 -42t-9.5 -30q8 7 25 29t27 15q46 -48 77 -106
t73 -108q11 -13 16 -17.5t19 -0.5q0 14 -6 20.5t-8 24.5q-13 77 -17 154.5t-4 155.5q0 12 21 18q21 4 46.5 9.5t46.5 -5.5q17 -10 16.5 -30.5t4.5 -37.5q7 16 10 36t21 28q11 4 25 -9t17 -24q11 -64 12.5 -128.5t3.5 -129.5q0 -83 0.5 -183t-6.5 -181q-1 -18 -7.5 -40
t-23.5 -32q-18 -11 -43 -6.5t-41 15.5q-7 7 -4 12t18 17q-17 -5 -24 -10.5t-21 -13.5q-12 -9 -29.5 1.5t-27.5 20.5q-24 24 -39.5 53.5t-33.5 55.5q-42 55 -86.5 115.5t-79.5 143.5q0 -15 4 -30.5t-4 -27.5q-9 -19 -20 -36.5t-25 -29.5q11 2 22 13.5t23 0.5q-2 -59 1.5 -129
t-6.5 -138q-2 -14 -19 -25t-34 -15q-15 -6 -36 -9t-31 9q-18 21 -17.5 49.5t-3.5 54.5q-1 -11 -4 -24t-7 -19q-3 -20 -3.5 -40.5t-47.5 -20.5q-23 2 -31.5 27t-10.5 45q-7 60 -11 122.5t11 110.5zM670 276q3 -15 11.5 -17.5t8.5 -16.5q0 -9 -27.5 -17.5t-27.5 -15.5
q-1 -10 3 -18t13 -18q-2 12 -1 14t6 13q9 15 35.5 24t26.5 21q0 11 -18.5 16t-29.5 15z" />
    <glyph glyph-name="O" unicode="O" horiz-adv-x="784" 
d="M299 672q-15 -3 -31.5 -3t-28.5 -10q-11 -8 -15.5 -24t-10.5 -29q35 52 86 66zM579 33q2 -16 -23 -18q-36 -9 -73 -18t-143 0q-44 9 -103.5 29t-120.5 59q-21 23 -34.5 62t-15.5 73q-1 17 25 36.5t32 55.5q-8 -26 -33 -41t-32 -10q-10 4 -9.5 22t0.5 29q-9 62 -9 123.5
t26 135.5q7 37 43.5 71t66.5 63q34 19 87 32.5t79 10.5q14 -7 11 -29.5t-31 -56.5q31 11 37.5 41t34.5 50q16 1 88 0t93 -14q38 -25 60.5 -62.5t49.5 -78.5q26 -42 25 -103q0 -16 -13.5 -48.5t-24.5 -65.5q20 33 27.5 53t20.5 21q13 -16 17 -39.5t4 -44.5q-1 -39 -6 -78
t-20 -72q-22 -48 -53.5 -89.5t-45.5 -75.5q-8 -7 -43 6.5t-44 16.5q5 -9 32 -22.5t18 -23.5zM437 640q-4 -15 -23.5 -39.5t-42.5 -28.5q-19 -11 -40.5 -15t-34.5 -26q-22 -34 -28.5 -69.5t-15.5 -74.5q-10 -37 -26 -65q9 4 18 21t15 9q18 -27 25 -60.5t28 -57.5
q20 -25 44.5 -48t48.5 -5q28 20 63.5 30.5t37.5 49.5q-2 51 16.5 72t50.5 46q-11 0 -19.5 -7.5t-16.5 -5.5q-31 -16 -32 27t-6 82q-6 40 -23 53q-15 10 -27.5 24.5t-28.5 23.5q-11 6 3 23t14 41zM425 81q-12 4 -24.5 10.5t-35.5 -4.5q-35 -4 -59.5 0.5t-62.5 23.5
q48 -41 80.5 -46t101.5 16z" />
    <glyph glyph-name="P" unicode="P" horiz-adv-x="743" 
d="M73 76q0 38 1.5 77.5t3.5 79.5q1 35 0 72t9 71q2 10 16.5 14.5t25.5 11.5q-10 1 -23.5 -0.5t-15.5 8.5q-11 54 -10.5 110.5t2.5 112.5q0 24 -0.5 50.5t18.5 43.5t50 19t57 -7q62 -5 78 -20.5t31 -42.5q-1 14 -10.5 35t10.5 24q35 6 76.5 5.5t77.5 -17.5q12 -5 12.5 -21
t4.5 -28q4 8 5.5 20.5t12.5 12.5q24 0 68 -18.5t60 -37.5q27 -35 42 -78.5t22 -87.5q3 -31 -5 -64t-22 -62q-28 -61 -111 -85q-28 -14 -62.5 -17.5t-65.5 -2.5q-20 0 -55.5 4t-48.5 21q-14 18 -11.5 44t7.5 48q5 28 29 34q26 7 67.5 -0.5t63.5 8.5q18 14 23 40.5t3 49.5
q-2 14 -20 19.5t-23 18.5q-6 9 -3 20t3 23q-10 -8 -17 -18t-18 -13q-24 -7 -63 4t-47 -12q-26 -65 -22 -138t5 -142q0 -63 18.5 -125.5t3.5 -122.5q-6 -20 -71 -13t-83 17q-12 6 -13 21.5t-5 28.5q-11 -16 -19.5 -35t-22.5 -32q-7 -6 -19 -8t-15 4q-9 16 -7 36.5t2 39.5z
M573 385q-16 -10 -30 -23t-34 -18q-30 -6 -60 -4.5t-83 1.5q55 -7 87.5 -20.5t63.5 -6.5q25 6 33.5 29.5t22.5 41.5z" />
    <glyph glyph-name="Q" unicode="Q" horiz-adv-x="791" 
d="M400 653q-22 -6 -46.5 -3t-43.5 -8q-18 -9 -31 -30t-29 -35q37 30 74.5 47t75.5 29zM535 710q9 -3 -3 -25t-12 -34q12 11 23.5 23.5t24.5 24.5q0 4 4 0q93 -78 138 -125.5t57 -113.5q12 -67 -8 -136t-37 -134q-3 -8 -13 -7.5t-17 -0.5q17 -32 53.5 -69.5t47.5 -73.5
q3 -11 -20.5 -18.5t-32.5 -3.5q-19 4 -24.5 12t-20.5 24q11 -22 21 -27.5t10 -29.5q0 -18 -30 -17t-42 11q-45 35 -62.5 72.5t-52.5 88.5q8 -24 22 -46.5t11 -46.5q-3 -18 -19 -25t-29 -12q-23 -10 -48 -24.5t-106 -0.5q-16 10 -6.5 38t10.5 49q-9 -21 -13 -52t-25 -32
q-85 -8 -221 67q-32 43 -46 102t-21 115q-15 89 7 192q2 8 13.5 7t19.5 1q-8 11 -16 21.5t-15 24.5q-5 12 1 22q78 94 128 130t95 51q57 18 126 24.5t128 -46.5zM452 198q-36 55 -50.5 82t-16.5 57q-1 12 9.5 23t20.5 12q14 0 26.5 -12t25.5 -19q-3 9 -7.5 17t-3.5 19
q1 12 7.5 25.5t15.5 9.5q21 -14 35.5 -40.5t37.5 -42.5q-4 26 4 57.5t1 61.5q-6 21 -27 30t-29 28q-6 10 -0.5 24t7.5 29q-9 -7 -16.5 -18.5t-16.5 -12.5q-33 -7 -68 1t-66 -6q-20 -9 -25.5 -39.5t-23.5 -39.5q-18 -10 -38.5 -0.5t-39.5 13.5q13 -12 31 -19.5t24 -25.5
q12 -36 4.5 -79t7.5 -77q29 -69 89 -79q17 -4 29.5 16.5t52.5 4.5zM549 296l28 -48t29 -50q-7 16 -13 32.5t-14 30.5q-6 11 -14.5 18.5t-15.5 16.5z" />
    <glyph glyph-name="R" unicode="R" horiz-adv-x="750" 
d="M143 472q-6 6 -31 1t-28 22q-7 57 -16 101.5t14 100.5q12 28 61 36t100 14q56 8 120.5 3.5t123.5 -9.5q40 -5 65 -47.5t53 -73.5q21 -22 43.5 -47.5t28.5 -55.5q12 -43 18 -91t-23 -80q-45 -45 -113.5 -50.5t-127.5 -30.5q-10 -3 10 -0.5t27 -1.5q104 -62 184 -129
q8 -8 7 -27q0 -23 -7 -35.5t-16 -17.5q-11 -8 -43.5 14.5t-63.5 50.5q8 -43 31 -59t68 -21q-29 -27 -69 -30t-85 32.5t-16 -11.5t10 -43q-22 1 -38 17.5t-34 29.5q-72 46 -87 116.5t-43 133.5q-6 12 -7 -32t-1 -51q-7 -35 2.5 -66.5t6.5 -71.5q-1 -18 -0.5 -44t-22.5 -23
q-20 -14 -28 24t-40 64q23 -86 -1 -85t-44 5q-25 4 -45 0.5t-14 80.5q-12 68 6.5 141t0.5 141q-13 53 14 75t50 30zM273 547q-24 -52 -28 -110t6 -110q4 -15 18.5 33.5t44.5 56.5q34 8 78 16t74 25q16 9 4 36.5t-23 42.5q-23 29 -32 85q-3 -23 -12 -47t-44 -29
q-22 -3 -50.5 7.5t-35.5 -6.5zM373 215q-6 21 -8.5 25.5t-21.5 24.5q0 -53 14 -75t38 -34q-9 20 -13 31.5t-9 27.5z" />
    <glyph glyph-name="S" unicode="S" horiz-adv-x="733" 
d="M240 713q14 4 23 12t16.5 16.5t14.5 15t16 6.5q17 0 41.5 0.5t51 0t52 -2.5t44.5 -5q19 -4 37.5 -8t35 -10t29.5 -15t22 -23q4 -6 15 -27t20.5 -46t14.5 -48.5t-4 -33.5q-9 -11 -31.5 -12.5t-47.5 0t-46.5 3t-27.5 -2.5q-9 -7 -11.5 -1.5t-4 17.5t-4.5 26t-15 24t-42 12
t-63.5 0.5t-63.5 -4.5t-41 -4q-19 -2 -27 -27q-3 -6 -4.5 -18t-2 -24t0.5 -22t4 -13q12 -18 39.5 -25t59 -9.5t61.5 -3t47 -4.5q17 -5 40 -7.5t46.5 -6.5t44 -10t32.5 -17q7 -6 3.5 -8.5t-12.5 -4.5t-20.5 -6t-20.5 -13q11 3 26 4t29 0.5t26.5 -4.5t18.5 -12q16 -20 22 -47
t7.5 -52t0 -44t-0.5 -24q3 -20 0 -37.5t-10 -34t-17.5 -33t-20.5 -35.5q-8 -15 -20 -22t-26.5 -11.5t-30.5 -8.5t-33 -13t-46 -11.5t-60 -1.5t-60 2.5t-45 0.5q-6 0 -13 -1.5t-14 -1t-12 4t-7 12.5q-3 18 -14.5 34.5t-23.5 26.5q5 -13 11 -26t7 -23t-5 -15.5t-24 -3.5
q-16 1 -35 8t-37 17t-33 21.5t-23 23.5q-5 6 -4.5 11t9.5 13q15 13 29 15q-8 6 -16 5.5t-15 -4.5q-15 -7 -22 0q-14 14 -20 36q-6 24 6 37q7 8 4 16t-8 15t-8 13t4 12q10 9 33 11t48 1.5t48 -2.5t34 -2q7 0 8.5 -4.5t1.5 -12v-18t2 -21.5q5 -23 27.5 -31t51.5 -10
q18 -2 35.5 0.5t35.5 -0.5q8 -2 13.5 3.5t11.5 13t14.5 14.5t23.5 8q-15 -12 -20.5 -21.5t-7.5 -17.5q7 -1 20.5 1.5t28 7t27 10t17.5 10.5t9 16t6 23.5t1.5 23.5t-4.5 17q-11 16 -32 25t-48 14q-15 3 -39.5 4.5t-51.5 3t-52.5 3.5t-42.5 6q-9 2 -20 3t-21.5 2t-18.5 3
t-11 6q-4 6 -6 14t-5 16.5t-7.5 17t-12.5 15.5q1 -11 2 -21t-0.5 -16t-8.5 -6.5t-22 7.5q-27 13 -42 44q-8 15 -8.5 33.5t-5.5 32.5q-6 15 -6.5 28.5t3.5 23.5q2 4 6.5 12.5t10 17t11 16.5t9.5 12q-6 1 -11.5 -2.5t-10 -8t-8.5 -7.5t-6 0q-3 3 -3.5 10.5t0.5 16t3.5 17.5
t5.5 16q9 21 15 43t21 39q10 11 25.5 19t33 14t35 10.5t31.5 8.5q15 4 20.5 1t4 -10.5t-7.5 -17.5t-12 -19zM638 305q-8 14 -18 17t-24 8q9 -6 18 -18t16 -26t11 -28.5t4 -24.5q2 32 0 48t-7 24z" />
    <glyph glyph-name="T" unicode="T" horiz-adv-x="644" 
d="M248 159q-4 -51 -31 -84q9 8 19.5 12.5t14.5 15.5q5 13 1 27.5t-4 28.5zM309 522q23 -38 27 -88q0 17 4.5 35t1.5 32q-3 10 -13.5 13.5t-19.5 7.5zM22 511q-1 37 -4.5 70t2.5 70q0 9 11 12t19 3q45 -8 90.5 -1.5t87.5 4.5q13 -1 12 -26t4 -41q1 21 -2.5 44.5t9.5 35.5
q25 24 58 32.5t65 14.5q45 7 91.5 15.5t91.5 -2.5q22 -6 45.5 -30t24.5 -54q0 -34 -3.5 -90t-28.5 -67q-35 -15 -81 14t-87 36q-12 0 -21 11.5t-19 18.5q3 -11 10 -23t7 -22q2 -96 -8 -196q-3 -20 -11.5 -39.5t-14.5 -40.5q6 -9 16 -16.5t10 -17.5q0 -52 4.5 -111.5
t-26.5 -89.5q-19 -15 -52.5 -18t-61.5 -13q-18 -7 -44.5 1.5t-26.5 29.5q-4 76 9 151t19 144q1 11 12 18.5t19 15.5q-3 4 -8.5 8t-8.5 9q-10 31 2.5 77t-5.5 49q-37 8 -80 -10.5t-84 -6.5q-12 3 -27 10t-15 21z" />
    <glyph glyph-name="U" unicode="U" horiz-adv-x="776" 
d="M138 560q39 -2 43.5 7.5t12.5 24.5q14 24 12 52.5t15 52.5q17 21 44.5 30t56.5 12q18 -1 36 -6t22 -23q8 -33 -1.5 -65.5t-17.5 -64.5q-9 -42 -41 -49.5t-45 -23.5q-9 -9 21 -5.5t33 -9.5q7 -35 -3.5 -71.5t-17.5 -67.5q-9 -36 -7 -73.5t7 -67.5q4 -26 16.5 -37.5
t37.5 2.5q30 52 58 109.5t43 115.5q14 58 12 117.5t6 116.5q6 26 9 57t23 49q11 12 33 5t39 -11q24 -5 21 -19q-5 -21 -20 -34.5t-18 -44.5q32 24 39 45.5t33 36.5q22 15 55 -6q24 -17 21 -47q-3 -67 -3.5 -136t-32.5 -126q-12 -25 -39 -15t-76 3q33 -23 69 -19t32 -16
q-4 -15 -4.5 -33.5t-3.5 -34.5q-49 -169 -184 -236q-6 -2 -12 4t-10 37q-8 -31 -3 -43t-3 -15q-59 -24 -121.5 -36.5t-116.5 17.5q-104 57 -116.5 150.5t-3.5 189.5q1 7 13 8.5t13 9.5q-1 8 -14.5 12.5t-12.5 11.5q10 80 -11 172.5t-7 160.5q6 21 46 16t61 -13
q33 -15 24 -54q-9 -35 -25 -70.5t-37 -51.5z" />
    <glyph glyph-name="V" unicode="V" horiz-adv-x="743" 
d="M116 706q24 6 50 11t51 4q39 -5 49 -31q29 -70 24 -129q3 -28 -7.5 -29t-22.5 -15q20 0 35 1t30 -57q19 -40 31.5 -95.5t25.5 -97.5q11 32 12 44t1 50q8 10 17.5 0t24.5 -17q-6 15 -16.5 30t-8.5 31q13 74 43 171.5t72 158.5q14 19 49 12t48 -27q13 -28 -2.5 -61
t-18.5 -63q12 29 21.5 61t33.5 52q14 11 36 4.5t35 -20.5q8 -12 2.5 -31.5t-9.5 -35.5q-25 -74 -35 -92t-47 -85q-5 -11 -18 -5.5t-21 5.5q5 -12 16.5 -21.5t7.5 -20.5q-33 -79 -79 -206.5t-98 -187.5q-13 -14 -58 -13t-42 42q-5 16 -5 21.5t-5 24.5q-4 -23 -4 -35t-4 -33
q-7 -15 -18.5 -18.5t-18.5 11.5q-118 175 -139 282q-4 17 18 28t37 24q-17 0 -38 -6.5t-32 6.5q-34 39 -85 149t-47 162q1 30 41 34t68 13z" />
    <glyph glyph-name="W" unicode="W" horiz-adv-x="1122" 
d="M85 702q32 -12 55 -40t49 -52q-5 26 -18.5 55t0.5 52q10 17 47 29.5t52 -4.5q46 -63 66 -137.5t39 -146.5q1 -12 -3.5 -18t-11.5 -15q16 0 29 -1t26 -9q15 -15 17.5 -37t9.5 -42q12 16 26.5 32.5t26.5 35.5q22 36 34.5 77.5t45.5 73.5q11 12 34 9.5t41 -9.5t18 -34
q-2 -19 -10.5 -37t-13.5 -36q12 11 22.5 35t23.5 13q34 -24 43 -63t28 -74q6 18 14.5 39.5t12.5 39.5q15 66 18 149t42 142q8 18 42 12.5t61 -6.5q36 -5 82.5 -4t67.5 -27q13 -24 -32.5 -46.5t-38.5 -51.5q5 -18 48.5 15.5t38.5 15.5q-23 -131 -70 -230.5t-103 -193.5
q-8 -11 -28 -5.5t-36 5.5q11 -10 29 -18t18 -21q-4 -42 -19 -86t-51 -72q-22 -17 -65.5 -14t-66.5 27q-47 42 -63 100.5t-40 113.5q-9 -20 -13 -39t-22 -30q-17 -10 -37 -3t-37 9q13 -14 34.5 -22t21.5 -23q1 -32 -10.5 -68.5t-40.5 -58.5q-23 -15 -60.5 -11.5t-61.5 16.5
q-18 8 -17.5 29t-3.5 39q-11 -18 -15 -39t-21 -29q-13 -8 -32.5 -1t-24.5 20q-41 74 -73 151.5t-42 156.5q2 13 18 33.5t-1 80.5q0 -53 -4.5 -68t-28.5 -12q-114 144 -147 310q-3 15 29.5 21t51.5 -3zM284 283q-4 -16 -1 -27t15 -20q13 -8 21.5 -7t27.5 9q-52 -7 -63 45z
M939 481q-18 -11 -42 -14.5t-34 -20.5q-19 -31 -23.5 -71t-15.5 -77q17 57 43 106t72 77z" />
    <glyph glyph-name="X" unicode="X" horiz-adv-x="775" 
d="M216 323q12 10 24.5 23t25.5 25q-16 -3 -35 -11t-30 3q-50 37 -79.5 123.5t-63.5 138.5q-8 9 -6 28.5t15 19.5q29 0 54 -20t53 -33q-19 21 -47 38.5t-27 45.5q0 26 58 38t75 -2q52 -42 75.5 -137t74.5 -113q33 -12 42 42t40 73q9 7 21 -6t25 -21q-7 15 -20.5 32t-2.5 26
q105 100 138 110q34 10 90.5 -11.5t52.5 -62.5q-2 -28 -40.5 -77t-59.5 -70q-11 -10 -30 1.5t-35 16.5q9 -12 25.5 -22.5t10.5 -21.5q-23 -47 -65.5 -85t-76.5 -78q17 7 34 22t34 9q64 -27 98 -89.5t86 -105.5q15 -12 15 -40q0 -14 1.5 -33.5t-11.5 -19.5q-31 0 -59 18.5
t-57 29.5q25 -18 59 -32t43 -42q5 -18 -19 -31t-41 -19q-17 -5 -36.5 -7.5t-32.5 4.5q-65 30 -100 103t-104 87q-32 4 -50 -34.5t-47 -49.5q-13 -5 -25.5 5t-26.5 17q5 -11 14.5 -23t4.5 -21q-22 -44 -66 -58q-25 -9 -56.5 -12.5t-56.5 7.5q-29 11 -57.5 35t-28.5 54
q0 35 27 65t56 50q8 7 22.5 -5t27.5 -18q-6 12 -17 23t-6 21q13 25 42.5 41.5t50.5 35.5z" />
    <glyph glyph-name="Y" unicode="Y" horiz-adv-x="740" 
d="M214 414q-25 27 -52 55t-45 58q-4 5 9 13t19 16q-21 -4 -40.5 -12t-37.5 -4q-19 4 -38.5 16.5t-20.5 30.5q-4 24 9 60.5t29 56.5q7 14 22 28t34 14q23 0 48 -10t53 -26q37 -22 83.5 -89.5t87.5 -84.5q30 33 83.5 107t115.5 108q14 7 39 -6.5t29 -27.5q5 -18 -13 -35.5
t-27 -35.5q21 4 42.5 12t42.5 7q15 -3 33 -15.5t14 -21.5q-23 -37 -67.5 -64.5t-76.5 -58.5q-35 -34 -73 -68.5t-52 -76.5q-18 -52 -5 -109.5t1 -109.5q-3 -9 -28.5 11t-37.5 19q14 -10 42 -33t34 -37q7 -17 7.5 -41t-17.5 -31q-43 -19 -97.5 -25.5t-92.5 16.5
q-36 17 -40 76t0 93q0 11 21.5 -43t37.5 -51q-11 8 -25.5 50t-15.5 50q-20 68 -17 98.5t8.5 46t3.5 28.5t-29 46zM396 464q-12 -15 -27.5 -30.5t-18.5 -31.5q-5 -23 3.5 -43t12.5 -41q-9 64 30 146z" />
    <glyph glyph-name="Z" unicode="Z" horiz-adv-x="659" 
d="M372 651q53 2 99.5 -5.5t71.5 -36.5q-4 13 -1.5 31.5t-9.5 21.5q-38 9 -79 0.5t-81 -11.5zM620 111q-27 15 -37.5 17t-44.5 -10q34 0 45.5 -3t30.5 -21q20 -17 -8.5 -45.5t-46.5 -39.5q-38 -25 -96.5 -3t-101.5 23q-74 1 -148 -13.5t-146 0.5q-17 3 6.5 29.5t33.5 42.5
q-20 -9 -41.5 -34t-31.5 -7q-16 24 -2.5 58.5t27.5 59.5q22 40 51 79t67 65q21 14 46 13t50 1q-18 7 -44.5 5t-16.5 13q38 61 120 95.5t89 107.5q1 18 -22.5 15t-60 -12t-109.5 -14.5t-108 7.5q-11 4 -25 10t-15 17q-6 28 -9 61t17 89q21 22 55.5 18.5t62.5 -1.5
q131 3 221 18t154 -14q46 -22 48.5 -93.5t-4.5 -119.5q-7 -51 -54 -90t-89 -71q-22 -18 -54 -17t-60 -6q20 -4 57 -5.5t26 -17.5q-39 -54 -95 -74t-108 -62q28 6 58.5 8.5t59.5 6.5q56 3 127 15.5t113 -27.5q8 -8 18 -25t-5 -49z" />
    <glyph glyph-name="bracketleft" unicode="[" horiz-adv-x="385" 
d="M316 760q13 0 13 -13v-58q-10 3 -28 3.5t-33 -1.5q22 -4 36.5 -8t24.5 -12v-59q0 -5 -4 -10t-11 -5h-69v-142q0 -10 -1 -11.5t-10 3.5q-11 6 -20 13.5t-16 18.5q6 -17 15.5 -27.5t21.5 -20.5q8 -5 8.5 -8t1.5 -14v-95q3 -77 3 -139q0 -10 -3 -6.5t-8 7.5q-11 8 -23 15.5
t-24 10.5q11 -11 24 -23t25 -25q8 -8 8 -13v-16q-1 -26 -1.5 -53.5t-0.5 -59.5h65q11 0 16 -2t5 -15v-116q0 -14 -2.5 -21.5t-19.5 -7.5h-255v186q0 43 1 73.5t2 62t0.5 71.5t-3.5 102q-1 11 -2.5 21.5t0 16t7 4.5t19.5 -13q8 -7 16 -14.5t16 -14.5q-10 23 -18.5 36.5
t-22.5 26.5q-8 7 -11.5 11.5t-5 9.5t-1.5 11v17q0 44 1.5 76.5t1.5 61.5v165h262zM120 22q-24 -59 -20 -88.5t26 -35.5q18 -5 35.5 -4t36.5 4.5t42 9t52 8.5q-33 0 -54.5 -1.5t-38 -2t-30.5 1t-33 7.5q-12 3 -15 24t-1 77z" />
    <glyph glyph-name="backslash" unicode="\" horiz-adv-x="640" 
d="M335 347q-5 16 -13 41.5t-24 55.5q-12 24 -30.5 51t-37.5 53t-36.5 49t-27.5 38q65 -98 105.5 -169t63.5 -119zM548 0q-9 -3 -20.5 -5.5t-22 -2.5t-17.5 2.5t-7 8.5t-6.5 21t-17 33t-24 36t-28.5 31q6 -9 18.5 -29t23 -41t16 -37.5t-0.5 -17.5q-8 -2 -24 11.5t-25 31.5
q-32 62 -60.5 123t-54.5 122q-4 9 -6 21.5t-5 28t-8.5 34t-17.5 39.5q1 -4 4.5 -15.5t7.5 -25.5t6.5 -27.5t0.5 -21.5q-14 30 -26.5 56t-21.5 45q-36 72 -73 142t-72 142q-11 21 -10 30t8 12t16.5 2.5t17.5 0.5q26 1 48 -10q5 -3 6.5 -9t6.5 -19q4 -13 14 -29.5t22 -34
t23.5 -35t20.5 -31.5q-4 12 -11.5 26t-16 29t-17 29.5t-14.5 27.5q-7 12 -11.5 25.5t-1.5 18.5q4 7 10.5 8t12.5 -2t11.5 -8t8.5 -10q22 -47 42.5 -87.5t28.5 -60.5q3 -7 14 -30.5t26.5 -56.5t34 -71.5t35 -74.5t30 -65.5t20.5 -44.5q4 -11 -1 -6.5t-13 13.5l-16 18t-9 7
q4 -8 13.5 -21.5t20.5 -28.5t21 -29t15 -22q9 -17 22.5 -43.5t24.5 -52.5t14.5 -46t-6.5 -24z" />
    <glyph glyph-name="bracketright" unicode="]" horiz-adv-x="385" 
d="M72 -145q-13 0 -13 11v60q10 -4 28 -4.5t33 1.5q-23 4 -36.5 8t-24.5 12v57q0 6 4 10.5t11 4.5h66q0 40 1 71.5t1 68.5v12t10 -4t19 -13t16 -18q-11 29 -36 47q-8 6 -8.5 8.5t-0.5 13.5v40t-2 54q-1 38 -1.5 72t-0.5 65q0 10 2.5 6.5t7.5 -6.5q24 -20 47 -28
q-10 11 -23.5 23t-24.5 26q-8 8 -8 12.5v15.5q0 27 0.5 54t0.5 57h-62q-11 0 -15.5 2t-4.5 16v114q0 15 2.5 22.5t19.5 7.5h246v-185q0 -42 -1 -72t-2 -61t-0.5 -70t3.5 -100q1 -12 2.5 -22.5t0 -16.5t-7 -5t-18.5 13l-14.5 14.5t-15.5 14.5q9 -23 17.5 -36t21.5 -26
q7 -7 11 -11.5t5 -9.5t1 -11.5v-17.5q0 -42 -1.5 -74.5t-1.5 -59.5v-163h-254zM262 584q24 58 20 87t-25 35q-18 5 -34.5 4t-35 -4.5t-41 -9t-50.5 -9.5q32 0 53 1.5t36.5 2t29.5 -0.5t32 -7q11 -3 14 -23.5t1 -75.5z" />
    <glyph glyph-name="asciicircum" unicode="^" horiz-adv-x="600" 
d="M337 618q6 -14 14.5 -39t22.5 -51q11 -21 26.5 -43t31.5 -42.5t30.5 -38t23.5 -30.5q-55 80 -91 140.5t-58 103.5zM229 564q8 11 17.5 26.5t20.5 35.5l15 66q-4 -11 -11 -29t-15.5 -37.5t-15.5 -36.5t-11 -25zM352 734q3 -10 3.5 -26.5t3.5 -37t11 -43.5t25 -45
q-1 4 -4.5 15.5t-8 25.5t-7.5 28t-3 24q12 -29 23.5 -52t20.5 -40q32 -63 65.5 -125.5t65.5 -125.5q9 -19 10 -30t-3 -17.5t-11 -10t-12 -7.5q-8 -7 -16.5 -10.5t-16.5 -0.5q-4 2 -5.5 7t-6.5 18t-13.5 27t-18.5 28t-20.5 28t-17.5 26q9 -23 25.5 -49.5t28.5 -48.5
q6 -11 11 -24t3 -21q-4 -18 -14.5 -16t-15.5 12q-20 41 -39 77t-27 55q-3 6 -11.5 24.5t-21.5 45t-28 58t-30 62.5q-21 -44 -39 -81.5t-28 -54.5q-5 -10 -6.5 -7t-0.5 11.5t2.5 19t2.5 16.5q-3 -7 -7 -21t-7.5 -29.5t-7.5 -29.5t-8 -22q-6 -16 -17 -40.5t-23 -47t-24.5 -38
t-22.5 -13.5q-8 1 -17.5 5t-17 8.5t-10.5 9.5t2 10q5 4 12 17t13.5 30t11 36t4.5 35q-3 -9 -10 -28.5t-15.5 -38.5t-17 -33t-13.5 -12q-7 2 -8 19t7 33q24 58 51.5 112t56.5 108q4 9 12 18.5t17.5 21.5t19.5 27t18 35q-3 -3 -9.5 -12.5t-14 -20.5t-16 -22t-15.5 -16
q12 22 22 41t19.5 38t17.5 39t15 46q4 14 20 19.5t34 4.5t33.5 -7.5t18.5 -16.5z" />
    <glyph glyph-name="underscore" unicode="_" horiz-adv-x="500" 
d="M266 -112q-11 1 -27.5 3t-36.5 1q-16 -1 -33.5 -3.5t-35 -5.5t-32.5 -6.5t-25 -4.5q64 9 111 12.5t79 3.5zM500 -81q0 -5 0.5 -12t0.5 -13.5t-2 -11t-6 -2.5q-5 1 -14.5 1.5t-21.5 -0.5t-23.5 -3.5t-20.5 -6.5q6 1 19 2t26.5 1.5t24.5 -0.5t12 -4q2 -5 -7 -12.5t-21 -7.5
q-41 -2 -81 1.5t-81 5.5q-12 0 -32.5 5.5t-48.5 3.5q3 0 11 -1t17 -2.5l18 -3t14 -4.5q-20 1 -37.5 0.5t-29.5 -0.5q-48 -1 -94 -2.5t-93 -2.5q-14 0 -20 2.5t-8.5 6t-2 8t0.5 8.5q-2 14 7 21q2 2 6 1.5l12 -1.5q17 -2 41.5 2.5t44.5 6.5q-16 2 -36.5 -0.5t-37.5 -2.5
q-8 -1 -17 0t-12 4q-9 7 -4 12t12 5q30 1 57 1.5t40 -0.5h37.5h67.5h72t50 -1q7 0 4 -1.5t-9 -3.5t-12 -3.5t-5 -2.5q5 0 14 1.5t19 3.5t19 3.5t15 1.5q11 1 30.5 2t38 1.5t32.5 -1t14 -5.5z" />
    <glyph glyph-name="grave" unicode="`" horiz-adv-x="404" 
d="M254 636q-6 10 -16 13.5t-21 18.5q-6 7 -14.5 11t-18 7.5t-20 8t-20.5 13.5q6 -9 16 -15t20 -10.5t19 -9t15 -11.5q5 -7 9.5 -10t9 -5.5t10 -4.5t11.5 -6zM90 688q1 -11 17.5 -18t32.5 -15q-17 11 -32.5 24.5t-11.5 21.5l15 33q4 8 13 11t19 -2l25 -12.5t38 -20t43 -24.5
t39.5 -25.5t27.5 -22.5t8 -15l-18 -37q-3 -6 -17 -5t-34.5 6t-45 13t-47 16t-40.5 15t-26 11q-9 5 -13 13.5t0 16.5z" />
    <glyph glyph-name="a" unicode="a" horiz-adv-x="609" 
d="M205 218v3q0 1 1 2q0 3 11 10q4 3 6 5.5t5 3.5t22.5 7t47.5 11q9 0 -2.5 -0.5t-20 -0.5t19 4.5t108.5 13.5q-18 4 -22.5 6.5t-17.5 5.5q-9 25 -36.5 53t-45.5 31q-2 12 13 23.5t23 24.5q-11 -7 -22 -13.5t-21 -13.5q-13 -8 -26.5 -15.5t-19.5 -19.5q-13 -23 -16 -39.5
t-12 -39.5q-7 -19 -20 -38t-22 -36q9 10 25 31.5t16 8.5q3 -49 3 -106.5t-7 -122.5q0 -35 -60.5 -20.5t-89.5 35.5q-19 14 -6 42t16 50q5 29 11.5 57.5t16.5 49.5q6 19 15 25t22 39q-26 -26 -31.5 -32t-6.5 22q-4 11 3 36.5t11 47.5q2 25 21.5 47.5t40.5 42.5
q26 21 55.5 44.5t64.5 28.5q28 5 57.5 -6t50.5 -28q8 -10 8 -25t4 -37q3 15 3 31t13 8q25 -21 39 -52.5t25 -63.5q25 -74 53 -149.5t26 -192.5q-1 -21 -22.5 -22.5t-41.5 7.5q-15 6 -18.5 23t-11.5 31q-1 -16 2.5 -31t-6.5 -27q-6 -7 -35.5 -1t-32.5 15q-12 25 -10 65t-3 66
l29 49l-60 -12q-28 6 -61 -10t-66 -9q-5 2 -7 5.5t-4 4.5q-3 1 -5 24q0 6 5 9q3 1 20.5 1.5t32.5 5.5q-6 0 -15 -0.5t-18 -0.5t-15.5 1.5t-7.5 4.5zM112 154q-6 -17 -13.5 -32.5t-7.5 -32.5q0 -8 9 -13t15 -11q-10 19 -9 41.5t6 47.5z" />
    <glyph glyph-name="b" unicode="b" horiz-adv-x="625" 
d="M47 76q-16 11 -3.5 27.5t13.5 25.5q5 15 6.5 22.5t-1.5 12.5q0 22 9 53q-3 10 -6 21q-5 36 1.5 75.5t8.5 53.5q38 13 79 57q-42 -39 -79 -44q1 9 3 16q10 48 21 100q0 8 19 0.5t35 -7.5q-8 7 -20.5 19t-1.5 15q31 10 70 7t76 -4q31 -1 67 -3t68 -10q14 -4 19.5 -16.5
t13.5 -20.5q2 7 0.5 18t6.5 9q34 -8 70 -44t16 -135q-14 -25 -51 -37.5t-31 -14.5q16 -13 58 -35.5t39 -60.5q31 -34 23.5 -86t-42.5 -72q-48 -27 -126.5 -21.5t-145.5 -0.5q-52 7 -95 4t-90 8q-28 7 -28 41q-1 18 16 18.5t50 4.5zM249 132q23 -17 46.5 -13.5t49.5 16.5
q25 10 24 31.5t-13 35.5q-12 10 -28 21t-33 16q-41 10 -39.5 33.5t22.5 43.5q14 13 42 16.5t47 13.5q11 6 22.5 16t9.5 21q-5 12 -21 19.5t-30 11.5q-19 5 -40 5t-41 2q-11 0 -29 3.5t-29 3.5q9 -5 28 -10.5t25 -5.5q0 -16 -8 -26.5t-8 -19.5q-3 -25 3.5 -52t-9.5 -57
q2 0 -11.5 5t-21.5 18q1 -23 8.5 -25.5t19.5 -8.5q-9 -45 -8.5 -72t22.5 -42zM456 135q-17 -27 -50 -50t-86 -38q64 9 100 32q19 11 25.5 25t10.5 31zM317 304q-21 -5 -27.5 -14.5t8.5 -7.5q21 0 38 13t34 24q-16 -3 -28.5 -8t-24.5 -7z" />
    <glyph glyph-name="c" unicode="c" horiz-adv-x="570" 
d="M477 517q38 -21 53 -58q2 -58 -4 -51q-19 1 -41 11.5t-41 17.5q9 -5 21 -12t25 -16q30 -16 15 -27q-15 -13 -22.5 -22t-22.5 -3q-23 13 -45 18.5t-63 11.5q-3 1 -9 6t-12.5 10.5t-12 10.5t-8.5 8q-3 -8 9 -19q10 -13 -22 -10q-23 0 -29.5 -3t-29.5 -21q-19 -11 -35 -84
q-1 -20 5 -39.5t8 -36.5q6 -10 -1.5 -27.5t1.5 -43.5q-2 15 -1 23t3 11.5t4.5 4t5.5 0.5q7 -3 15 -9t17.5 -12t19 -10.5t18.5 -6.5q35 -14 76 3q9 4 16.5 10.5t14.5 14t14 14t16 12.5q15 28 45 4q21 -30 -3 -28q3 -7 -7 -13.5t-13 -13.5q12 3 23 13q11 9 23 1q23 -1 31 -20
q22 -14 14 -20q-13 -20 -42 -48.5t-82 -53.5q-52 -23 -109.5 -22t-116.5 13q-36 9 -58.5 28.5t-43.5 44.5q-5 8 -9.5 18t-6.5 20t-3 19t0 14q-8 -7 -6 -26q1 -10 -1.5 -7t-9.5 16q-32 44 -32 127q0 44 13.5 88t34.5 87q26 45 71 69q18 9 34.5 15t33 10.5t33 7t38.5 4.5
q40 2 71.5 -1t59 -6.5t60.5 -15.5zM204 476q-25 0 -35 -5q-30 -16 -33 -40q-5 -26 -12 -47q6 12 10 23t8 24q8 24 38 37q14 1 21 1h18q-14 7 -15 7zM441 70q-20 -5 -42.5 -12.5t-44.5 -7.5q-23 -2 -45.5 1.5t-43.5 6.5q18 -9 38 -14.5t42 -4.5q27 2 49 10.5t47 20.5z" />
    <glyph glyph-name="d" unicode="d" horiz-adv-x="625" 
d="M63 525q10 14 32.5 10t94.5 -7q9 -3 9 -14t4 -20q5 9 9.5 21.5t15.5 12.5q23 0 78.5 -10t76.5 -20q34 -16 83.5 -33.5t68.5 -51.5q27 -49 36 -107t5 -112q-5 -47 -24 -94t-53 -76q-51 -20 -90 -18.5t-140 5.5q-6 0 -6 9.5t-2 16.5q-6 -9 -8 -20t-11 -13q-52 -13 -164 -3
q-12 3 -25 12t-13 21q-3 161 26 318q1 9 13.5 10.5t23.5 4.5q-7 4 -13.5 8t-11.5 8q-10 5 -23 8t-15 14q-2 30 0.5 64t22.5 56zM192 383q7 -10 17 -19t14 -21q5 -20 4 -42t-2 -43q-2 -23 -2 -48t-12 -45q-24 -40 -40 -43t-29 -10q25 3 49.5 5t49.5 8q122 -15 140 -8.5
t28 21.5q14 53 22 80.5t4 54.5q-5 25 -23.5 45.5t-40.5 33.5q-19 12 -88 19.5t-91 11.5zM365 462q-6 0 -48 -2.5t-48 -5.5q98 -4 139 -19q-11 6 -21.5 15t-21.5 12z" />
    <glyph glyph-name="e" unicode="e" horiz-adv-x="583" 
d="M24 465q-20 34 48.5 49.5t105.5 10.5q16 -3 26 -16t-23 -35l78 47q43 12 99.5 15t106.5 -6q23 0 25 -30t2 -49q0 -8 -13.5 -16t-19.5 -12l39 6q5 0 5 -10.5t-5 -10.5q-37 -5 -64.5 -9.5t-36.5 -9.5q-32 -20 -55.5 -11.5t-66.5 4.5q3 21 -21 40q17 0 -7.5 -43t-22.5 -54
q1 -12 49 4t79 4q5 -3 -0.5 -16t-5.5 -19q49 38 92 46q19 3 42 -14t20 -33q-6 -32 -15.5 -57.5t-31.5 -33.5q-35 -13 -82.5 -10t-86.5 1q-26 -1 -25.5 19.5t0.5 28.5q-2 6 -10 -7t-8 -19q-1 -21 1 -42t8 -40q2 -5 10 1.5t14 8.5q31 2 80.5 13t51.5 -15q0 -24 -46.5 -49
t-13.5 -4q-3 -9 52 26.5t83 33.5q17 -3 39 -7t27 -21q8 -25 -1 -58.5t-21 -57.5q-5 -8 -16 -19.5t-21 -7.5q-75 29 -174 30t-216 -18q-20 -3 1.5 14.5t36.5 31.5q-50 -17 -78 -38q-5 -2 -11.5 1t-6.5 6q3 65 12.5 117t6.5 100q0 4 9 1t26 -24q-13 29 -19.5 35.5t-10.5 13.5
q-19 42 -12 97t-28 117zM153 312q-12 9 -26.5 -9t-1.5 -35q39 -31 36 -57t-18 -52q10 14 30 30t11 28q-19 23 -36 52.5t5 42.5z" />
    <glyph glyph-name="f" unicode="f" horiz-adv-x="393" 
d="M351 509q32 -19 24.5 -44t-32.5 -39q-11 -7 -14 -13t-15 -6q-48 9 -90 7t-71 10q4 -12 3 -15.5t1 -9.5q4 -21 -2 -46.5t13 -36.5q28 -18 76.5 -1t82.5 8q6 -1 -5.5 -9.5t-14.5 -15.5q8 6 24 14.5t24 3.5q13 -8 18.5 -24t-2.5 -26q-6 -9 -18 -29t-18 -24
q-17 -12 -78.5 -2.5t-100.5 -16.5q-19 -13 2 -49.5t-12 -40.5q-28 -3 -35 1.5t-3.5 0t16.5 -6.5q4 -5 29 -5q9 -3 -2 -31q3 -17 7 -33.5t-9 -25.5q-25 -8 -65.5 -4.5t-18.5 34.5q-5 4 -11 -13t-13 -17q-8 0 -20.5 -1.5t-9.5 17.5q-5 45 0.5 90.5t7.5 90.5q-1 10 -3 21.5
t5 18.5q2 4 8.5 -3t11.5 -10q-5 12 -11.5 24t-6.5 24q-1 27 0.5 50t1.5 71q16 -2 27 1t20 8q-29 -2 -45 4q-5 2 -9 53t11 56q53 15 104 12.5t107 -4.5q36 -1 55 -5t56 -13zM250 501q-37 -1 -77.5 1.5t-71.5 -5.5q-13 -9 -15 -20t-2 -21q2 32 25.5 38t140.5 7z" />
    <glyph glyph-name="g" unicode="g" horiz-adv-x="625" 
d="M230 163l37 14q14 -8 30 -13.5t29 -10.5q15 -8 33 -7t37 0q0 12 3 24.5t-1 22.5q-4 8 -18 5.5t-23 -0.5q-12 0 7.5 21t20.5 32q0 8 -7.5 25t1.5 17q27 0 68 -10.5t66 -21.5q4 -2 6.5 -12.5t7.5 -10.5q11 -1 18.5 8.5t18.5 7.5q11 -3 27 -10t16 -20q-1 -26 -27.5 -47
t-20.5 -45q7 -30 10.5 -65.5t-15.5 -60.5q-8 -13 -27 -2t-34 12q-14 0 -42 -1t-33 -1q-8 14 -4 30.5t-4 28.5q-11 11 -31 12t-37 6q12 -8 27.5 -13t20.5 -16q4 -13 0 -30t-17 -21q-27 -10 -60.5 -8t-57.5 11q-36 10 -88.5 25t-68.5 47q-8 15 15 25.5t39 22.5
q-19 -6 -46.5 -17.5t-38.5 3.5q-27 42 -31.5 91t-0.5 90q2 34 22.5 84.5t64.5 93.5q28 30 90.5 42.5t110.5 21.5q6 1 8.5 -9t6.5 -16q2 6 2 15.5t5 9.5q44 0 104.5 -2.5t97.5 -22.5q21 -10 26.5 -47.5t6.5 -48.5q0 -10 -13.5 -17t-23.5 -8q-7 -1 -13.5 5.5l-11.5 11.5
q-1 -11 0.5 -24.5t-5.5 -18.5q-11 -6 -24 1t-54 12q-36 14 -62 32q-7 5 -13.5 13t-14.5 4q0 2 4.5 -9t-0.5 -19q-21 -23 -58.5 -33.5t-52.5 -33.5q-18 -41 -25 -60t4 -51q9 -25 28 -37zM232 433q-17 1 -54 -8.5t-48 -25.5q-13 -16 -15 -36.5t-7 -51.5q38 91 124 122z" />
    <glyph glyph-name="h" unicode="h" horiz-adv-x="615" 
d="M53 509q0 9 12 11.5t22 2.5q19 0 23.5 -6.5t9.5 -9.5q6 3 12 9t14 7q36 2 57.5 3.5t35.5 -8.5q11 -13 10.5 -32t-3.5 -37q0 -5 -9 -7.5t-9 -7.5q0 -20 8 -40t10 -38q3 -13 1.5 -41t-1.5 -41q1 5 2.5 25.5t3.5 25.5q3 8 3.5 17t9.5 12q17 5 56 3t59 -1q-2 41 -11.5 84
t5.5 83q6 16 32 12t43 -12q28 -5 30 -19t7 -24q4 9 5.5 21t11.5 17t28 6.5t20 -9.5q11 -53 15.5 -146.5t-5.5 -97.5q-2 -13 -14 11.5t-19 54.5q2 -7 3.5 -28.5t11.5 -39.5q4 -14 13 -20t9 -18q-4 -57 -10 -116t-10 -114q-1 -7 -18 2t-23 14q-7 -5 -26 -10.5t-36 -5.5
q-10 -1 -23 -0.5t-15 8.5q-14 44 -5 94.5t-12 91.5q-9 18 -57.5 11t-67.5 0q-9 4 -12 11l-6 14q-2 -8 -3.5 -14.5t-1.5 -12.5q-6 -51 -6 -103.5t-16 -102.5q-2 -10 -20.5 -1t-23.5 17q-32 18 -34.5 38.5t-6.5 40.5q0 -20 4 -40.5t-4 -38.5q-6 -10 -27.5 -11.5t-33.5 1.5
q-18 2 -18 19q-7 61 -8.5 124t8.5 124q0 8 11 8t21 3q-9 8 -17.5 28t-9.5 30q-6 41 -10 84.5t5 84.5zM404 271q23 -11 32 -30t25 -40q-15 18 -15.5 36.5t-9.5 33.5q-4 6 -14.5 3t-17.5 -3z" />
    <glyph glyph-name="i" unicode="i" horiz-adv-x="282" 
d="M49 400q0 19 26 25q19 5 41.5 6t42.5 -6q9 -4 8 -16t2 -22q2 7 2 16.5t8 10.5q11 0 22.5 -7t12.5 -17q4 -34 -3.5 -69.5t-10.5 -69.5q-1 -10 -10 -18.5t-11 -19.5q4 5 14 9.5t23 13.5q-1 -17 -0.5 -31t0.5 -25q4 -53 7 -78t6 -79q0 -5 -2 -12.5t-6 -7.5q-21 -3 -55 -4.5
t-52 5.5q-9 3 -0.5 15.5t6.5 20.5q-5 14 -6 27.5t-5 27.5q-4 -11 -5 -22t-3 -19q-4 -11 -2.5 -24.5t-11.5 -19.5q-18 -7 -30.5 -1t-12.5 12q-4 51 -1.5 72.5t10.5 72.5q0 5 9 5t15 2q-5 7 -12.5 14.5t-8.5 16.5q-6 48 -9 97t2 99zM148 199q-3 -9 -8.5 -17.5t-4.5 -18.5
q3 -17 11.5 -34t16.5 -34q-10 29 -12.5 54t-2.5 50zM229 465q12 -46 -28 -24q-28 10 -45.5 14.5t-29 6t-19 1.5t-15.5 1q-22 3 -32 -10q-24 -9 -22 14q4 8 11 18q15 -16 35 -4q-42 -6 -28 20q7 3 14 9.5t40 12.5q27 2 54 -7.5t51 -28.5q1 -6 -9 -10t-42 8q34 -19 47 -13
t24 -2z" />
    <glyph glyph-name="j" unicode="j" horiz-adv-x="282" 
d="M65 491q21 26 43 10q15 14 14 -21.5t4 -52.5q1 17 3 36.5t8 42.5q15 4 45.5 17.5t39.5 -24.5q6 -87 11.5 -193.5t4.5 -206.5q-3 -16 -24 -4.5t-29 62.5q6 -58 24 -71t29 -17q6 -68 -18 -130t-52 -101t-55.5 -38.5t-61.5 -10.5q-9 2 -0.5 17.5t59.5 48.5
q-58 -21 -70.5 -43.5t-25.5 -17.5q-31 -2 0 86.5t34 103.5q1 11 8.5 20.5t22.5 17.5q10 45 4.5 93t-0.5 92q7 56 -3 112.5t-18 110.5q-3 15 -4 32.5t7 28.5zM218 615q11 -70 -26 -37q-27 16 -44 23t-27.5 9.5t-18 1.5t-14.5 1q-21 6 -31 -15q-22 -14 -20 22q3 12 9 28
q15 -25 34 -7q-40 -9 -27 31q7 5 13.5 14.5t38.5 19.5q25 3 50.5 -11.5t48.5 -43.5q1 -10 -8 -16t-40 13q33 -29 45 -20t23 -3z" />
    <glyph glyph-name="k" unicode="k" horiz-adv-x="592" 
d="M64 524q17 11 42.5 9t44.5 -9q9 -3 8.5 -15t3.5 -20q5 11 7 22.5t13 19.5q20 14 34 -3q9 -11 8.5 -25t0.5 -27q1 -30 0 -61q-3 -23 0 -56t-14 -44q21 -3 32 17.5t21 27.5q20 16 35 29.5t36 29.5q26 19 59.5 44t66.5 37q41 28 83 6t33 -35q-22 -9 -48 -14.5t-28 -15.5
q12 1 25.5 6t25.5 0q10 -5 16 -17.5t0 -20.5q-18 -23 -47 -37t-52 -33q-16 -13 -37.5 -27t-29.5 -37q25 -53 81.5 -125t68.5 -130q3 -16 -24.5 -18.5t-45.5 -3.5q-31 36 -39.5 42t-17.5 10q7 -8 20 -16.5t6 -26.5q-3 -3 -21 -8t-28 3q-25 18 -42 45t-25 54q-6 31 -17.5 50
t-29.5 64q-4 20 -14.5 2.5t-24.5 -14.5q-13 2 -17.5 13t-7.5 20q0 -35 1 -52q0 -10 2 -19t2 -19q-2 -35 2.5 -71t-15.5 -67q-9 -14 -35 -12.5t-43 8.5q-13 6 -11.5 20.5t-0.5 25.5q-4 -11 -3.5 -25t-12.5 -17q-18 -5 -42.5 -0.5t-28.5 19.5q-15 39 -5.5 82.5t9.5 84.5
q0 34 0.5 69t4.5 68q1 32 0.5 65t11.5 64q3 7 16 7t23 3q-22 5 -24 6q-7 10 -15.5 25.5t3.5 22.5zM453 432q-24 -14 -48.5 -27t-45.5 -28q-16 -13 -13 -22q2 -14 21 -3q25 19 44.5 39t41.5 41z" />
    <glyph glyph-name="l" unicode="l" horiz-adv-x="282" 
d="M202 692q5 -85 2.5 -170.5t-6.5 -168.5q1 -15 0 -29t-18 -24q4 -4 12 -4t8 -8q2 -44 5 -75.5t4 -50.5t19.5 -59.5t17.5 -84.5q0 -13 -13.5 -16.5t-29.5 1.5t-29 17t-12 31q0 24 -3 57t-7 56q0 -39 -5 -59t4 -46q2 -11 1.5 -30t-3.5 -22q-16 -12 -44 -9q-16 1 -35.5 2
t-17.5 40q1 47 2 81.5t3 55.5q1 22 2.5 56t3.5 79v43.5v53.5q10 -15 19 -23t11 -17q-1 20 -13 34.5t-14 31.5q-2 59 -3.5 120.5t1.5 119.5q0 17 10 29t19 12q7 -2 7 -18t3 -28q1 17 0.5 37t7.5 28q16 12 35 10t36 -10q1 -1 15.5 -22t4.5 -21zM107 164q8 30 13.5 51t8.5 51
q3 39 -9 79q0 -53 -3 -94t-10 -87z" />
    <glyph glyph-name="m" unicode="m" horiz-adv-x="924" 
d="M238 518q16 17 61.5 12.5t66.5 -17.5q19 -13 26.5 -39t31.5 -57q5 -8 -3.5 -8t-12.5 -10q10 5 18.5 1t20.5 -6q11 -2 15.5 -22.5t13.5 -13.5q20 13 25 38.5t15 45.5q19 45 23.5 64t56.5 19q16 0 21 -22t13 -35q0 14 -2.5 27.5t10.5 24.5q6 6 21 7.5t21 -6.5
q17 -34 28.5 -78t15.5 -79q0 -11 -12.5 -19.5t-20.5 -18.5q13 3 28 13t24 1q26 -26 38.5 -60.5t26.5 -66.5q16 -46 44.5 -94.5t10.5 -92.5q-11 -27 -84.5 -26t-105.5 8q-13 3 -22.5 20t-9.5 29q-1 11 8.5 22t15.5 22q-9 -5 -21 -9.5t-17 0.5q-25 22 -27 47t-7 48
q0 28 -5 54.5t-7 44.5q-53 -21 -71 -71t-38 -50q-37 -2 -47.5 16.5t-18.5 28.5q-12 16 -31.5 38t-19.5 43q-1 14 18 16.5t23 13.5q-11 -9 -29 -8.5t-24 -9.5q-14 -20 -16.5 -40.5t-10.5 -46.5q-8 -6 -7 11.5t-7 30.5q0 -9 -0.5 -34.5t-6.5 -36.5q-16 -42 -15.5 -91
t-35.5 -87q-12 -13 -56.5 -10.5t-56.5 14.5q-9 11 -7.5 31.5t7.5 34.5q-14 -13 -11.5 -36t-15.5 -27q-15 -3 -29.5 7.5t-18.5 38.5q16 112 62 214q9 11 14 0.5t12 -20.5q3 12 0 24.5t-1 30.5q19 53 36 108.5t59 98.5zM327 441q-10 6 -18.5 20.5t-18.5 8.5q-22 -13 -30.5 -38
t-21.5 -45q24 33 47 53.5t42 0.5z" />
    <glyph glyph-name="n" unicode="n" horiz-adv-x="615" 
d="M55 210q10 17 21.5 23t25.5 25q-15 -10 -27.5 -18.5t-15.5 5.5q-14 56 -6.5 114.5t13.5 116.5q1 26 22 38q21 11 53 7q4 -1 4.5 -8.5t6.5 -7.5q10 -1 19 5.5t18 3.5q10 -2 18 -11.5t15 -16.5q12 -14 20 -24t18 -24q2 -15 -4 -29.5t-6 -21.5q5 5 17.5 20.5t19.5 10.5
q33 -34 55 -75t52 -76q8 -9 11.5 -12.5t13.5 -0.5q0 10 -4 14.5t-6 17.5q-9 55 -12 109.5t-3 109.5q0 9 15 13q15 3 33.5 7t33.5 -4q12 -7 11.5 -21.5t3.5 -26.5q5 11 7 25.5t15 19.5q8 3 18 -6t12 -17q8 -45 9 -91t3 -92v-129.5t-5 -128.5q0 -12 -5 -27.5t-17 -23.5
q-13 -7 -31 -4t-29 11q-5 5 -3 8.5t13 11.5q-12 -3 -17 -7t-15 -10q-9 -6 -21.5 1.5t-19.5 14.5q-17 17 -28 38t-24 39q-30 39 -62 82t-57 102q0 -11 3 -22t-3 -20q-7 -13 -14.5 -25.5t-17.5 -20.5q7 1 15 9t17 1q-2 -42 0.5 -91.5t-4.5 -97.5q-1 -10 -13.5 -18t-24.5 -11
q-10 -4 -25.5 -6t-22.5 6q-13 15 -12.5 35.5t-2.5 38.5q0 -8 -2.5 -17t-5.5 -14q-2 -14 -2 -28.5t-34 -14.5q-17 2 -23 19.5t-7 31.5q-5 43 -8 87t8 78zM468 194q2 -11 8 -12.5t6 -11.5q0 -6 -19.5 -12.5t-19.5 -10.5q-1 -8 2 -13.5t9 -12.5q-1 9 -0.5 10l4.5 9
q6 11 25 17.5t19 14.5t-13 11.5t-21 10.5z" />
    <glyph glyph-name="o" unicode="o" horiz-adv-x="595" 
d="M225 476q-11 -2 -23.5 -2t-21.5 -7q-8 -6 -11.5 -17.5t-7.5 -20.5q26 37 64 47zM434 23q2 -11 -17 -12q-27 -7 -54.5 -13t-106.5 0q-33 6 -77.5 20.5t-90.5 41.5q-16 16 -26 44t-11 52q-1 12 18.5 25.5t23.5 39.5q-6 -19 -24.5 -29.5t-23.5 -6.5q-8 3 -7.5 15.5t0.5 20.5
q-7 44 -7 87.5t20 95.5q5 26 32 50.5t50 44.5q25 14 65 23.5t59 7.5q11 -5 8.5 -21t-23.5 -40q23 7 28 28.5t26 35.5q12 1 66 0t69 -10q29 -17 45.5 -44t37.5 -56q19 -29 18 -73q0 -11 -10 -34t-18 -46q15 23 20.5 37t15.5 15q10 -11 13 -27.5t3 -31.5q-1 -28 -5 -55.5
t-15 -51.5q-16 -34 -40 -63t-34 -53q-6 -5 -32 4.5t-33 11.5q4 -6 24 -16t13 -17zM328 453q-3 -11 -17.5 -28t-31.5 -20q-14 -8 -30.5 -10.5t-25.5 -18.5q-17 -24 -22 -49t-11 -53q-8 -26 -20 -46q7 3 14 15t11 6q13 -19 18.5 -42.5t21.5 -40.5q15 -18 33 -34.5t36 -3.5
q21 14 47.5 21.5t28.5 35.5q-2 36 12 51t38 32q-8 0 -14.5 -5t-12.5 -4q-23 -11 -24 19.5t-4 57.5q-5 29 -18 38q-11 7 -20.5 17t-21.5 17q-8 4 2.5 16t10.5 29zM319 57q-9 3 -18.5 7.5t-26.5 -2.5q-26 -3 -44.5 0t-46.5 17q36 -29 60.5 -33t75.5 11z" />
    <glyph glyph-name="p" unicode="p" horiz-adv-x="625" 
d="M47 33q0 28 1 57.5t3 59.5q1 26 0 53.5t8 52.5q2 8 14.5 11t21.5 8q-9 1 -20.5 0t-13.5 6q-9 41 -8.5 83t2.5 83q0 18 -0.5 38t15.5 32q16 13 43 14.5t49 -5.5q53 -4 67 -15.5t27 -31.5q-1 11 -9 26.5t9 17.5q30 5 65.5 4.5t66.5 -13.5q11 -3 11 -15t4 -21q3 6 4.5 15
t10.5 9q21 0 59 -13.5t51 -27.5q24 -26 36.5 -58.5t18.5 -65.5q3 -23 -4 -47.5t-19 -46.5q-24 -45 -95 -63q-24 -10 -54 -12.5t-56 -2.5q-17 0 -48 3t-42 16q-12 13 -9.5 32.5t6.5 35.5q4 21 25 26q22 5 58 -0.5t54 6.5q16 10 20.5 29.5t2.5 37.5q-2 10 -17.5 14t-19.5 14
q-5 7 -2.5 15t2.5 17q-9 -6 -15 -13.5t-15 -9.5q-21 -5 -54.5 3t-40.5 -9q-22 -49 -18.5 -103t4.5 -105q0 -47 15.5 -93.5t2.5 -91.5q-5 -15 -61 -9.5t-71 12.5q-10 4 -11 16t-4 21q-10 -12 -17.5 -26t-19.5 -24q-6 -4 -16 -5.5t-13 2.5q-8 12 -6 27.5t2 29.5zM477 263
q-14 -8 -26 -17.5t-29 -13.5q-26 -4 -52 -3t-71 1q47 -5 75 -15t55 -5q21 4 28.5 21.5t19.5 31.5z" />
    <glyph glyph-name="q" unicode="q" horiz-adv-x="625" 
d="M575 -64q0 -17 2.5 -35.5t-6.5 -33.5q-2 -5 -12 -3t-16 7q-12 12 -19.5 29t-18.5 31q-2 -11 -3 -25.5t-11 -19.5q-15 -8 -53.5 -41t-43.5 -15q-13 54 -15 136.5t-2 139.5q1 61 5 126t-19 124q-7 20 -40.5 10.5t-53.5 -3.5q-9 3 -15 12t-16 16q0 -11 3 -20.5t-3 -18.5
q-3 -12 -18.5 -16.5t-17.5 -16.5q-2 -22 2.5 -45.5t20.5 -35.5q18 -14 54 -7.5t58 0.5q20 -6 24 -32q5 -19 7 -42.5t-10 -38.5q-11 -16 -41.5 -19.5t-47.5 -3.5q-26 0 -56 3t-54 15q-71 21 -95 76q-11 26 -18.5 55.5t-4.5 57.5q7 40 19 79t36 70q13 17 51 33t58 16
q10 0 11.5 -10.5t3.5 -17.5q5 10 5 24.5t11 18.5q31 16 66 16.5t66 -5.5q17 -3 9 -21.5t-9 -31.5q12 24 26 38t67 18q22 9 48.5 7t43.5 -17q16 -15 15.5 -39t-0.5 -46q1 -49 1.5 -99.5t-7.5 -100.5q-3 -8 -14.5 -7t-19.5 0q8 -6 21 -9.5t15 -13.5q8 -30 7 -63t0 -64
q2 -36 3 -71.5t1 -69.5zM147 213q12 -17 19.5 -38t28.5 -26q26 -6 54.5 6t74.5 18q-44 0 -70 -1t-52 3q-17 5 -29 16.5t-26 21.5z" />
    <glyph glyph-name="r" unicode="r" horiz-adv-x="512" 
d="M97 328q-4 4 -22 0.5t-20 15.5q-5 40 -11.5 71t9.5 70q9 19 44.5 24.5t71.5 9.5q41 6 87.5 3t88.5 -7q29 -3 51.5 -26.5t48.5 -46.5q21 -31 27 -46.5t10 -36.5q8 -30 12.5 -63.5t-16.5 -55.5q-32 -31 -81.5 -35t-91.5 -21q-7 -2 7 -0.5t19 -1.5q75 -43 133 -89
q6 -6 5 -19q0 -16 -5 -24.5t-12 -12.5q-8 -6 -31 10t-46 35q6 -30 22.5 -41t49.5 -14q-21 -19 -50 -21t-61.5 22.5t-11.5 -8t7 -30.5q-15 1 -27 12.5t-24 20.5q-52 32 -63 81t-31 93q-4 8 -5 -22.5t-1 -35.5q-5 -24 2 -46t5 -50q-1 -12 -0.5 -30t-16.5 -16q-14 -10 -20 16.5
t-29 44.5q17 -60 -0.5 -59.5t-31.5 3.5q-18 3 -32.5 0.5t-10.5 56.5q-8 47 5 97.5t0 98.5q-9 37 10.5 52t35.5 21zM191 380q-17 -36 -20 -76.5t4 -76.5q3 -10 13.5 23.5t31.5 39.5q25 5 56.5 10.5t53.5 17.5q11 6 2.5 25.5t-16.5 29.5q-16 20 -23 59q-2 -16 -8.5 -32.5
t-31.5 -20.5q-16 -2 -36.5 5.5t-25.5 -4.5zM263 149q-4 15 -6 18t-16 17q0 -37 10.5 -52.5t27.5 -23.5q-7 14 -9.5 22t-6.5 19z" />
    <glyph glyph-name="s" unicode="s" horiz-adv-x="584" 
d="M181 486q11 3 19 8.5t14 11.5t11.5 10t12.5 4q14 0 34 0.5t41.5 0t42 -1.5t36.5 -3q30 -5 58 -12t42 -27q3 -4 12 -18t17 -31.5t12 -33.5t-3 -23t-25.5 -8t-39 0t-38 2t-22.5 -2q-8 -5 -9.5 -1t-2.5 12t-4 18t-12 16q-9 7 -33.5 8.5t-52 0.5t-51.5 -3t-33 -3
q-16 0 -22 -18q-2 -5 -3.5 -13t-2 -16t0.5 -15t3 -9q10 -12 32.5 -17t48 -7t49.5 -2t38 -3t32.5 -5t37.5 -4.5t35.5 -7t26.5 -11.5q6 -4 3 -5.5t-10 -3t-16.5 -4.5t-16.5 -9q9 2 21 3t23.5 0t21.5 -3.5t15 -7.5q13 -14 18 -32.5t6 -35.5t0 -30t0 -16q3 -14 0 -26t-9 -23.5
t-14 -23t-16 -24.5q-7 -10 -16.5 -15t-21.5 -8t-25 -5.5t-27 -8.5t-37 -7.5t-48.5 -1t-49 1.5t-36.5 0q-10 0 -22 -1.5t-15 10.5q-3 13 -12 24.5t-19 18.5q4 -9 9 -18t6 -16t-4 -11t-20 -3q-13 1 -28.5 6t-30 11.5t-27 14.5t-18.5 16q-4 5 -4 8.5t8 8.5q13 10 23 10
q-6 5 -12.5 4t-12.5 -3q-11 -4 -18 0q-11 10 -16 25q-4 16 5 25q6 6 3.5 11t-6.5 10t-6.5 9t3.5 8q8 6 26.5 8t39 1.5t39 -2t27.5 -1.5q6 0 7.5 -3t1.5 -8.5t-0.5 -12.5t1.5 -14q4 -16 22.5 -21t41.5 -7q14 -2 28.5 0t28.5 0q7 -2 11.5 2t9.5 9t12 10t19 5q-13 -8 -17 -14.5
t-6 -11.5q6 -1 17 0.5t22.5 4.5t21.5 7t14 7q9 8 12.5 27.5t-2.5 27.5q-8 11 -25.5 17.5t-39.5 9.5q-12 2 -31.5 3t-41.5 2t-43 2.5t-35 3.5q-14 3 -33 4t-24 6q-7 8 -9.5 21t-16.5 22q1 -8 2 -14.5t-0.5 -10.5t-7 -4.5t-17.5 5.5q-22 9 -34 30q-6 11 -6.5 23t-5.5 22
q-9 21 -2 36q3 6 13.5 20t16.5 20q-5 1 -9 -2l-8 -6t-7 -5t-5 0q-5 5 -2.5 18t7.5 23q7 15 12 30t17 26q8 8 20.5 13.5t26.5 10t28.5 7.5t25.5 5q13 3 17 0.5t3 -7.5t-6 -12t-10 -13zM505 207q-7 10 -15.5 12t-19.5 5q8 -4 15.5 -12t13 -17.5t8.5 -19.5t3 -17q2 22 0 33
t-5 16z" />
    <glyph glyph-name="t" unicode="t" horiz-adv-x="492" 
d="M188 112q-3 -38 -24 -63q7 6 15 9.5t11 11.5q4 10 1 21t-3 21zM234 385q18 -29 21 -66q0 13 3 26.5t1 23.5q-2 8 -10 10.5t-15 5.5zM16 377q-1 28 -3.5 52.5t1.5 52.5q0 7 8.5 9t14.5 2q34 -6 69 -1t67 4q9 -1 8.5 -20t3.5 -31q0 16 -2.5 33.5t7.5 26.5q19 18 44 24.5
t50 11.5q34 5 69 11.5t70 -2.5q16 -4 34 -22t19 -41q0 -25 -3 -67t-22 -51q-26 -11 -61 11t-66 27q-9 0 -16 8.5t-15 13.5q3 -8 8 -17t5 -16q2 -73 -6 -148q-2 -15 -8.5 -29.5t-11.5 -30.5q5 -7 12.5 -12.5t7.5 -13.5q0 -39 3.5 -83.5t-19.5 -67.5q-15 -11 -40.5 -13
t-46.5 -10q-14 -5 -34 1.5t-20 21.5q-3 57 7 113.5t14 108.5q1 8 9.5 14t14.5 12q-3 3 -7 6t-6 6q-8 24 1.5 58.5t-3.5 36.5q-29 6 -61.5 -8t-63.5 -5q-9 3 -20.5 8t-11.5 16z" />
    <glyph glyph-name="u" unicode="u" horiz-adv-x="614" 
d="M100 403q31 -1 34.5 6t10.5 18q11 17 9.5 37.5t11.5 38.5q14 15 36 21.5t46 8.5q14 -1 28.5 -4.5t17.5 -16.5q7 -24 -1 -47.5t-14 -46.5q-7 -31 -33 -36t-36 -17q-7 -7 17 -4t26 -7q6 -25 -2.5 -51.5t-14.5 -48.5q-7 -27 -5.5 -54t5.5 -49q4 -18 14 -26.5t30 1.5
q24 38 46.5 79.5t34.5 83.5q11 42 9.5 85t4.5 84q5 19 7.5 41.5t18.5 35.5q9 9 26.5 4t31.5 -8q19 -4 17 -14q-4 -15 -16 -25t-15 -32q26 17 31.5 32.5t26.5 26.5q18 11 44 -4q20 -12 17 -34q-2 -49 -2.5 -99t-26.5 -91q-9 -18 -31 -10.5t-61 1.5q26 -16 55 -13t26 -12
q-3 -11 -3.5 -24.5t-2.5 -24.5q-40 -122 -148 -171q-5 -1 -10 3t-8 27q-6 -23 -2 -31.5t-3 -10.5q-47 -18 -97.5 -27t-93.5 13q-84 41 -94 109t-3 137q1 5 11 6t10 7t-11 9t-10 9q8 57 -9 124t-6 117q5 15 37 11.5t49 -9.5q27 -11 20 -39q-8 -26 -20.5 -51.5t-29.5 -37.5z
" />
    <glyph glyph-name="v" unicode="v" horiz-adv-x="550" 
d="M84 497q18 4 37 7.5t37 3.5q28 -4 36 -22q21 -50 17 -92q2 -19 -5.5 -20t-16.5 -11q15 0 26 1t22 -40q13 -29 22.5 -68t18.5 -69q8 23 9 31.5t1 35.5q5 7 12 0t18 -12q-4 10 -12 20.5t-6 22.5q9 52 31 121t53 112q10 14 35.5 9t34.5 -19q10 -20 -1.5 -43.5t-13.5 -44.5
q9 20 16 43t24 37q10 8 26 3.5t26 -14.5q6 -9 2 -22.5t-7 -25.5q-19 -52 -26 -65t-34 -60q-4 -8 -13.5 -4t-14.5 4q3 -9 11.5 -15.5t5.5 -14.5q-24 -56 -57.5 -146t-71.5 -133q-9 -10 -42 -9t-31 30q-3 11 -3 15t-4 17q-3 -16 -3 -24.5t-3 -23.5q-5 -10 -13.5 -12.5
t-13.5 7.5q-86 124 -101 200q-3 12 13 19.5t27 17.5q-12 0 -27.5 -5t-23.5 5q-25 27 -62 105t-34 115q1 21 30 24t49 9z" />
    <glyph glyph-name="w" unicode="w" horiz-adv-x="842" 
d="M66 520q39 -2 47 -38t28 -53q-4 19 -14 39.5t0 36.5q8 12 35.5 20.5t38.5 -3.5q35 -44 50 -96.5t29 -103.5q0 -8 -3 -12t-8 -11q11 0 21 -0.5t20 -6.5q11 -10 13 -25.5t7 -29.5q9 11 19.5 49t19.5 51q7 41 16.5 70t33.5 52q9 8 26 6.5t30 -6.5q14 -5 14 -24
q-2 -14 -8 -26.5t-10 -25.5q9 8 17 25t17 9q26 -17 37.5 -78.5t25.5 -85.5q5 12 11.5 27.5t9.5 27.5q11 47 13 105.5t32 99.5q6 13 31 9t46 -5q27 -3 61.5 -2.5t50.5 -18.5q10 -17 -15 -27t-38 -42q23 12 45.5 23t19.5 -2q-17 -92 -52.5 -162t-77.5 -136q-6 -8 -21 -4t-27 4
q9 -7 22.5 -12.5t13.5 -15.5q-3 -29 -14.5 -60t-38.5 -51q-16 -12 -48.5 -9.5t-49.5 18.5q-36 30 -48 71t-30 80q-6 -14 -9 -27.5t-17 -21.5q-12 -7 -27 -2t-28 7q10 -10 26 -15.5t16 -16.5q1 -22 -8 -48t-30 -41q-17 -11 -45.5 -8.5t-46.5 11.5q-13 6 -12.5 20.5t-2.5 27.5
q-8 -13 -11 -27.5t-16 -20.5q-10 -5 -24.5 -0.5t-18.5 14.5q-30 52 -54 106.5t-32 109.5q2 10 14 24t-1 57q0 -38 -3.5 -48.5t-21.5 -8.5q-85 102 -110 219q-2 10 24 27.5t40 10.5zM212 199q-3 -11 -1 -19t11 -14q10 -5 16.5 -4.5t20.5 6.5q-39 -5 -47 31zM702 339
q-14 -8 -32 -10.5t-25 -14.5q-14 -22 -17.5 -50t-11.5 -54q12 40 31.5 74.5t54.5 54.5z" />
    <glyph glyph-name="x" unicode="x" horiz-adv-x="563" 
d="M153 223q9 7 18 16l18 18q-11 -2 -25 -8t-22 2q-36 27 -57.5 89t-45.5 99q-6 6 -4.5 20t10.5 14q21 0 39 -14.5t39 -23.5q-14 15 -34.5 27.5t-19.5 32.5q0 19 42 27.5t54 -1.5q38 -30 55 -98t54 -81q24 -8 30.5 30.5t28.5 51.5q7 5 15.5 -4t18.5 -15q-6 11 -15.5 23
t-1.5 19q76 71 100 78q24 8 65 -7.5t38 -45.5q-1 -20 -29 -55t-43 -50q-8 -7 -22 1t-25 12q6 -9 18 -16.5t8 -14.5q-17 -34 -47.5 -61.5t-55.5 -55.5q12 5 24.5 15.5t24.5 6.5q47 -19 71.5 -64t62.5 -76q10 -8 10 -28q0 -10 1.5 -24t-8.5 -14q-22 0 -42.5 13t-41.5 21
q18 -13 43 -23t31 -30q4 -13 -13.5 -22t-29.5 -14q-13 -3 -27 -5t-23 3q-47 22 -72.5 74t-75.5 62q-23 3 -36 -24.5t-34 -35.5q-10 -3 -19 4t-19 12q4 -8 10.5 -16.5t3.5 -15.5q-16 -31 -48 -41q-18 -7 -41 -9.5t-41 5.5q-21 8 -41.5 25.5t-20.5 38.5q0 25 19.5 46.5
t40.5 35.5q6 5 16.5 -3.5t19.5 -12.5q-4 8 -12 16t-4 15q9 18 30.5 30t36.5 26z" />
    <glyph glyph-name="y" unicode="y" horiz-adv-x="553" 
d="M148 243q-18 21 -56 54t-37 61q-1 6 10.5 6t18.5 2q-15 6 -30.5 9.5t-25.5 13.5t-17.5 27t-1.5 31q7 18 29.5 38t40.5 26q9 7 24 10.5t28 -4.5q14 -10 25.5 -28t23.5 -40q18 -73 43.5 -80t51.5 -73q27 79 66.5 139.5t39.5 85.5q8 9 28.5 5t26.5 -14q8 -13 -0.5 -31
t-11.5 -34q14 28 26 43t32 31q41 -3 49.5 -8t5.5 -50q-14 -54 -44.5 -84.5t-54.5 -71.5q-15 -20 -23.5 -47.5t-32.5 -79.5q-17 -35 -23.5 -73t-15.5 -80q-2 -8 -21 8.5t-28 15.5q11 -8 32.5 -29.5t-7.5 -61t-107 -49.5q-39 -1 -91 2t-38 121q117 47 112.5 12t20.5 -56
q-8 6 -9.5 53t-3.5 76q0 50 -17.5 73.5t-37.5 50.5zM302 250q-9 -13 -18.5 -20t-15.5 -31q-3 -18 3 -34.5t9 -33.5q-7 52 22 119z" />
    <glyph glyph-name="z" unicode="z" horiz-adv-x="496" 
d="M280 456q40 2 75.5 -3.5t54.5 -25.5q-3 9 -1 22t-7 15q-29 6 -60.5 0t-61.5 -8zM469 78q-21 11 -29 12.5t-34 -7.5q26 0 35 -2t24 -15q15 -12 -7 -31.5t-36 -27.5q-29 -18 -73.5 -2.5t-77.5 16.5q-56 1 -112.5 -9.5t-111.5 0.5q-13 2 5 20.5t25 29.5q-15 -6 -31.5 -23.5
t-24.5 -5.5q-12 17 -1.5 41.5t20.5 41.5q17 28 39.5 55.5t51.5 45.5q16 10 35 9t38 1q-14 5 -34 3.5t-13 8.5q29 43 92 67t68 75q1 13 -17 11t-46 -8.5t-83.5 -10.5t-82.5 6q-9 2 -19.5 6.5t-11.5 11.5q-4 20 -6.5 43t12.5 62q16 16 42.5 13.5t48.5 -1.5q100 2 168.5 12.5
t117.5 -9.5q35 -15 37 -65t-3 -84q-6 -36 -41.5 -63t-68.5 -50q-16 -12 -40.5 -11.5t-46.5 -4.5q16 -3 44 -4t20 -12q-30 -38 -73 -52t-82 -43q21 4 44.5 6t45.5 4q43 3 97 11.5t86 -19.5q6 -6 14 -17.5t-4 -34.5z" />
    <glyph glyph-name="braceleft" unicode="{" horiz-adv-x="385" 
d="M40 232q-36 66 0 132q7 0 19 1.5t22.5 7t18.5 16t8 29.5v206q0 34 12.5 59.5t30 41.5t37 24t33.5 8h109q20 0 24.5 -6t6.5 -31v-65q0 -17 -6 -23.5t-30 -6.5q-23 0 -35 -16.5t-12 -35.5v-170q0 -27 -6 -45q-2 -5 -4.5 -4.5t-6.5 2.5q-5 4 -8.5 5.5t-8.5 5.5q7 -9 14 -22
q3 -7 2 -9t-6 -7q-8 -9 -24.5 -14t-33.5 -8t-32.5 -4.5t-22.5 -1.5v-2q9 -1 28.5 -4t40 -9.5t38 -17t24.5 -26.5q3 -8 1 -15.5t-4 -12.5q-7 -19 -20 -37q5 4 7.5 7.5t7.5 6.5q8 6 11 5.5t3 -14.5v-149q0 -19 9 -35.5t38 -16.5q20 0 28 -2t8 -24q0 -9 -1.5 -9t-10.5 -1
q-15 -1 -29.5 -3t-27 -2.5t-23 1.5t-16.5 8q-7 6 -8.5 25.5t0.5 53.5q-14 -35 -17.5 -58t12.5 -38q8 -8 20 -8.5t26.5 2.5t30 7t30.5 7q12 2 13 1t1 -13v-42q0 -27 -11.5 -31.5t-47.5 -4.5h-83q-14 0 -33 8t-36 24.5t-29.5 41.5t-12.5 59v205q0 15 -8 23.5t-18.5 13t-22.5 6
t-19 1.5zM188 491q-6 52 -2.5 101.5t13.5 100.5q-8 -16 -20.5 -30t-13.5 -34q-2 -34 7 -68.5t16 -69.5z" />
    <glyph glyph-name="bar" unicode="|" horiz-adv-x="600" 
d="M296 351q2 17 5.5 42t1.5 54q-1 23 -5 50t-9.5 53t-10.5 48.5t-8 37.5q15 -97 20.5 -167t5.5 -118zM342 3q-8 -3 -19.5 -5t-21.5 -1t-16 4.5t-4 9.5q3 6 6 21t4.5 32.5t0 35.5t-8.5 31q1 -9 0 -30t-4 -43t-7.5 -39.5t-10.5 -18.5q-7 -2 -13 8.5t-6 41.5q-1 61 -0.5 121.5
t2.5 120.5q1 18 10 49t7 73q-1 -5 -2.5 -16.5t-3.5 -25t-5.5 -27t-7.5 -21.5q1 31 0.5 56.5t-0.5 44.5q-2 71 -4 140.5t-4 140.5q0 20 4.5 29t10.5 12t13.5 2.5t13.5 0.5q23 2 35 -10q3 -3 2.5 -9t-2.5 -19t-0.5 -29.5t4.5 -33.5l6 -34t5 -31q2 23 -1 54t-4 56q-1 13 0 26
t6 18q12 13 20.5 6t8.5 -18q1 -46 2 -86t-1 -60v-30.5t-0.5 -56t-0.5 -70.5v-73.5t-0.5 -64.5t-0.5 -44q-1 -11 -3.5 -6.5t-5.5 13.5l-6 18t-4 7q0 -8 2.5 -21.5t5.5 -28.5t6 -28.5t3 -21.5q1 -17 3 -44.5t2.5 -54t-3 -47t-13.5 -24.5z" />
    <glyph glyph-name="braceright" unicode="}" horiz-adv-x="385" 
d="M345 372q38 -66 0 -131q-8 0 -19.5 -1.5t-22 -7t-18.5 -16.5t-8 -30v-204q0 -35 -12.5 -60t-30 -41.5t-36.5 -24.5t-32 -8h-109q-20 0 -25 6t-7 30v66q0 17 6.5 23.5t30.5 6.5q22 0 33.5 16.5t11.5 34.5v172q0 13 2 24t5 20q2 8 10 2q5 -4 8.5 -5.5t8.5 -5.5
q-7 10 -13 21q-3 7 -2 9.5t6 7.5q8 8 24 13t33.5 8t33 4.5t22.5 2.5v2q-9 1 -28.5 4t-40 9.5t-38 16.5t-24.5 26q-3 8 -1 16t4 13q7 18 20 36q-5 -3 -7.5 -7t-7.5 -7q-8 -6 -11.5 -5.5t-3.5 14.5v149q0 20 -8.5 36t-36.5 16q-21 0 -29 2.5t-8 23.5q0 9 1.5 9.5t10.5 0.5
q15 1 29 3t27 2.5t23.5 -1t16.5 -7.5q8 -7 9 -26.5t-1 -52.5q15 35 18 58t-13 37q-8 7 -20.5 8t-26.5 -2t-29.5 -7t-30.5 -7q-11 -2 -12.5 -1t-1.5 13v44q0 26 11.5 30.5t47.5 4.5h83q13 0 32 -8t36.5 -24.5t29.5 -41.5t12 -60v-205q0 -15 8 -23.5t18.5 -13t22 -6t19.5 -1.5
zM197 114q6 -52 3 -102t-12 -101q8 16 20 30.5t12 34.5q2 33 -6.5 68t-16.5 70z" />
    <glyph glyph-name="asciitilde" unicode="~" horiz-adv-x="600" 
d="M478 361h14q11 0 10 -10q-1 -8 -3.5 -17t-4.5 -20q8 11 13.5 21.5t9.5 19.5q2 5 3 5.5t4 0.5q12 0 18.5 -2.5t5.5 -23.5q-2 -39 -12.5 -76.5t-37.5 -68.5q-30 -34 -78 -34q-37 0 -66.5 19.5t-56.5 43.5t-54.5 43.5t-60.5 19.5q-9 0 -16 -9t-11.5 -21t-7 -25.5t-2.5 -22.5
q0 -5 -1.5 -6t-4.5 -1h-24q-7 0 -7.5 1t-0.5 8q-1 11 0 27t3 30q-7 -14 -10.5 -30.5t-5.5 -27.5q-1 -6 -3 -7t-7 -1h-29q-3 0 -5 1.5t-2 7.5q1 34 9.5 64.5t24.5 59.5q10 19 29 34.5t43.5 23t52.5 5t55 -18.5q5 -2 3.5 -5.5t-6.5 -1.5q-13 5 -29 7t-32 0t-29.5 -9.5
t-21.5 -22.5q23 17 57 20.5t68 -3.5q21 -4 37 -17.5t32 -27.5t34 -25.5t42 -11.5q14 0 22 17t11 40q2 16 6.5 21.5t21.5 5.5zM353 217q15 -9 34 -16t37.5 -8.5t35 5.5t27.5 28q-12 -8 -28 -13t-34.5 -6.5t-37 1t-34.5 9.5z" />
    <glyph glyph-name="currency" unicode="&#xa4;" 
d="M381 200q-8 1 -15 6q-7 3 -22 -3q-21 -2 -36 0q-15 3 -38 13q29 -22 49 -25t62 9zM178 469q-24 26 -50 50q-13 12 -17 21t-3 15.5t5.5 11t7.5 8.5q6 7 14.5 8.5t16.5 0.5q3 0 6 -4t10 -12q9 -11 23.5 -22.5t30.5 -22.5q-4 5 -7.5 8.5t-11.5 10.5q-4 4 -10.5 11.5
t-13.5 16t-12.5 15.5t-6.5 10q-6 15 2 20t16 0q4 -2 9.5 -9t8.5 -9q17 -17 32 -31.5t26 -26.5q6 5 13 10t16 9q31 13 47 11q9 -3 7 -16q-1 -7 -3 -11.5t-11 -14.5q10 3 16.5 10.5t8.5 15.5t4 11t10 8q5 0 19.5 1t34.5 -7q14 -5 27.5 -12t24.5 -13q21 23 56 56q2 2 8 9t10 9
q4 3 9 4t8.5 -1.5t4 -8t-5.5 -16.5q-1 -5 -8 -13.5t-15 -16.5q-7 -7 -15.5 -13.5t-16.5 -14.5q14 8 27 15.5t21 17.5q8 8 16 19.5t12 11.5q8 1 11.5 -6t9.5 -15q3 -4 7 -9t5 -12t-3 -16.5t-17 -21.5q-11 -11 -22.5 -22t-22.5 -22q6 -10 11.5 -20.5t4.5 -24.5q0 -10 -8 -26
q-4 -9 -7.5 -18.5t-7.5 -18.5q13 20 17 30q2 5 6.5 9t8.5 4q4 -5 3.5 -12t0.5 -14q2 -6 -0.5 -12t-2.5 -12q-1 -11 -1.5 -21.5t-2.5 -21.5t-6 -20.5t-9 -18.5q-6 -12 -16 -27q12 -11 26 -24t25.5 -26t17.5 -23.5t3 -17.5t-8 -13.5t-11 -11t-11 -5t-8 4.5q-2 5 -10 13.5
t-18.5 16.5t-23 15.5t-24.5 11.5q6 -5 18.5 -16t24.5 -23.5t19.5 -23t4.5 -14.5q-8 -8 -16.5 -6.5t-19.5 12.5q-16 15 -31 30.5t-30 31.5q-3 -3 -4 -5q-5 -3 -26 4q-11 4 -17.5 6t-8.5 3q4 -6 19 -13q8 -4 7.5 -8t-4.5 -6q-15 -8 -31.5 -10.5t-31.5 -2.5t-26 1t-14 1
q-14 2 -30.5 6.5t-30.5 14.5q-5 3 -8 6l-5 5q-16 -17 -31 -33t-32 -31q-11 -11 -21 -13.5t-17 8.5q-5 7 3 18t20.5 22.5t26.5 21t20 14.5q-12 -4 -24.5 -11.5t-23.5 -16t-19 -17t-10 -13.5q-3 -5 -8 -4t-10.5 6t-10.5 12t-8 14t3.5 18t17.5 23t25 25t26 24q-5 7 -11 12.5
t-6 12.5q-2 11 13 20q16 11 19 31q-5 -15 -20 -23q-13 -8 -19 -6q-6 3 -6 13q0 5 -4 15t-4 13q-2 17 0.5 28t2.5 28t6.5 35.5t20.5 32.5q2 2 2.5 3t1.5 2zM388 509q-2 -4 -5 -9.5t-9 -12.5q-12 -13 -26 -15q-12 -6 -25 -9q-12 -1 -21 -14q-13 -18 -17 -39q-2 -10 -4.5 -20
t-4.5 -21q-3 -10 -7 -19t-9 -17q5 4 11 12q5 9 9 5q11 -15 15 -34q4 -18 17 -32q14 -15 27 -26q15 -14 30 -3q18 11 38 17q21 6 23 27q-2 28 10 40q10 12 31 26q-6 0 -12 -4t-10 -3q-18 -9 -20 14q0 25 -3 46q-4 22 -14 29q-5 3 -9 6t-8 8q-9 9 -17 13q-7 3 2 13q8 10 8 22z
M304 527q-5 -1 -9.5 -1.5t-9.5 -0.5q-11 0 -17 -5q-6 -4 -10 -13q-2 -5 -3 -9t-3 -8q20 29 52 37z" />
    <glyph glyph-name="brokenbar" unicode="&#xa6;" horiz-adv-x="600" 
d="M302 538q2 7 5 17t1 22q-1 9 -5 20t-9 21t-10 19t-7 15q14 -38 19.5 -66t5.5 -48zM338 401q-8 -2 -17 -3t-17 -1t-12.5 1t-2.5 4q5 5 2.5 21t-15.5 27l3 -12t2.5 -16t-1 -14.5t-6.5 -7.5q-3 0 -8.5 -1.5t-10.5 -0.5t-8.5 4.5t-3.5 12.5q0 24 1.5 45t3.5 46q0 3 4 9.5
t8 14t7 16.5t2 17q-2 -3 -6 -16t-12 -20q2 13 1.5 23t-1.5 18l-4 56l-4 56q0 8 3.5 12t9.5 5t13 1h13q19 1 32 -4q3 -2 0 -11q-2 -11 4.5 -25.5t9.5 -26.5q2 10 -1 22.5t-4 22.5q0 5 1 10t5 7q11 5 19 2.5t8 -7.5q1 -18 2 -34t0 -24q-1 -4 -1 -22.5v-40.5v-43t-1 -30
q0 -5 -2.5 -3t-5 5.5t-5.5 7.5t-5 3q1 -6 8.5 -20t8.5 -20q1 -7 1.5 -17.5t-0.5 -21t-5 -18.5t-13 -9zM302 89q2 7 5 17t1 22q-1 9 -5 20t-9 21t-10 19t-7 15q14 -38 19.5 -66t5.5 -48zM338 -48q-8 -2 -17 -3t-17 -1t-12.5 1t-2.5 4q5 5 2.5 21t-15.5 27q1 -3 3 -11
t2.5 -16.5t-1 -15t-6.5 -7.5q-3 0 -8.5 -1.5t-10.5 -0.5t-8.5 4.5t-3.5 12.5q0 24 1.5 45t3.5 46q0 3 4 9.5t8 14t7 16.5t2 17q-2 -3 -6 -16t-12 -19q2 12 1.5 22t-1.5 18l-4 56l-4 56q0 8 3.5 12t9.5 5.5t13 1t13 -0.5q22 2 32 -4q3 -1 0 -11q-2 -11 4.5 -25.5t9.5 -25.5
q2 9 -1 21.5t-4 22.5q0 5 1 10.5t5 7.5q11 5 19 2t8 -7q1 -19 2 -35t0 -24q-1 -4 -1 -22.5v-40.5v-43t-1 -30q0 -5 -2.5 -3t-5 5.5t-5.5 7.5t-5 3q1 -6 8.5 -20t8.5 -20q1 -7 1.5 -17.5t-0.5 -21t-5 -18.5t-13 -9z" />
    <glyph glyph-name="section" unicode="&#xa7;" 
d="M230 708q14 3 23.5 11t17 16t14.5 14.5t16 6.5q18 0 43 0.5t52 0t53 -2.5t46 -5q19 -3 38 -7t35.5 -9.5t30.5 -14.5t23 -22q4 -6 12 -29.5t15 -51t9 -52.5t-7 -35t-32.5 -11t-50 0.5t-49 3t-28.5 -2.5q-9 -7 -11.5 -0.5t-4 19t-5 27t-15.5 23.5t-36 12t-50.5 3t-50 -2.5
t-34.5 -3.5q-9 -1 -19 -5t-15 -17t-3.5 -29.5t6.5 -23.5q9 -13 25.5 -17t36.5 -9q4 -1 8 1.5t9 6t12 7t16 5.5q-14 -13 -15.5 -19t24.5 -11q22 -4 41 -7t33 -6q17 -4 40.5 -7t47.5 -6.5t45.5 -9.5t33.5 -16q7 -6 3 -8.5t-13 -4.5t-21 -5.5t-21 -12.5q12 2 27 3.5t30 0.5
t27.5 -4.5t18.5 -10.5q16 -20 21 -44.5t5 -47t-2.5 -39.5t-1.5 -21q3 -18 0.5 -34t-9.5 -31.5t-16.5 -30.5t-19.5 -32q22 -3 30 -13q16 -18 21 -41.5t5 -45t-2.5 -38t-1.5 -20.5q3 -18 0 -34t-10.5 -31t-17.5 -30.5t-21 -32.5q-8 -14 -25.5 -19.5t-38 -8.5t-42.5 -6.5
t-39 -11.5t-46.5 -10t-61.5 -1.5t-61 2t-46 0.5q-6 0 -13.5 -1t-14.5 -0.5t-12 3.5t-7 11q-4 17 -15.5 32t-23.5 24q5 -12 10.5 -23t6.5 -19t-5.5 -12.5t-25.5 -2.5q-16 1 -31 7.5t-28 16t-23.5 20.5t-18.5 22q-5 6 0 15.5t13 16.5q9 7 16 9.5t14 4.5q-8 5 -16 4.5t-16 -3.5
q-14 -8 -22 0q-14 13 -20 33q-6 21 6 34q7 7 4 14t-8.5 13.5t-8.5 12.5t4 11q11 8 36.5 10t53.5 1.5t53.5 -2.5t36.5 -2q7 0 8.5 -4t1.5 -11t-0.5 -16.5t2.5 -19.5q5 -20 22 -28t46 -10q9 -1 13 -1.5t7 -1t7 -1.5t13 -2q9 -2 14.5 3t11.5 12t15 13t24 7q-15 -11 -21 -19.5
t-7 -15.5q16 -2 38 0.5t41 11t29.5 24t3.5 39.5q-7 23 -29 33t-44 18q-23 4 -45.5 8.5t-41.5 7.5q-6 1 -21.5 3t-32.5 4.5t-32 5t-20 3.5q-29 6 -57 10t-52 11t-43 19t-30 34q-16 30 -18 62t0 52q0 4 -0.5 12.5t-0.5 19t0.5 21t3.5 16.5q5 10 7.5 19t6 17t9 14.5t17.5 11.5
q6 2 12 4.5t13 5.5q-17 15 -26 27t-17 33q-5 14 -5 30t5 25q2 4 6.5 12t10 16.5t11 16t9.5 11.5q-5 1 -10.5 -2.5t-10.5 -8t-9 -7t-7 0.5q-5 6 -2 24.5t9 32.5q9 21 15 41.5t22 37.5q10 11 25.5 18.5t33.5 13.5t36 10t33 8t20.5 0.5t4 -10.5t-7.5 -16t-13 -18zM200 263
q5 -22 23 -32t47 -15q9 -2 16.5 -2.5t22.5 -3.5q8 -1 14 2.5t11.5 8.5t13 9.5t18.5 5.5q-31 -31 -18 -34q7 -1 28.5 -5.5t46 -8t47 -4t32.5 7.5q6 4 10.5 17t7.5 27.5t3.5 27.5t-3.5 19q-14 21 -45 35t-69 23t-78.5 14t-74.5 9q-21 3 -33 -7.5t-17.5 -26.5t-5.5 -34.5
t3 -32.5zM636 45q-8 14 -18.5 16t-24.5 7q9 -5 18.5 -16t16.5 -24t11 -26t4 -23q2 29 0 43.5t-7 22.5zM629 335q-8 14 -18.5 16.5t-24.5 7.5q9 -6 18.5 -17.5t16.5 -25t11 -27t4 -23.5q3 30 0.5 45.5t-7.5 23.5z" />
    <glyph glyph-name="copyright" unicode="&#xa9;" horiz-adv-x="800" 
d="M667 106q-6 -12 -18.5 -21t-28.5 -18t-34 -19t-35 -23q-18 -13 -37 -17.5t-39 -5.5t-39.5 -1.5t-37.5 -5.5q-21 -6 -39.5 -3t-36.5 9.5t-35 13t-35 8.5q-23 2 -38.5 12t-28.5 22.5t-26 26t-31 22.5q-20 10 -31 26t-18.5 33t-14.5 34t-19 31q-16 17 -21 34.5t-5 36t1 37.5
t-3 38q-5 21 -1.5 42t10 42t13 41.5t6.5 40.5t10.5 35.5t26 29t32 26t28.5 26.5q19 21 37.5 30t36.5 14t35 10.5t32 20.5q10 10 23.5 13t28.5 3.5t31 1t32 5.5q21 6 40 2t37.5 -10.5t37.5 -13.5t39 -7q19 0 33 -10t27 -23.5t25.5 -27t29.5 -22.5q14 -8 24.5 -20.5
t19.5 -27.5t18.5 -31t22.5 -31q14 -16 17.5 -36t3.5 -41t-0.5 -42.5t6.5 -39.5q7 -21 6.5 -40.5t-6 -39.5t-12.5 -40.5t-12 -41.5q-5 -23 -16.5 -37t-24.5 -24.5l-26 -21t-21 -25.5zM606 167q16 26 35 50.5t33 49.5t20.5 51.5t-1.5 56.5q-8 29 -13 60.5t-12.5 60t-21 51.5
t-40.5 36t-51.5 31t-49.5 32.5t-51 22t-56 1.5t-62 -9.5t-60.5 -11t-51.5 -22t-35 -43.5q-12 -28 -30 -51.5t-33.5 -47t-23.5 -49.5t1 -59q8 -29 13.5 -59t13 -58t21 -51.5t38.5 -40.5t49.5 -36t50 -33.5t52.5 -20.5t57 4q28 9 57.5 13.5t57 11t52 20t41.5 40.5zM512 295
q11 9 22 9t21.5 -2.5t22 -3.5t24.5 6q-2 -15 -8.5 -28.5t-6.5 -27.5q0 -12 -6 -19t-13.5 -12.5l-15 -11t-11.5 -14.5q-4 -10 -10.5 -13.5t-13.5 -5l-14 -3t-11 -7.5q-8 -8 -17 -10t-19 -1t-20 1.5t-20 -3.5q-13 -5 -24 -3t-21 6t-19.5 8t-19.5 3q-12 -1 -21.5 5.5t-17.5 15
t-17 17.5t-20 13t-16 13.5t-9 20.5t-8 21.5t-12 18.5q-9 9 -10.5 20t-0.5 23t1 24.5t-5 23.5q-6 12 -3.5 24t7 23.5t9 22.5t2.5 22q-2 12 3.5 21t14 17.5t16 16.5t10.5 19q3 13 13 19.5t22 11l24 9t20 13.5t17.5 10t20 0t21.5 -2t21 4q12 6 26 2t29 -11.5t29.5 -14.5
t28.5 -7q9 0 14.5 -7.5t11 -17.5t12.5 -19.5t19 -13.5q9 -3 12.5 -10.5t4 -16.5t0.5 -18.5t1 -16.5q-16 8 -28.5 7t-23 -4t-19.5 -5.5t-18 2.5q-2 9 -7 16.5t-10.5 14.5t-10.5 13.5t-6 13.5q-2 8 -9 10.5t-17 3t-20.5 1.5t-19.5 6q-7 4 -13.5 2t-13.5 -5t-14 -6.5t-14 -2.5
q-6 1 -10.5 -4t-9 -11.5t-9.5 -12.5t-12 -7q-6 -2 -8 -7t-3.5 -11.5t-4 -13.5t-8.5 -12t-7 -12.5t0 -16.5t0.5 -18.5t-4.5 -18.5q-3 -6 -1 -11t4.5 -11t4.5 -13t-1 -16q-2 -8 1.5 -14t9.5 -12t11.5 -14t7.5 -20q1 -7 5.5 -9.5t10.5 -5t11.5 -6.5t9.5 -13q3 -7 9.5 -8
t15 -0.5t18 0t17.5 -6.5q7 -5 14.5 -2t15.5 8.5t17 11.5t19 6q17 0 23 16t7 34z" />
    <glyph glyph-name="guillemotleft" unicode="&#xab;" horiz-adv-x="556" 
d="M131 308l15.5 15.5t14.5 23.5q5 11 7 25t3 28.5t1.5 27.5t1.5 21q-8 -51 -19.5 -85t-23.5 -56zM132 243q11 -21 22.5 -55t20.5 -85q-1 8 -1.5 20.5t-1.5 27t-3.5 28.5t-6.5 25q-6 14 -15.5 23.5t-14.5 15.5zM64 310q3 4 7 5t10 4.5t14 11t17 24.5l-6 -6t-9.5 -9t-12 -9.5
t-12.5 -5.5q8 13 14 24.5t11 19.5q15 32 32 63t33 63q4 9 9.5 11.5t11.5 1t12.5 -5t12.5 -6.5q23 -12 31 -22q2 -3 0 -5.5t-7 -7.5t-7 -13t-3.5 -17t-2.5 -18t-3 -16q8 9 12 24.5t9 26.5q3 6 7.5 11.5t9.5 5.5q14 -1 21 -8.5t5 -12.5q-11 -21 -20 -39.5t-14 -26.5
q-2 -3 -8 -13t-14 -24.5t-17 -31.5t-18 -33q9 -16 18 -33t17 -31.5t14 -25t8 -13.5q6 -8 14.5 -26.5t19.5 -39.5q2 -5 -4.5 -12.5t-20.5 -7.5q-6 0 -10.5 5t-6.5 11q-5 11 -9.5 26.5t-12.5 25.5q2 -7 3 -16.5t2.5 -18.5t3.5 -17t7 -13t7 -7.5t0 -5.5q-5 -5 -12.5 -11
t-18.5 -11q-6 -3 -12.5 -6.5t-12.5 -5t-11.5 1t-9.5 11.5q-15 32 -32.5 63t-32.5 63q-5 8 -10.5 20t-14.5 25q6 -2 12.5 -6t12 -9t9.5 -9.5t6 -5.5q-10 16 -19 24t-16 12t-11.5 6t-6.5 6l-15 31zM358 308l15.5 15.5t14.5 23.5q5 11 7 25t3 28.5t1.5 27.5t1.5 21
q-8 -51 -19.5 -85t-23.5 -56zM359 243q11 -21 22.5 -55t20.5 -85q-1 8 -1.5 20.5t-1.5 27t-3.5 28.5t-6.5 25q-6 14 -15.5 23.5t-14.5 15.5zM291 310q3 4 7 5t10 4.5t14 11t17 24.5l-6 -6t-9.5 -9t-12 -9.5t-12.5 -5.5q8 13 14 24.5t11 19.5q15 32 32 63t33 63q4 9 9.5 11.5
t11.5 1t12.5 -5t12.5 -6.5q23 -12 31 -22q2 -3 0 -5.5t-7 -7.5t-7 -13t-3.5 -17t-2.5 -18t-3 -16q8 9 12 24.5t9 26.5q3 6 7.5 11.5t9.5 5.5q14 -1 21 -8.5t5 -12.5q-11 -21 -20 -39.5t-14 -26.5q-2 -3 -8 -13t-14 -24.5t-17 -31.5t-18 -33q9 -16 18 -33t17 -31.5t14 -25
t8 -13.5q6 -8 14.5 -26.5t19.5 -39.5q2 -5 -4.5 -12.5t-20.5 -7.5q-6 0 -10.5 5t-6.5 11q-5 11 -9.5 26.5t-12.5 25.5q2 -7 3 -16.5t2.5 -18.5t3.5 -17t7 -13t7 -7.5t0 -5.5q-5 -5 -12.5 -11t-18.5 -11q-6 -3 -12.5 -6.5t-12.5 -5t-11.5 1t-9.5 11.5q-15 32 -32.5 63
t-32.5 63q-5 8 -10.5 20t-14.5 25q6 -2 12.5 -6t12 -9t9.5 -9.5t6 -5.5q-10 16 -19 24t-16 12t-11.5 6t-6.5 6l-15 31z" />
    <glyph glyph-name="logicalnot" unicode="&#xac;" horiz-adv-x="600" 
d="M509 98l5 27.5t1 36.5q-1 15 -5 33t-9 35t-9.5 32.5t-7.5 25.5q14 -65 19.5 -111.5t5.5 -78.5zM316 279l-27.5 5t-36.5 1q-16 -1 -33.5 -5t-35 -8.5t-32.5 -9.5t-25 -7q64 14 111 19t79 5zM550 326q0 -6 0.5 -14t0.5 -16q1 -7 1.5 -20t-0.5 -26.5t-2 -25.5t-1 -18
q0 -8 -2.5 -5t-5 9t-5.5 12t-4 5q0 -5 2.5 -14t5.5 -19t5.5 -19t2.5 -15q1 -11 2.5 -30.5t2.5 -38t-1 -32.5t-9 -14q-8 0 -19 -0.5t-20.5 -0.5t-15.5 2t-4 6t2.5 14t-1 22t-5 23.5t-9.5 20.5q1 -6 3 -20t2.5 -29t-1 -27t-7.5 -13q-6 -2 -18 0t-12 14q-1 18 -2 31t0 29
q0 6 3 16.5t6.5 23.5t5.5 27.5t1 28.5q-1 -3 -2.5 -11t-3.5 -17t-5 -18t-7 -14q1 8 2 27t3 42q-11 0 -19.5 0.5t-18 0.5h-21t-27.5 1q-6 0 -14 4t-17.5 8.5t-21.5 8t-26 2.5l10.5 -3.5t16 -6t17 -7.5t14.5 -8q-10 0 -23 0.5l-26 1t-24.5 1t-17.5 0.5q-23 -1 -42.5 -1.5
t-38 -0.5h-38t-43.5 -1q-14 0 -20 3.5t-8 9.5t-1.5 12.5t0.5 12.5q-2 21 7 31q2 3 18 0q17 -2 41.5 4.5t44.5 9.5q-16 2 -36.5 -1t-37.5 -4q-8 0 -17 1t-12 5q-9 11 -5 20.5t12 9.5q30 1 57.5 0t40.5 -2h37.5h67.5h71.5t49.5 -1q7 -1 4.5 -3t-8.5 -5l-12 -6t-5 -4
q5 0 14 2.5t19 5.5t19 5.5t15 2.5q11 1 30.5 2.5t38 2.5t32.5 -1t14 -9z" />
    <glyph glyph-name="registered" unicode="&#xae;" horiz-adv-x="800" 
d="M668 105q-6 -12 -18.5 -21t-28.5 -18t-34 -19t-35 -23q-18 -13 -37 -17.5t-39 -5.5t-39.5 -1.5t-37.5 -5.5q-21 -6 -39.5 -2.5t-36.5 9.5t-35 12.5t-35 8.5q-23 2 -38.5 12t-28.5 22.5t-26 26t-31 22.5q-20 10 -31 26t-18.5 33.5t-14.5 34.5t-19 30q-16 17 -21 34.5
t-5 36t1 37.5t-3 38q-5 22 -1.5 43t10 41.5t12.5 41t6 40.5t11 36t26.5 29.5t32 26t28.5 25.5q19 21 37.5 30t36.5 14t34.5 10.5t31.5 20.5q11 10 24.5 13t28.5 3.5t31 1t32 5.5q21 6 40 2.5t37.5 -10.5t37.5 -14t39 -7q19 0 33 -10t27 -23.5t25.5 -27t29.5 -22.5
q14 -7 24.5 -19.5t19.5 -27.5t18.5 -31t22.5 -31q14 -17 17.5 -37t3.5 -41t-0.5 -42t6.5 -40q7 -21 6.5 -40.5t-6 -39.5t-12.5 -40t-12 -42q-5 -23 -16.5 -37t-24.5 -24.5l-26 -21t-21 -25.5zM607 166q16 26 35 50.5t33 49.5t20.5 51.5t-1.5 56.5q-8 29 -13 60.5t-12.5 60
t-21 51.5t-40.5 36q-27 14 -51.5 31.5t-49.5 32t-51 22t-56 1.5t-62 -9t-60.5 -10.5t-51.5 -22.5t-35 -44q-12 -28 -30 -51.5t-33.5 -47t-23.5 -49.5t1 -59q8 -29 13.5 -59t13 -58t21 -51.5t38.5 -40.5t49.5 -36t50 -33.5t52.5 -20.5t57 4q28 9 57.5 13.5t57 11.5t52 20
t41.5 40zM489 340q7 -11 17 -21.5t10 -25.5q0 -8 4.5 -14t10.5 -12t11.5 -13.5t7.5 -19.5q4 -19 16.5 -35t22.5 -33q-13 -4 -25 -3.5t-24 2.5t-24.5 3t-24.5 -2q-3 10 -8 18t-10.5 15.5t-10.5 14.5t-6 16q-2 12 -7 19.5t-11 14t-10.5 12.5t-4.5 15q1 17 -8.5 25t-15.5 19
q-10 0 -19.5 -4t-19.5 4q-8 6 -18.5 3t-20.5 -3q0 -12 -3.5 -24t3.5 -24q4 -8 3.5 -16t-2.5 -17t-3 -18t2 -18q5 -12 2.5 -25t-2.5 -27q-11 4 -21.5 2.5t-21 -3.5t-21.5 -3t-22 4q-2 15 -1.5 29t2 28t2 27.5t-2.5 27.5q-3 12 -1.5 24.5t3 24.5t2 24.5t-3.5 24.5q-3 12 -2 22
t2.5 19t2.5 17.5t-3 17.5q-3 8 -2.5 15.5t2 15t2.5 14.5t-2 14q-8 19 -4 34.5t4 32.5q17 0 32.5 4t32.5 -4q8 -3 17 -2t18.5 3t19 2.5t18.5 -3.5q7 -4 15.5 -3t17.5 2.5t17.5 2.5t17.5 -2q16 -5 31.5 -1t27.5 -3q8 -5 17 -6.5t17.5 -2t15.5 -3t11 -9.5q3 -5 9 -9.5t11.5 -9
t8.5 -10t2 -12.5q-1 -6 1.5 -13t5.5 -14.5t4.5 -16t-2.5 -16.5q-6 -13 -8 -28t-4 -28t-5.5 -21.5t-13.5 -9.5t-19 -6.5t-18 -10.5t-19.5 -8.5t-24.5 0.5zM321 401q14 0 28.5 4t29.5 -4q7 -4 15 -2.5t16 3.5t16.5 3t16.5 -4q9 -6 17 -4.5t15 6t13.5 9.5t13.5 6q5 1 6 5
t1 10.5t0.5 14t5.5 15.5q4 7 1.5 12.5t-8 10.5t-12 9.5t-10.5 9.5q-3 5 -11 5.5t-17 0l-18 -1t-15 2.5t-12.5 2t-13.5 -3t-14 -3t-14 4q-11 8 -24 4t-26 -4q0 -8 2.5 -17.5t-2.5 -15.5q-3 -4 -2 -9t3 -10t2.5 -10.5t-3.5 -10.5q-6 -7 -3 -17.5t3 -20.5z" />
    <glyph glyph-name="degree" unicode="&#xb0;" horiz-adv-x="400" 
d="M217 490q-6 1 -11 4q-4 3 -15 -2q-16 -2 -25 1q-11 1 -27 9q21 -17 34 -18q14 -1 44 6zM222 708q-2 -7 -10 -15q-8 -9 -18 -11q-10 -5 -18 -6q-9 -1 -14 -10q-11 -14 -12 -28q-2 -7 -3.5 -14t-3.5 -15q-5 -14 -11 -25q4 2 7 8q4 7 7 4q8 -12 11 -24q3 -13 12 -22
q4 -5 9 -9.5t10 -9.5q11 -9 20 -2q12 8 28 12q15 4 16 19q-1 21 7 28q7 9 21 18q-5 0 -8 -3q-3 -2 -7 -2q-14 -6 -14 11q0 8 -0.5 16t-1.5 16q-3 16 -10 20q-4 2 -6.5 4.5l-5.5 5.5q-6 6 -12 9q-5 3 1 9q6 7 6 16zM283 471q0 -6 -10 -7q-8 -2 -15.5 -3.5t-15.5 -3.5
q-16 -3 -61 0q-10 2 -21 4.5t-24 7.5q-13 4 -25.5 9.5t-25.5 13.5q-9 9 -15 24q-5 13 -7 28q0 6 11 15q11 8 14 21q-5 -11 -14 -16q-11 -6 -14 -4q-4 1 -4 9v11q-2 12 -3 24t-1 24q0 23 11 53q3 15 19 28q8 7 15 13t13 11q8 4 17 7.5t21 5.5q21 6 33 4q6 -3 5 -11
q-2 -9 -13 -22q13 4 16 16t15 19h37q30 0 40 -5q18 -11 26 -25q5 -7 10 -14.5t11 -15.5q11 -15 11 -40q0 -7 -6 -19q-5 -12 -10 -26q4 7 6.5 12l4.5 9q5 8 9 8q5 -5 7 -15q2 -5 2 -9v-9q0 -8 -0.5 -15t-1.5 -15q-3 -17 -9 -28q-5 -10 -10.5 -18.5t-12.5 -16.5
q-12 -15 -19 -30q-4 -3 -19 3q-8 2 -12.5 3.5t-6.5 2.5q4 -4 14 -9q11 -4 8 -9zM134 698q-3 -1 -6.5 -1h-6.5q-8 0 -13 -4q-5 -3 -6 -9t-5 -11q16 20 37 25z" />
    <glyph glyph-name="plusminus" unicode="&#xb1;" horiz-adv-x="600" 
d="M316 137q-11 2 -27 5t-36 2q-16 -1 -34 -5t-35 -9t-32 -10t-25 -7q64 14 110.5 19t78.5 5zM551 184q0 -7 0.5 -18t0 -21t-2.5 -16t-6 -4t-14 3t-21.5 -0.5t-23.5 -5.5t-21 -10q6 1 19.5 3t27 2.5t24.5 -1t12 -6.5q1 -6 -8 -17.5t-21 -12.5q-40 -2 -80.5 3t-80.5 7
q-12 1 -32.5 9t-48.5 6q3 -1 10.5 -2t16.5 -3t18 -5t14 -7q-20 1 -37 0.5t-30 -0.5q-47 -2 -93 -4t-94 -4q-14 0 -20 3.5t-8 9.5t-1.5 12.5t0.5 12.5q-1 21 6 31q2 3 6.5 2.5t12.5 -2.5q17 -2 41.5 4.5t43.5 9.5q-16 2 -36 -0.5t-37 -3.5q-8 -1 -17 0t-13 5q-8 11 -4 20.5
t11 9.5q31 2 58 0.5t41 -2.5h37.5h67.5h71.5t49.5 -1q7 0 4 -2.5t-9 -5t-12 -5.5t-4 -5q5 0 14 2.5t18.5 5.5t19 5.5t14.5 2.5q12 1 31 3t38 2.5t33 -1.5t14 -9zM315 456q5 21 1.5 31.5t-11 18t-17 16.5t-15.5 29q7 -23 14.5 -36.5t13.5 -22.5t10 -17t4 -19zM316 432
l-27.5 5t-35.5 1q-16 -1 -34 -5t-35 -9t-32 -9.5l-25 -7.5q64 14 110.5 19.5t78.5 5.5zM551 479q0 -8 0.5 -19t0 -20.5t-2.5 -15.5t-6 -4t-14 2.5t-21.5 -1t-23.5 -5t-21 -9.5q6 1 19.5 3t27 2.5t24.5 -1t12 -6.5q1 -7 -8 -18.5t-21 -11.5q-40 -3 -80.5 2.5t-80.5 7.5h-4
v-12.5t-1 -9.5q0 -5 -2.5 -3t-5 6.5t-5.5 8.5t-4 3q0 -3 2.5 -9.5t5.5 -13.5t5.5 -13.5t2.5 -10.5q1 -8 2.5 -22t2.5 -27.5t-1 -23.5t-9 -10h-19h-21t-16 1.5t-4 4.5q5 6 2.5 25t-15.5 32q1 -5 3 -14.5t2.5 -19t-1 -17t-6.5 -8.5q-6 -1 -17.5 5.5t-12.5 14.5q-2 28 3 55
t7 55q-43 -2 -85 -4t-85 -3q-14 0 -20 3.5t-8 9.5t-1.5 12.5t0.5 12.5q-2 20 6 31q3 3 19 0q17 -2 41.5 4.5t43.5 9.5q-16 2 -36 -1t-37 -4q-8 0 -17 0.5t-13 5.5q-8 11 -4 20.5t11 9.5q31 1 58 0t41 -2q5 -1 28.5 -1h53.5q-2 25 -3 49.5t-3 48.5q0 10 3.5 14.5t9.5 6
t12.5 1t12.5 -0.5q21 1 32 -4q2 -2 1.5 -5l-1.5 -9q-3 -12 4 -29.5t10 -31.5q2 11 -1 26t-4 27q-1 6 0 12.5t6 8.5q10 6 19.5 3t10.5 -8q1 -22 0 -41.5t-3 -29.5v-38h22t16 -1q7 0 4 -2.5t-9 -5t-12 -5.5t-4 -4q5 0 14 2.5t18.5 5.5t19 5.5t14.5 2.5q12 1 31 2.5t38 2.5
t33 -1t14 -9z" />
    <glyph glyph-name="mu" unicode="&#xb5;" horiz-adv-x="614" 
d="M141 125q3 16 7 41t2 54q-1 24 -7 50.5t-13.5 52.5t-14.5 48.5t-11 37.5q21 -97 29 -166.5t8 -117.5zM472 244q0 34 8 83t28 116q-3 -11 -10 -26.5t-14.5 -33.5t-14 -37t-7.5 -35q-2 -20 2.5 -38t7.5 -29zM223 196q11 -55 35 -68q6 -4 18 -4.5t26 1t28 6t25 10.5
q11 7 19.5 19.5t15.5 27.5q2 13 2.5 22.5t0.5 14.5q1 6 4.5 15.5t8 20t8 20t3.5 14.5q-2 1 -6 -5t-8.5 -12t-7.5 -9.5t-4 4.5q-1 16 -1 36v38.5v34t-1 22.5q-2 14 -0.5 42t2.5 60q1 8 12.5 13t27.5 -4q6 -4 4 -17t-3 -21q-1 -17 -2 -35t3 -35q2 10 6 22t7.5 24t6 23.5
t0.5 20.5t-3 13t3 6q16 9 47 7q9 0 19 0.5t19 -2t14.5 -9t4.5 -20.5q-2 -49 -5.5 -98t-5.5 -98q-1 -14 -1.5 -32t1.5 -39q-6 6 -10.5 15t-7.5 19t-5 18t-3 11q-2 -15 1 -27.5t7.5 -23t9 -19.5t4.5 -15q3 -43 11 -85t4 -85v-14.5t-8 -12.5q-7 -4 -19.5 -4t-17.5 1
q-8 1 -10 12.5t-1 26t3.5 28.5t4.5 20q-9 -9 -14.5 -21.5t-7.5 -25t-1 -23t4 -14.5q3 -5 -6 -6.5t-24 -2t-31.5 0t-27.5 0.5q-9 1 -12.5 27t-2.5 62q-9 -21 -23 -39t-33.5 -30.5t-46 -19t-61.5 -4.5v-17t-1 -13q0 -11 -3.5 -6.5t-7.5 13.5l-8 18t-7 7q0 -8 5 -21.5
t10.5 -28.5t10.5 -29t5 -22q1 -17 1.5 -39t0 -41.5t-3 -32.5t-8.5 -12q-11 3 -28.5 3t-33 0.5t-25 3t-6.5 8.5t4 21t-1.5 32.5t-8 35.5t-14.5 31q2 -9 5 -29t3.5 -40.5t-1.5 -37t-10 -17.5q-5 -1 -17 -1t-19 5q-8 6 -8 17.5t-1 21.5q0 30 -1 55t-1.5 48.5t-0.5 48.5t2 55
q0 9 7 27t14.5 39.5t13 45t4.5 44.5q-2 -4 -4.5 -14t-6.5 -22t-9.5 -24t-11.5 -20q2 30 4.5 51t1.5 40q-2 71 -6 140.5t-6 140.5q0 20 5.5 29.5t14.5 12.5t19 2.5t18 -0.5q16 1 27.5 -1t19.5 -9q4 -3 -4 -9.5t-10 -19.5t2.5 -29t11 -33l13 -34t8.5 -31q3 24 -1.5 54.5
t-5.5 56.5q-1 12 0.5 25.5t8.5 18.5q7 6 14.5 7t12.5 -2t8.5 -8t3.5 -10q2 -45 3 -85.5t-1 -60.5v-157z" />
    <glyph glyph-name="mu" unicode="&#x3bc;" horiz-adv-x="614" 
d="M141 125q3 16 7 41t2 54q-1 24 -7 50.5t-13.5 52.5t-14.5 48.5t-11 37.5q21 -97 29 -166.5t8 -117.5zM472 244q0 34 8 83t28 116q-3 -11 -10 -26.5t-14.5 -33.5t-14 -37t-7.5 -35q-2 -20 2.5 -38t7.5 -29zM223 196q11 -55 35 -68q6 -4 18 -4.5t26 1t28 6t25 10.5
q11 7 19.5 19.5t15.5 27.5q2 13 2.5 22.5t0.5 14.5q1 6 4.5 15.5t8 20t8 20t3.5 14.5q-2 1 -6 -5t-8.5 -12t-7.5 -9.5t-4 4.5q-1 16 -1 36v38.5v34t-1 22.5q-2 14 -0.5 42t2.5 60q1 8 12.5 13t27.5 -4q6 -4 4 -17t-3 -21q-1 -17 -2 -35t3 -35q2 10 6 22t7.5 24t6 23.5
t0.5 20.5t-3 13t3 6q16 9 47 7q9 0 19 0.5t19 -2t14.5 -9t4.5 -20.5q-2 -49 -5.5 -98t-5.5 -98q-1 -14 -1.5 -32t1.5 -39q-6 6 -10.5 15t-7.5 19t-5 18t-3 11q-2 -15 1 -27.5t7.5 -23t9 -19.5t4.5 -15q3 -43 11 -85t4 -85v-14.5t-8 -12.5q-7 -4 -19.5 -4t-17.5 1
q-8 1 -10 12.5t-1 26t3.5 28.5t4.5 20q-9 -9 -14.5 -21.5t-7.5 -25t-1 -23t4 -14.5q3 -5 -6 -6.5t-24 -2t-31.5 0t-27.5 0.5q-9 1 -12.5 27t-2.5 62q-9 -21 -23 -39t-33.5 -30.5t-46 -19t-61.5 -4.5v-17t-1 -13q0 -11 -3.5 -6.5t-7.5 13.5l-8 18t-7 7q0 -8 5 -21.5
t10.5 -28.5t10.5 -29t5 -22q1 -17 1.5 -39t0 -41.5t-3 -32.5t-8.5 -12q-11 3 -28.5 3t-33 0.5t-25 3t-6.5 8.5t4 21t-1.5 32.5t-8 35.5t-14.5 31q2 -9 5 -29t3.5 -40.5t-1.5 -37t-10 -17.5q-5 -1 -17 -1t-19 5q-8 6 -8 17.5t-1 21.5q0 30 -1 55t-1.5 48.5t-0.5 48.5t2 55
q0 9 7 27t14.5 39.5t13 45t4.5 44.5q-2 -4 -4.5 -14t-6.5 -22t-9.5 -24t-11.5 -20q2 30 4.5 51t1.5 40q-2 71 -6 140.5t-6 140.5q0 20 5.5 29.5t14.5 12.5t19 2.5t18 -0.5q16 1 27.5 -1t19.5 -9q4 -3 -4 -9.5t-10 -19.5t2.5 -29t11 -33l13 -34t8.5 -31q3 24 -1.5 54.5
t-5.5 56.5q-1 12 0.5 25.5t8.5 18.5q7 6 14.5 7t12.5 -2t8.5 -8t3.5 -10q2 -45 3 -85.5t-1 -60.5v-157z" />
    <glyph glyph-name="paragraph" unicode="&#xb6;" 
d="M654 288q0 -63 -5.5 -153.5t-20.5 -215.5q3 19 8 48.5t10 63t9.5 68.5t5.5 65q1 38 -2 70.5t-5 53.5zM186 516q-2 -11 -1.5 -17.5l1 -13t0.5 -13.5t-1 -17q-1 -3 -19.5 8t-36.5 38q7 -14 16.5 -27t17.5 -22q10 -11 20 -20q10 -10 -2.5 -10t-35.5 16q3 -8 10 -14t14.5 -11
t13 -9t4.5 -6q-2 -4 0.5 -14t6.5 -21.5t8.5 -22.5t7.5 -17q-1 9 1 18t4 11q7 -8 20 -10.5t26.5 -3t27 0t22.5 0.5q40 -13 87 1q5 -5 8 -7q-2 69 -3.5 137t-3.5 137q-9 -1 -17 -2t-10 -2q-3 -2 -9.5 -0.5t-13 5t-12.5 7.5t-8 7q-2 -5 6 -13q7 -5 -3.5 -6t-30.5 1q-14 1 -31 3
t-22 0q-3 -2 -14.5 -8t-25.5 -14q-5 -2 -11 -12t-10.5 -21.5t-5.5 -22t5 -13.5zM412 746q6 4 13 3t13 0q23 2 34 -13q2 -4 -3.5 -12t-6.5 -25q-2 -17 1.5 -38t8 -43l9 -44t6.5 -40q2 31 -1 71t-4 72q-1 16 0 33t6 24q8 13 16 9l92 1q5 5 13 5t11 -1q6 -2 8 -25.5t2.5 -52.5
t-1 -57t-2.5 -39q7 16 10.5 39.5t5 46.5t1 42t-2.5 27t5 11t18 3.5t23 1t20 3.5q4 1 6 -15.5t3 -42t0.5 -54t-1.5 -50.5q0 -11 -3.5 -29t-8 -37.5t-8 -37t-3.5 -27.5q2 -3 5 8.5t6 23.5t5.5 17.5t2.5 -8.5q1 -20 1 -62.5v-95.5v-110.5v-107v-85t1 -43.5q1 -26 0 -78t-2 -112
q0 -6 -2.5 -12.5t-6 -10t-8.5 -2.5t-11 9q-5 7 -6 24t0 33q0 16 1.5 35t2.5 38t1.5 37.5t-0.5 33.5q-2 -19 -6.5 -40.5t-9 -43.5t-7.5 -43t-2 -38q2 -17 7 -25t3 -12q-11 -16 -33 -13q-6 0 -13.5 -1t-13.5 3t-10 16t-4 39q2 91 4 181.5t4 181.5q1 25 -0.5 52.5t-3.5 66.5
q4 -11 8 -26t7 -30.5t5 -28.5t3 -19q1 27 -3 57.5t-9.5 59t-10.5 51t-5 34.5q0 23 -0.5 50t-1 53.5t-0.5 51v42.5q-17 0 -35.5 0.5t-37.5 1.5v-17.5v-24.5v-23.5v-14.5v-43.5v-85v-107v-110.5v-95.5t-1 -62.5q0 -14 -2.5 -8.5t-5.5 17.5t-6 23.5t-5 8.5q0 -10 3.5 -27.5
t8 -37t8 -37.5t3.5 -28q1 -22 1.5 -51t-0.5 -54.5t-3 -42.5t-6 -15q-8 3 -20 3.5t-23.5 1.5t-18.5 3.5t-4 10.5q2 8 2.5 27t-1 42t-5 46.5t-10.5 40.5q1 -12 2.5 -40t1 -57t-2.5 -52.5t-8 -25.5q-3 -1 -12 -1t-14 7q-3 4 -3.5 12t0 17.5t1.5 19t1 15.5q0 39 -1 71.5t-1 63
v63t1 71.5q0 11 5 33.5t10 51.5q-27 -1 -58.5 -1t-61.5 0.5t-57 2t-46 4.5q-32 2 -54.5 8t-39 15t-29 20t-22.5 25q-8 10 -7.5 27t4 35t8 33.5t6.5 20.5q-2 -2 -7 -9.5t-9.5 -17t-7.5 -18.5t-2 -13q1 -8 -4 -4t-10 21q-9 10 -11.5 24t-1 30.5t4 35t2.5 38.5q0 21 -3 43.5
t-3.5 45t3 45t15.5 42.5q17 22 40 43.5t55 31.5q-2 -4 -7 -11t-7 -11q35 25 75.5 32t87.5 12q-2 -5 -4 -9t-5 -8q19 13 33.5 17t40.5 3zM220 676q-14 7 -36 7t-39 -8q-19 -8 -27 -19t-10 -22q-2 -12 -3 -25t-6 -23q8 11 13 24.5t10 25.5q11 26 38.5 33t59.5 7zM371 287
q-26 -5 -46.5 -10.5t-48.5 -6.5q-28 -2 -54.5 2t-52.5 6q23 -8 46.5 -14t49.5 -4q17 1 30 3.5t24.5 5.5t24 7.5t27.5 10.5zM459 232q2 21 5 53.5t2 70.5q-1 30 -5.5 65t-10 68.5t-10.5 62.5t-7 49q14 -125 20 -215.5t6 -153.5z" />
    <glyph glyph-name="periodcentered" unicode="&#xb7;" horiz-adv-x="360" 
d="M227 363q14 0 23 -9t9 -23v-100q0 -14 -9 -23t-23 -9h-98q-14 0 -23 9t-9 23v100q0 14 9 23t23 9h52q13 0 27.5 -15.5t18.5 -40.5q0 43 -24 56h24zM172 215q-8 5 -15.5 7.5t-14.5 11.5q-8 9 -13 23t-14 36q3 -14 3.5 -23.5t0.5 -16.5t1.5 -13.5t8.5 -14.5t19.5 -8
t23.5 -2z" />
    <glyph glyph-name="periodcentered" unicode="&#x2219;" horiz-adv-x="360" 
d="M227 363q14 0 23 -9t9 -23v-100q0 -14 -9 -23t-23 -9h-98q-14 0 -23 9t-9 23v100q0 14 9 23t23 9h52q13 0 27.5 -15.5t18.5 -40.5q0 43 -24 56h24zM172 215q-8 5 -15.5 7.5t-14.5 11.5q-8 9 -13 23t-14 36q3 -14 3.5 -23.5t0.5 -16.5t1.5 -13.5t8.5 -14.5t19.5 -8
t23.5 -2z" />
    <glyph glyph-name="guillemotright" unicode="&#xbb;" horiz-adv-x="556" 
d="M191 308q-11 22 -23 56t-20 85q1 -8 1.5 -21t1.5 -27.5t3 -28.5t7 -25q6 -14 15 -23.5t15 -15.5zM191 243l-15.5 -15.5t-14.5 -23.5q-5 -11 -7 -25t-3 -28.5t-1.5 -27t-1.5 -20.5q8 51 19.5 85t23.5 55zM278 276l-15 -31q-2 -4 -6.5 -6t-11.5 -6t-16 -12t-19 -24
q2 1 6 5.5t9.5 9.5t12 9t12.5 6q-8 -13 -14 -25l-10 -20q-16 -32 -33 -63t-33 -63q-5 -9 -10 -11.5t-11 -1t-12.5 5t-12.5 6.5q-21 11 -31 22q-2 3 0 5.5t7 7.5q4 5 6.5 13t4 17t2.5 18.5t3 16.5q-8 -10 -12 -25.5t-9 -26.5q-3 -6 -7.5 -11t-9.5 -5q-14 0 -20.5 7.5
t-4.5 12.5q10 21 19 39.5t14 26.5q2 3 8 13.5t14 25t17 31.5t18 33q-9 16 -18 33t-17 31.5t-13.5 24.5t-7.5 13q-6 8 -15 26.5t-19 39.5q-2 5 4.5 12.5t20.5 8.5q6 0 10.5 -5.5t6.5 -11.5q5 -11 9.5 -26.5t12.5 -24.5q-2 7 -3 16t-2.5 18t-4.5 17t-7 13l-6 7.5t0 5.5
q7 11 31 22q6 3 12 6.5t12 5t11 -1t10 -11.5q16 -32 33 -63t33 -63q4 -8 10 -19.5t14 -24.5q-6 1 -12.5 5.5t-12 9.5t-9.5 9l-6 6q10 -17 17.5 -24.5t13.5 -11t10 -4.5t7 -5zM417 308q-11 22 -23 56t-20 85q1 -8 1.5 -21t1.5 -27.5t3 -28.5t7 -25q6 -14 15 -23.5t15 -15.5z
M417 243l-15.5 -15.5t-14.5 -23.5q-5 -11 -7 -25t-3 -28.5t-1.5 -27t-1.5 -20.5q8 51 19.5 85t23.5 55zM504 276l-15 -31q-2 -4 -6.5 -6t-11.5 -6t-16 -12t-19 -24q2 1 6 5.5t9.5 9.5t12 9t12.5 6q-8 -13 -14 -25l-10 -20q-16 -32 -33 -63t-33 -63q-5 -9 -10 -11.5t-11 -1
t-12.5 5t-12.5 6.5q-21 11 -31 22q-2 3 0 5.5t7 7.5q4 5 6.5 13t4 17t2.5 18.5t3 16.5q-8 -10 -12 -25.5t-9 -26.5q-3 -6 -7.5 -11t-9.5 -5q-14 0 -20.5 7.5t-4.5 12.5q10 21 19 39.5t14 26.5q2 3 8 13.5t14 25t17 31.5t18 33q-9 16 -18 33t-17 31.5t-13.5 24.5t-7.5 13
q-6 8 -15 26.5t-19 39.5q-2 5 4.5 12.5t20.5 8.5q6 0 10.5 -5.5t6.5 -11.5q5 -11 9.5 -26.5t12.5 -24.5q-2 7 -3 16t-2.5 18t-4.5 17t-7 13l-6 7.5t0 5.5q7 11 31 22q6 3 12 6.5t12 5t11 -1t10 -11.5q16 -32 33 -63t33 -63q4 -8 10 -19.5t14 -24.5q-6 1 -12.5 5.5t-12 9.5
t-9.5 9l-6 6q10 -17 17.5 -24.5t13.5 -11t10 -4.5t7 -5z" />
    <glyph glyph-name="afii10023" unicode="&#x401;" horiz-adv-x="679" 
d="M279 967v-144h-122v144h122zM515 967v-144h-122v144h122zM62 647q-20 46 52 67t112 14q16 -4 27.5 -21.5t-24.5 -47.5l83 63q45 16 105 20t114 -7q24 0 26 -40.5t2 -67.5q0 -10 -14 -21t-22 -17l42 9q5 0 5 -15t-6 -15q-39 -7 -68 -12.5t-38 -12.5q-34 -26 -58.5 -14.5
t-70.5 4.5q2 28 -23 55q18 0 -8.5 -58t-22.5 -72q1 -17 51.5 4.5t84.5 5.5q4 -3 -2 -21.5t-6 -25.5q53 51 99 62q20 3 44 -19.5t21 -44.5q-6 -44 -16 -78t-33 -46q-36 -18 -87.5 -13.5t-91.5 2.5q-28 -3 -27.5 25t0.5 40q-2 8 -10.5 -10t-8.5 -25q-1 -30 0.5 -58t8.5 -54
q2 -6 10.5 2.5t15.5 11.5q32 2 84.5 17.5t54.5 -20.5q0 -32 -49 -66t-15 -6q-1 -12 57 36t87 46q17 -5 41 -10.5t30 -27.5q6 -34 -3 -79.5t-21 -77.5q-6 -11 -18 -26.5t-21 -9.5q-80 37 -184.5 38.5t-229.5 -23.5q-21 -3 2 20t38 42q-52 -23 -83 -51q-4 -3 -11.5 1.5
t-7.5 8.5q4 87 14.5 157.5t5.5 136.5q0 6 10 1.5t28 -33.5q-14 40 -21.5 48.5t-10.5 18.5q-20 57 -13 131.5t-30 158.5zM198 440q-12 12 -26.5 -12.5t-2.5 -48.5q42 -40 39 -76.5t-20 -70.5q10 19 31.5 40.5t12.5 36.5q-20 33 -37.5 72.5t3.5 58.5z" />
    <glyph glyph-name="afii10051" unicode="&#x402;" horiz-adv-x="874" 
d="M242 480q0 9 0.5 27t1.5 36.5t0 32.5t-4 15q-16 4 -47 8t-71 2q-11 0 -23.5 -2.5t-25 -4.5t-23.5 -2.5t-18 3.5q-8 4 -12.5 12t-7 18.5t-2.5 22v21.5q0 5 15 10.5t50 3.5q-30 12 -47.5 9.5t-17.5 -1.5q1 2 0.5 7t-1.5 11.5t-0.5 13.5t3.5 13q2 3 5.5 5t7.5 4q1 1 19 1.5
t44.5 1t57.5 0.5t58 0.5t45.5 0.5h20.5q7 0 7.5 -10t0.5 -25.5t3.5 -33.5t16.5 -32q-15 41 -9 68t16 33q3 2 27.5 2.5t60.5 0t78 -1.5t80.5 -1.5t67 -0.5t37.5 1q13 2 18 -7.5t6 -22.5t-0.5 -25.5t-0.5 -17.5q1 -4 0.5 -18t-3 -29t-7 -27t-12.5 -11q-26 3 -61 3.5t-68 0.5
h-58.5t-30.5 1q-4 1 -5.5 -2.5t-1.5 -9t0.5 -11t-0.5 -9.5q-5 -23 -2.5 -51t4.5 -57q8 5 19.5 0.5t22.5 -2.5q30 3 46 3h40.5t58 -2t57.5 -6t39 -11q68 -23 91 -78q12 -28 18.5 -58t3.5 -59q-3 -21 -6 -44.5t-8 -47t-12.5 -45t-19.5 -37.5q-11 -17 -49 -34q-37 -17 -55 -17
q-9 0 -10.5 11.5t-4.5 18.5q-3 -11 -3.5 -23t-10.5 -17q-17 -9 -50 -11t-71 0q-12 1 -15.5 8.5t-2.5 13.5q0 16 -0.5 38.5t-1 43.5t0 36t3.5 16q17 5 35.5 5t27.5 -4q4 -2 11 0t14.5 3.5t14 2t10.5 -2.5q1 5 0 7.5t-2 5.5t1 9t9 20q3 7 2 17.5t-1 16.5q2 22 -2.5 36.5
t-19.5 26.5q-5 4 -18 6.5t-29 4t-31 1.5t-24 -2q-17 -4 -35.5 -4t-29.5 4q-2 1 -4.5 1.5t-5.5 2.5q-2 -13 -1.5 -28.5t2.5 -26.5q3 -22 -2.5 -38.5t-0.5 -36.5q4 -12 7 -26t4.5 -34.5t1 -48.5t-3.5 -68q0 -2 -8 -3t-18 -1t-20 1t-14 2q-4 0 -4 3.5t2 8t4.5 10.5t4.5 11
q8 20 9 31q-3 -6 -9 -15.5t-12.5 -18.5t-12.5 -17t-9 -11t-7 -3t-7.5 1.5t-7.5 2.5t-8 0q-22 -10 -36 -4t-31 22q-15 16 -14.5 40t0.5 46q-2 53 -2.5 104.5t9.5 101.5q0 5 3.5 6.5t8.5 2t10.5 0t9.5 -0.5q-9 6 -21 10.5t-14 13.5q-8 32 -7.5 66t-0.5 67zM745 228
q12 27 14.5 54.5t-6 51t-28 40.5t-51.5 24q15 -15 28.5 -33t23.5 -39t15.5 -45.5t3.5 -52.5zM365 600q5 -38 3.5 -74.5t-7.5 -74.5q6 12 14.5 22.5t8.5 25.5q1 25 -6.5 50t-12.5 51z" />
    <glyph glyph-name="afii10052" unicode="&#x403;" horiz-adv-x="632" 
d="M188 282q0 -35 3 -70.5t16 -77.5q-10 24 -21 48t-14 49q-2 14 5 26t11 25zM598 705q0 11 -2 20.5t-4 20.5q-5 -23 -22.5 -34.5t-61.5 -3.5q5 -2 16.5 -0.5t23.5 6t20 10.5t7 13q-10 9 -43 13.5t-77.5 5.5t-95 -0.5t-95.5 -4t-78.5 -5t-44.5 -3.5q-11 -2 -20 -0.5t-16.5 4
t-13 4t-7.5 -1.5q-5 -2 -3 -4.5t2.5 -4t-3.5 -0.5t-20 6q-4 1 -5.5 -10.5t-2 -26.5t-0.5 -28.5t-1 -16.5q0 -23 6.5 -24.5t21.5 4.5q-5 -4 -12 -16t-9 -33q-1 -11 2 -22.5t4 -26.5q2 -29 -2 -56.5t-5 -56.5q-2 -37 -1.5 -73t4.5 -72q1 -6 6 -12t11.5 -11t12.5 -10t9 -10
q-7 -3 -18 -3t-11 -7q-5 -36 -8.5 -61.5t-5.5 -41.5t-1 -46t3 -66q0 -4 4.5 -9t12 -8t17 -3.5t20.5 4.5q8 5 11.5 16t2.5 21t0.5 18.5t3.5 16.5q2 12 3.5 27.5t5.5 30.5q5 -20 6.5 -39t7.5 -39q2 -12 -8 -29q-10 -18 0 -22q11 -5 23.5 -7t33.5 -1q43 1 69 6q5 0 7.5 11
t2.5 18q-2 38 -4 66.5t-4 45.5q-1 9 -2 27.5t-2 41t-2 46t-2 42.5q-1 15 -1 35.5t2 44.5q-17 -13 -26 -19.5t-13 -13.5q1 8 6 14.5t11 13t11 13t5 13.5q2 24 3.5 41.5t1.5 34t-1 34t-4 41.5q-1 14 -10.5 24t-22.5 10q-10 -1 -10 -14.5t-3 -23.5q-2 7 -2 15.5t-0.5 16
t-2.5 13.5t-8 9q-1 0 -1.5 0.5t-1.5 0.5q7 4 18 5t33 -1.5t57.5 -8t90.5 -14.5q-3 1 -10.5 5t-16 7.5t-15.5 7t-10 5.5q10 -4 31 -8.5t47.5 -8.5t54.5 -6.5t52.5 -3t41.5 2t20 8.5q6 9 7.5 24t1.5 31t-1 31t-2 25zM367 850q7 3 11 6t8 7t10 8.5t17 10.5t16.5 12t10 13
t10.5 15t18 16q-13 -6 -21 -14t-14.5 -15.5t-13 -14.5t-16.5 -12t-15 -9t-7.5 -7.5l-5 -7t-8.5 -8.5zM433 966q-15 -3 -25 -15.5t-21 -24.5q16 14 35.5 27t31.5 13h51q13 0 18 -4.5t-1 -12.5q-8 -9 -30.5 -33t-49 -49.5t-52 -45t-38.5 -19.5h-58q-9 0 -9 9.5t6.5 23.5
t17 31.5t21 34t20.5 29.5t15 19q5 8 18.5 12.5t25.5 4.5h24z" />
    <glyph glyph-name="afii10053" unicode="&#x404;" horiz-adv-x="739" 
d="M312 730q10 9 18.5 15t17.5 9t19.5 3.5t24.5 0.5q62 -2 120 -24.5t102.5 -57t70 -76.5t22.5 -82q-2 -19 -6 -25t-10 -5.5t-13 4t-13 2.5q-12 -2 -22.5 7t-20.5 21.5t-20 24.5t-22 18q17 -17 29.5 -33.5t22.5 -35.5q5 -9 -2.5 -7.5t-20 7t-25 10.5t-18.5 3q-23 -9 -38 -19
q-14 -8 -27 6q-11 12 -22 27.5t-20.5 29.5t-16.5 22.5t-10 5.5t-9.5 -0.5t-14 7.5t-14 10.5t-8.5 10.5q-2 -5 -0.5 -15t8.5 -18q16 -18 -27 -13q-8 0 -19 2t-21.5 4.5t-19 3.5t-10.5 0q-4 -2 -13.5 -18.5t-24.5 -28.5q-10 -6 -8.5 -28.5t-0.5 -55.5q4 0 7.5 -0.5t7.5 -0.5
q26 4 50.5 6.5t47.5 1.5q24 0 40.5 -3.5t39.5 -15.5q15 -7 1 -21q-5 -6 -4.5 -15t-4.5 -15q-4 -5 -13.5 -2.5t-38.5 4.5q28 -8 39 -13.5t15 -14.5q3 -14 1 -31q-4 -16 -14 -20q-20 -6 -48 6q-16 5 -29 6.5t-25 1.5q-11 3 -19 -7q-2 -1 -6 -5q-7 1 -13 1h-13q-3 3 -8.5 8
t-12.5 13q-3 3 -5.5 6t-4.5 6q0 -8 1 -13q0 -1 0.5 -1.5t0.5 -1.5q7 -11 14 -17h-7q4 -10 6 -19.5t-1 -16.5q-5 -11 -1.5 -27.5t9.5 -33.5q-1 13 1.5 19.5t5.5 9.5q8 -11 20.5 -20t27 -15.5t28 -10.5t22.5 -5q43 -19 98 2q13 -20 18.5 -18t8 14t3 29.5t5.5 29.5q-8 40 42 39
q12 -3 23 -5t18.5 -3.5t9.5 -4t-4 -6.5q8 -3 4 -19q-3 -12 -1 -24q10 14 11 32q3 19 22 19q26 15 49 4q33 1 33 -10q1 -16 4.5 -43.5t-4.5 -61t-34.5 -68.5t-85.5 -66q-33 -15 -75.5 -23t-87.5 -10t-90 2t-83 12q-24 6 -48.5 12.5t-47 16t-41.5 23t-30 32.5q-8 13 -8 37.5
t3.5 49.5t9 46t7.5 28q-3 -2 -8 -12.5t-9.5 -23.5t-8 -25.5t-2.5 -18.5q1 -11 -4.5 -6t-10.5 30q-10 14 -12.5 33.5t-1 42.5t4.5 48.5t3 52.5q0 29 -3 60.5t-4.5 63.5t2 62.5t17.5 58.5q18 31 43 61t59 44q-2 -5 -7 -15t-8 -15q38 34 81.5 44t94.5 16q-2 -6 -4.5 -12
t-5.5 -11zM273 656q-15 10 -39 10t-42 -11q-20 -11 -28.5 -26t-10.5 -31q-2 -17 -3.5 -35t-6.5 -32q8 15 14 34t12 36q11 35 40 45t64 10zM553 118q-27 -7 -55.5 -16t-57.5 -10q-30 -2 -59 2.5t-56 7.5q24 -11 49.5 -19t53.5 -6q36 3 64 14t61 27z" />
    <glyph glyph-name="afii10054" unicode="&#x405;" horiz-adv-x="733" 
d="M316 701q16 14 29 37.5t34 21.5q69 -7 144 -20.5t110 -66.5q15 -23 -19.5 -62t-58.5 -56q-36 -26 -82.5 10.5t-90.5 32.5q-17 -1 -27 -25.5t3 -34.5q47 -40 114 -56t116 -53q11 -8 -1.5 -21t-15.5 -25q14 -2 33.5 1.5t28.5 -5.5q44 -42 56.5 -116.5t-28.5 -144.5
q-33 -54 -100 -87.5t-132 -37.5q-24 -1 -31 32.5t-19 56.5q-21 -21 -38.5 -53t-45.5 -30q-56 2 -108 31t-92 65q-12 9 5 23t26 24q-14 -2 -28 -9t-22 0q-13 12 -19 33.5t6 34.5q28 30 69 64t81 20q20 -7 29.5 -49t52.5 -53q35 -9 70 -16t75 -7q10 0 14 16t12 10
q-3 -14 1 -23t-6 -21q15 20 35 39.5t6 40.5q-22 30 -55 52.5t-62 45.5q-25 21 -54.5 37t-51.5 40q-10 10 -10.5 26t-4.5 30q-6 -16 -19.5 -33t-38.5 -6q-27 13 -41.5 41t-33.5 51t-11 40.5t24 28.5q-13 3 -23 15.5t1 38.5q19 40 49 72.5t86 52.5q9 3 23 6.5t21 -3.5
q10 -10 11 -26t4 -30zM517 344q-10 5 -22.5 2.5t-23.5 -2.5q37 -3 43 -24q19 -20 13.5 1t-10.5 23z" />
    <glyph glyph-name="afii10055" unicode="&#x406;" horiz-adv-x="330" 
d="M168 349q2 17 7 42t3 55q-2 23 -9 49.5t-15.5 52t-17 48t-12.5 38.5q25 -97 34.5 -166.5t9.5 -118.5zM230 9q-13 -4 -29.5 -6.5t-30 -2.5t-21.5 3t-4 9t5 20.5t-1.5 32t-9 35.5t-17.5 31q3 -8 6 -28t4 -40.5t-1.5 -37t-11.5 -18.5q-5 -1 -14.5 -3.5t-18.5 -1t-15.5 10.5
t-5.5 31q0 60 3 113t8 113q0 9 6 25t13 35t12 41t3 43q-2 -5 -4 -17t-5.5 -25.5t-8.5 -27t-13 -20.5q2 30 2 55.5t-2 44.5q-2 71 -6.5 140t-7.5 140q-1 19 6 28t17.5 12t22.5 2.5t22 -0.5q18 2 32 0t23 -10q5 -2 4 -8t-4 -19q-2 -13 0.5 -29.5t7 -33.5t9.5 -33.5t8 -30.5
q4 23 -1.5 54t-7.5 55q0 14 2 27t8 18q20 13 33.5 5t13.5 -17q3 -47 4 -86.5t0 -60.5q-1 -7 -1 -30.5v-55.5v-70v-73t-1 -64t-2 -44q0 -10 -4 -5.5t-8.5 13.5t-9 17.5t-7.5 6.5q0 -8 4 -21t9 -27.5t9.5 -28.5t5.5 -22q1 -17 2.5 -43.5t-0.5 -52t-9 -45t-23 -23.5z" />
    <glyph glyph-name="afii10056" unicode="&#x407;" horiz-adv-x="331" 
d="M115 937v-103h-109v103h109zM325 937v-103h-109v103h109zM168 349q2 17 7 42t3 55q-2 23 -9 49.5t-15.5 52t-17 48t-12.5 38.5q25 -97 34.5 -166.5t9.5 -118.5zM230 9q-13 -4 -29.5 -6.5t-30 -2.5t-21.5 3t-4 9t5 20.5t-1.5 32t-9 35.5t-17.5 31q3 -8 6 -28t4 -40.5
t-1.5 -37t-11.5 -18.5q-5 -1 -14.5 -3.5t-18.5 -1t-15.5 10.5t-5.5 31q0 60 3 113t8 113q0 9 6 25t13 35t12 41t3 43q-2 -5 -4 -17t-5.5 -25.5t-8.5 -27t-13 -20.5q2 30 2 55.5t-2 44.5q-2 71 -6.5 140t-7.5 140q-1 19 6 28t17.5 12t22.5 2.5t22 -0.5q18 2 32 0t23 -10
q5 -2 4 -8t-4 -19q-2 -13 0.5 -29.5t7 -33.5t9.5 -33.5t8 -30.5q4 23 -1.5 54t-7.5 55q0 14 2 27t8 18q20 13 33.5 5t13.5 -17q3 -47 4 -86.5t0 -60.5q-1 -7 -1 -30.5v-55.5v-70v-73t-1 -64t-2 -44q0 -10 -4 -5.5t-8.5 13.5t-9 17.5t-7.5 6.5q0 -8 4 -21t9 -27.5t9.5 -28.5
t5.5 -22q1 -17 2.5 -43.5t-0.5 -52t-9 -45t-23 -23.5z" />
    <glyph glyph-name="afii10057" unicode="&#x408;" horiz-adv-x="602" 
d="M317 712q28 26 56 10q19 14 18 -21.5t6 -52.5q1 17 3.5 36.5t10.5 42.5q19 4 58.5 17.5t51.5 -24.5q8 -87 15 -193.5t5 -206.5q-3 -16 -30.5 -4.5t-37.5 62.5q7 -58 30.5 -71t37.5 -17q8 -68 -23 -130t-67 -101t-72 -38.5t-80 -10.5q-12 2 -0.5 17.5t77.5 48.5
q-76 -21 -92 -43.5t-33 -17.5q-40 -2 -81.5 21.5t-71.5 56.5q-69 70 -75 158q-1 14 18.5 14h33.5q6 0 10 -8.5t18 -30.5q-9 25 -10 36.5t5 19.5q11 11 27.5 19t31.5 2q21 -10 32.5 -35.5t30.5 -41.5q8 -9 27.5 -8.5t29.5 -5.5q3 -6 -7 -28t-45 -41q40 11 53 29t17 33
q2 11 11.5 20.5t29.5 17.5q12 45 5 93t0 92q9 56 -4 112.5t-23 110.5q-4 15 -5.5 32.5t8.5 28.5z" />
    <glyph glyph-name="afii10058" unicode="&#x409;" horiz-adv-x="1214" 
d="M763 722q2 -17 1 -43.5t-2 -55t-1.5 -55.5t2.5 -44q2 -15 -3.5 -26t-13 -23t-13 -27.5t-3.5 -38.5q2 5 4 13t4.5 15.5t6 12t8.5 1.5q8 -3 30 -4.5t36 0.5q30 3 46 3h40.5t58 -2t58 -6t39.5 -11q68 -23 91 -78q11 -27 18 -57t4 -59q-3 -21 -6.5 -44.5t-8.5 -46.5
t-12.5 -44.5t-18.5 -37.5q-13 -18 -50 -34q-37 -17 -55 -17q-8 0 -9.5 11.5t-4.5 18.5q-4 -11 -4.5 -23t-9.5 -17t-37.5 -7.5t-64 -3.5t-70 -1t-53.5 1q-5 0 -13.5 1t-18 2t-17.5 2t-12 2q-11 3 -12.5 15t-1.5 28t-2 33.5t-14 31.5q3 -12 5.5 -28t3 -32t-1.5 -30t-8 -23
q-3 -6 -8 -6t-12 1.5t-16.5 3t-21.5 0.5t-19 -4t-11 -4.5t-6.5 -0.5t-5.5 7q-20 32 -18 68.5t3 77.5q0 42 4.5 79.5t-4.5 73.5q-4 13 0 20.5t10 18.5t10 29.5t0 54.5q-2 -5 -6 -19t-10 -53q-6 27 -6 64.5t0.5 71.5t-1.5 58.5t-13 26.5q-2 0 -18 2.5t-38.5 5t-48 4.5t-47 0.5
t-36 -6.5t-13.5 -16q0 -9 3 -19t5.5 -21t3 -22t-2.5 -22q-4 -13 -4 -30t0.5 -35t1.5 -35.5t-2 -30.5q-8 -38 -11 -70t-5 -59t-3.5 -49.5t-6.5 -39.5q-4 -17 -15 -33t-24.5 -30.5t-27.5 -25t-24 -16.5q-6 -5 -11.5 1.5t-10.5 18.5t-10 25.5t-9 23.5q1 -20 8.5 -43.5
t4.5 -40.5q-1 -5 -8.5 -6t-17.5 -1t-20 -1t-14 -7q-14 -5 -34 -2.5t-27 3.5q-9 1 -10.5 -0.5t-3.5 -2t-8.5 2.5t-25.5 12q-19 10 -24.5 28t-4 38t6.5 39t6 31q1 20 15 23.5t33.5 3t40 1t34.5 16.5q15 56 17.5 117.5t2 117.5t-0.5 100.5t9 66.5q12 24 36 23q-6 6 -13 5.5
t-12.5 -2.5t-9 -2.5t-1.5 5.5q6 14 6 30t1 32t5 31t16 28q7 7 33 10.5t54.5 5.5t53 4t29.5 7q6 6 35.5 3.5t65.5 -7t69 -9t46 -2.5q5 1 20.5 2t34.5 1t40.5 -0.5t39.5 -3t29.5 -7t12.5 -11.5zM770 299q-1 -37 -3 -74t-4 -75q15 3 30.5 2.5t23.5 -3.5q3 -1 19 -0.5t36.5 2
t42 2.5t36.5 1q8 0 13 -1t7 -9q1 7 0 11l-2 8t0.5 10.5t8.5 20.5q3 6 2 16.5t0 16.5q2 22 -3 36.5t-20 25.5q-5 4 -18 7t-29 4.5t-31 1.5t-24 -2q-15 -3 -40 -3.5t-45 2.5zM1088 222q12 27 14.5 54.5t-5.5 50.5t-28 40.5t-52 24.5q30 -31 52.5 -72.5t18.5 -97.5zM637 670
q9 5 21 5.5t23 -2.5t19 -10t9 -18q2 -21 1.5 -46.5t-3.5 -57.5q1 9 7 32t10 48.5t1 45.5t-20 23q-8 1 -19 -0.5t-21 -4.5t-18 -7.5t-10 -7.5zM237 128q40 28 51.5 65t7.5 90q-9 -40 -22.5 -78.5t-36.5 -76.5z" />
    <glyph glyph-name="afii10059" unicode="&#x40a;" horiz-adv-x="1188" 
d="M728 734q2 -17 1.5 -44t-1 -56.5t-0.5 -57t3 -44.5q2 -14 -3.5 -25t-13 -23t-13 -27t-3.5 -38q4 22 12.5 34t17.5 7q8 -3 26.5 -2.5t32.5 2.5q15 2 26 0.5t19 -1.5h40.5t57.5 -2t57 -6t39 -11q67 -21 91 -77q6 -14 11.5 -31t10 -35t6.5 -35.5t0 -31.5q-5 -41 -13 -85
t-30 -76q-12 -16 -49 -33t-55 -17q-8 0 -9.5 11.5t-4.5 18.5q-4 -11 -4.5 -23t-9.5 -17q-9 -4 -39 -5.5t-66.5 -1.5t-72 0.5t-54.5 1.5q-5 0 -13.5 1t-17.5 2t-17.5 2t-11.5 2q-11 3 -13 15t-2 28t-1.5 33t-13.5 31q3 -12 5.5 -28t3 -31.5t-1.5 -29.5t-8 -23q-3 -6 -8 -6
t-12 1.5t-16.5 3t-21.5 0.5t-19 -3.5t-11 -4t-6.5 -1t-5.5 6.5q-20 32 -18 68t3 77q0 42 4.5 79.5t-4.5 72.5q-1 3 -1 7q-12 0 -23.5 2.5t-23.5 4.5t-24 1t-24 -8q-11 -6 -21 -3t-21.5 6.5t-24.5 4.5t-28 -8q-16 -9 -36 -4.5t-38 4.5q-3 -30 -2 -57.5t3 -51t2.5 -43
t-3.5 -34.5q-4 -16 -3 -35t2.5 -36t0 -30.5t-10.5 -18.5q-6 -5 -20.5 -5t-30 4t-29.5 11.5t-18 17.5q0 -10 -14 -17.5t-31 -11t-31.5 -1t-14.5 11.5q0 25 -2.5 47.5t-4 43.5t-0.5 42t7 44q5 52 2 113t-6.5 117t-4 101.5t8.5 67.5q11 25 36 22q-6 6 -13 6t-12.5 -2t-9 -2.5
t-1.5 5.5q6 14 4.5 31.5t-4 35.5t-1.5 33.5t11 26.5q7 8 28 8.5t44 -1t43 -2t25 4.5q1 0 8.5 0.5t16.5 -1.5t17 -7t8 -15q1 -22 0.5 -36t-0.5 -25.5t-0.5 -23t0.5 -29.5q0 -9 1.5 -25.5t2.5 -34.5t0.5 -35t-3.5 -28q-5 -14 -3 -33q11 0 23 2t24 3.5t23 1t21 -6.5
q11 -6 22.5 -5t22.5 4t22 4.5t20 -3.5q13 -7 24 -7.5t21.5 1t20.5 4t21 2.5q2 67 2.5 137.5t-1.5 137.5q0 8 3 11t7 3t8 -0.5t6 -0.5q8 1 36 3t58 1.5t54 -4.5t25 -14zM737 309q0 -36 -2.5 -73t-3.5 -75q15 3 30.5 2.5t23.5 -3.5q3 -1 19 -0.5t36.5 2t41.5 2.5t36 1
q8 0 12.5 -1t6.5 -9q2 7 0.5 11t-2 7.5t0.5 10t8 20.5q4 7 2.5 17t-0.5 17q2 21 -2.5 35.5t-19.5 26.5q-5 3 -18 6t-29 4.5t-31 1.5t-23 -2q-15 -3 -40.5 -3.5t-45.5 2.5zM1054 233q12 27 14.5 54t-6 50t-28 40t-50.5 24q29 -30 51.5 -71t18.5 -97zM606 678q9 5 21 5.5
t22.5 -2.5t18.5 -10t9 -18q2 -22 1.5 -47t-3.5 -57q1 9 7 32.5t10 48t1 45t-20 23.5q-8 1 -18.5 -1t-20.5 -5t-18 -7t-10 -7zM160 139q40 28 51.5 64.5t7.5 89.5q-10 -40 -23.5 -78t-35.5 -76z" />
    <glyph glyph-name="afii10060" unicode="&#x40b;" horiz-adv-x="874" 
d="M449 305q-1 -37 -3 -74t-4 -75q-2 -22 -0.5 -54t2.5 -70q0 -10 1.5 -17t0.5 -11.5t-6 -6t-16 -0.5l-20 2t-15 3q-8 3 -9.5 15.5t-2 29.5t-3.5 35t-15 32q3 -12 5.5 -28t3 -31.5t-1.5 -29.5t-8 -23q-3 -6 -8 -6.5t-12 1t-16.5 3.5t-21.5 1t-19 -4t-11 -4.5t-6.5 -0.5
t-5.5 7q-20 32 -18 67.5t3 76.5q0 42 4.5 79.5t-4.5 73.5q0 40 1 77t-2 83q-2 34 -2 69t1 71q-40 0 -71.5 -3.5t-51.5 1.5q-15 3 -31.5 2.5t-31.5 -1.5t-27 0t-17 8q-5 4 -4.5 15t4 23t10 22.5t15.5 13.5q-9 0 -15.5 10.5t-9.5 23t-1 23.5t10 11q22 0 42 2t38.5 3t37 0.5
t39.5 -5.5q17 -1 34.5 -1.5t36.5 -0.5q3 2 7 1.5t8 -0.5h5q11 1 40 3t60 1q54 3 98.5 4t65.5 -7t20 -26q5 4 4.5 9.5t-2 9.5t-2 6t4.5 1q12 -4 28 -2.5t31.5 3t30 1t24.5 -8.5q7 -5 7.5 -21t-1 -33.5t-2.5 -32.5t4 -19l0.5 -6t-1.5 -13t-6 -13t-13 -6h-32t-22.5 0.5t-21 0.5
t-25.5 -1q-8 0 -22.5 -1t-31 -2t-31.5 -0.5t-25 3.5q-3 1 -9 1q0 -20 0.5 -37.5t2.5 -29.5q2 -15 -3.5 -26t-13 -23t-13 -27t-3.5 -38q4 23 12.5 35t17.5 7q8 -4 27 -3t33 3t25 0t19 -2h35t46 -1.5t45.5 -5t33.5 -10.5q66 -21 90 -77q6 -14 11.5 -31t10 -35t6.5 -35.5
t1 -31.5q-3 -21 -1.5 -48t3 -57t2 -60.5t-3.5 -56.5q-1 -6 -7.5 -5.5t-15.5 3t-19.5 3.5t-19.5 -3t-20.5 -5.5t-22.5 -1.5t-20 0.5t-14 0.5q-4 0 -6.5 5t-4 11.5t-2.5 13.5t-2 10q-3 -11 -3.5 -22.5t-10.5 -16.5q-21 -10 -27.5 -2.5t-6.5 28t2.5 51.5t-0.5 69q1 7 1 18.5
t-0.5 24.5t-0.5 25.5t1 22.5q2 21 -3 35.5t-20 26.5q-9 7 -29 9.5t-37 -0.5q-15 -4 -40 -4.5t-45 3.5zM730 230q12 27 14.5 54t-5.5 50t-27.5 40t-51.5 24q29 -30 51.5 -71t18.5 -97zM211 669q9 5 20.5 5.5t22.5 -2.5t19 -10.5t9 -17.5q2 -22 1.5 -47t-3.5 -57q1 9 7 32.5
t10 48t1 45t-20 23.5q-8 1 -19 -1t-21 -5t-17.5 -7t-9.5 -7z" />
    <glyph glyph-name="afii10061" unicode="&#x40c;" horiz-adv-x="782" 
d="M386 851q7 3 11.5 7l9 8t11 9.5t18.5 11.5t18 13.5t11 15.5t11.5 16.5t20.5 18.5q-14 -8 -23 -16.5t-16.5 -17t-14.5 -16.5t-18 -14t-16.5 -10.5t-8.5 -8t-5.5 -7.5t-8.5 -10zM459 982q-17 -4 -28.5 -17.5t-22.5 -27.5q17 15 38.5 30t35.5 15h56q14 0 19 -5t-1 -13
q-8 -11 -33 -38.5t-54.5 -56t-57.5 -50.5t-42 -22h-65q-11 0 -10.5 10.5t7.5 27t18.5 36t23.5 38t23 33.5t17 22q6 8 20.5 13t28.5 5h27zM95 746q22 1 34 1t20 -1t15.5 -1.5t21.5 0.5q6 -3 8 -23t2 -45t0.5 -47t3.5 -28q3 7 4 29.5t2.5 47t4.5 43.5t10 20q17 2 37 3t25 -5
q4 -3 5.5 -12.5t1 -21t-1.5 -24t-1 -21.5q3 -43 0 -86q-1 -8 -3 -23t-4.5 -32.5t-3.5 -35t1 -28.5q5 5 13 6.5t17 1.5t17.5 -1t14.5 1q8 15 11 24.5t11 14.5q15 11 19.5 25t7.5 28t8 27.5t21 24.5q12 9 17 15.5t7 12t3 11t4 11.5q16 33 28.5 59t29.5 28q15 2 43.5 6t60 5.5
t60 -0.5t43.5 -11q3 -2 3.5 -10t-5.5 -10t-21.5 -10t-31 -18.5t-28 -23t-13.5 -24.5q5 7 20.5 19t32 21.5t29.5 14t13 -4.5q0 -11 -7 -21t-16 -20t-17.5 -19t-12.5 -18q-18 -35 -36 -64.5t-35 -57t-32 -56t-27 -60.5q17 -38 53 -88t78 -101q20 -25 35 -49.5t30 -46.5
q14 -21 28.5 -40t18.5 -39q2 -12 -3.5 -14.5t-25.5 -5.5q-10 -1 -17 2t-13.5 6t-14.5 3t-21 -8q-10 10 -17.5 21.5t-16 21t-19.5 17.5t-29 12q7 -4 18 -11.5t20 -17t13.5 -20.5t-0.5 -23q-1 -1 -13.5 -0.5t-28.5 1t-31.5 0.5t-21.5 -1q-12 -5 -22.5 -3t-18.5 7q-11 8 -29 40
t-40 75q-2 4 0.5 16t7 29t9 37t4.5 41q-5 -14 -10.5 -31t-11 -31t-10.5 -21.5t-8 -2.5q-23 38 -43 77t-40 66q-4 5 -13 8t-18.5 -0.5t-16.5 -15t-7 -34.5v-54q-2 -25 -3 -48t3 -49q5 -24 3.5 -49t-5.5 -47q-2 -12 -21.5 -13.5t-38.5 0.5q-10 0 -15.5 1t-9.5 2.5t-7.5 4
t-9.5 5.5q-10 3 -11.5 10.5l-3.5 17.5v15v21v22v19q-2 -7 -3.5 -18t-3 -22.5t-2.5 -21.5t-1 -15q0 -11 -4 -23.5t-12 -14.5q-14 -4 -30 -4t-33 2q-9 2 -12.5 6t-4.5 8.5t-1 9.5t-1 10q2 28 2.5 58.5t-2.5 60.5q7 29 3 60.5t-3 60.5q0 10 6.5 8t17 -12.5t22.5 -27t21 -34.5
q-5 21 -16 40.5t-22.5 37t-21 32.5t-9.5 27q-2 25 -2 49.5t4 51.5q0 21 1 51.5t2 52.5q0 49 -3 94q0 5 7.5 2t18 -11.5t21.5 -19.5t18 -21q-3 16 -14 30t-22 25.5t-20 20.5t-9 17q0 6 -0.5 16.5t-0.5 21t2 18t7 6.5q3 0 15 -1.5t15 -1.5zM562 682q-18 -9 -28 -29.5
t-18 -43.5t-17.5 -44t-25.5 -31q-10 -6 -20.5 -29.5t-19 -50t-14.5 -49t-6 -25.5q-1 -8 7.5 10t21 45t26 53.5t23.5 35.5q16 14 23.5 35t12.5 44t12 44t23 35z" />
    <glyph glyph-name="afii10062" unicode="&#x40e;" horiz-adv-x="740" 
d="M274 958q0 -39 20 -53t71 -14t71 14t20 53h84q0 -94 -42 -123.5t-133 -29.5q-92 0 -133.5 29.5t-41.5 123.5h84zM197 420q-25 28 -76 69.5t-50 78.5q-1 7 14 7t25 3q-20 8 -41 11.5t-34 17.5q-14 13 -24 35t-2 39q9 22 39.5 47.5t54.5 33.5q13 10 33 14t37 -6
q19 -13 35 -35.5t32 -51.5q24 -93 58.5 -101.5t69.5 -93.5q36 101 89.5 178t53.5 109q11 11 39 6t36 -18q11 -16 -1 -39t-15 -43q19 36 35 54.5t43 39.5q55 -3 66.5 -9.5t7.5 -64.5q-19 -68 -60 -107t-73 -92q-21 -26 -32.5 -60.5t-43.5 -100.5q-23 -44 -32 -92.5
t-21 -102.5q-3 -9 -28.5 11.5t-37.5 19.5q14 -10 43.5 -37.5t-9.5 -78t-145 -63.5q-53 -1 -123 3t-52 153q159 60 153 16t28 -72q-11 9 -13 68.5t-5 97.5q0 62 -23.5 92t-50.5 64zM405 430q-12 -16 -25 -25t-21 -39q-5 -24 3.5 -45t12.5 -42q-9 66 30 151z" />
    <glyph glyph-name="afii10145" unicode="&#x40f;" horiz-adv-x="791" 
d="M167 352q3 16 8 41t3 55q-2 23 -9 50t-15.5 52.5t-17 48.5t-12.5 38q24 -97 33.5 -167t9.5 -118zM397 -10q0 -19 -6.5 -47t-23.5 -67q3 6 9 15t12 19.5t11 21.5t6 20q2 12 -2 22t-6 16zM347 -35q1 4 -0.5 11t-4.5 13.5t-7.5 11.5t-8.5 5q-24 -1 -57.5 0t-57.5 -1
q-16 -3 -32 -4t-26 1q-12 -1 -24 -1t-25 -1q-16 0 -24 4q-3 2 -8 7q-6 7 -6 22q-1 3 -1 11q-1 61 2.5 113.5t7.5 113.5q0 9 6.5 24.5t13.5 35t12 41.5t3 43q-2 -5 -4 -16.5t-5.5 -25t-9 -27t-12.5 -21.5q2 30 1.5 56t-1.5 45q-3 70 -7 140t-6 140q-1 21 6 30t17 12t22 2.5
t22 0.5q38 2 56 -11q5 -3 3.5 -8.5t-3.5 -18.5t0.5 -29.5t7 -33.5t9.5 -34t7 -31q2 12 1.5 26t-2.5 28.5l-4 29t-3 26.5t1 25.5t9 18.5q9 6 17.5 7t15 -1.5t10.5 -7.5t4 -10q2 -46 3.5 -86t-0.5 -60q-1 -7 -1 -30.5v-56v-70.5v-73.5t-0.5 -64.5t-1.5 -44q-1 -11 -4.5 -7
t-8.5 13l-10 18t-8 7q0 -8 4.5 -21t9.5 -28l9.5 -28.5t5.5 -21.5v-1q27 0 64 0.5t73 0.5t66.5 -0.5t45.5 -1.5q9 -1 5.5 -4t-11.5 -7.5t-16 -8.5t-6 -7q8 0 19.5 4t25.5 9q2 27 3.5 55t3.5 58q0 9 6.5 24.5t13.5 35t12 41.5t3 43q-2 -5 -4 -16.5t-5.5 -25t-8.5 -27
t-12 -21.5q2 30 1 56t-1 45q-3 70 -7.5 140t-6.5 140q-1 21 6 30t17 12t22 2.5t22 0.5q38 2 56 -11q5 -3 3.5 -8.5t-3.5 -18.5t0.5 -29.5t7 -33.5t9.5 -34t7 -31q2 12 1.5 26t-2.5 28.5l-4 29t-3 26.5t1 25.5t9 18.5q9 6 17.5 7t15 -1.5t10.5 -7.5t4 -10q2 -46 3.5 -86
t-0.5 -60q-1 -7 -1 -30.5t0.5 -56t0.5 -70.5v-73.5t-0.5 -64.5t-1.5 -44q-1 -11 -5 -7t-9 13l-10 18t-8 7q0 -8 4.5 -21t9.5 -28l9.5 -28.5t5.5 -21.5q1 -12 3.5 -29t4 -35t1.5 -36t-4 -32q1 -6 2.5 -13t-0.5 -13.5t-10 -10.5t-25 -4q-23 0 -44 2.5t-36 4.5q-8 1 -21.5 6.5
t-30.5 11.5t-36 10t-37 3q4 -2 12 -4.5t17.5 -7t19.5 -10t17 -12.5q-11 1 -34.5 2t-50.5 2v-32.5v-34v-28.5v-15q2 -8 1 -24.5t-2 -34.5q-1 -4 -10.5 -7t-23.5 2q-5 2 -6 7.5t-1 10.5q1 10 5 22t1 22q-4 -11 -12 -25.5t-5 -25.5q2 -5 2.5 -7.5t-2.5 -3.5q-13 -6 -40 -4
q-7 0 -15.5 -0.5t-15.5 0.5t-12 5t-4 12q1 14 0.5 25.5t-1 22.5l-1 22t0.5 25q1 8 1.5 21t-1.5 26q11 -7 15.5 -14.5t6.5 -10.5zM413 89q-14 2 -35.5 7t-47.5 3q-13 -2 -38 -8t-52 -24q48 9 96 15.5t77 6.5zM657 44q-2 3 -11 5t-19 3.5t-18 1.5h-8q1 -1 8.5 -2.5t17 -3
t18 -3t12.5 -1.5zM191 112q-13 -1 -25.5 -1t-22 7.5t-16 24.5t-6.5 50q-3 -20 -2.5 -39.5t7.5 -32.5t22.5 -16.5t42.5 7.5zM625 352q4 16 9 41t3 55q-2 23 -9 50t-16 52.5t-17.5 48.5t-12.5 38q25 -97 34 -167t9 -118z" />
    <glyph glyph-name="afii10017" unicode="&#x410;" horiz-adv-x="767" 
d="M252 313q0 2 1 4.5t1 3.5q0 3 15 14q5 4 8.5 7.5t7.5 4.5q4 2 32.5 10t69.5 16q13 0 -3.5 -1t-29 -1t27.5 6.5t157 18.5q-25 6 -32 9.5t-26 7.5q-12 35 -52.5 74.5t-65.5 43.5q-4 17 18 33t34 34q-16 -9 -32.5 -18.5t-30.5 -19.5q-19 -11 -38.5 -21.5t-27.5 -26.5
q-20 -33 -24.5 -56t-16.5 -55q-11 -27 -30 -53.5t-31 -50.5q12 13 35.5 43.5t23.5 12.5q4 -69 4 -149.5t-9 -172.5q0 -49 -88 -29t-130 50q-28 20 -9.5 59.5t23.5 70.5q7 40 16.5 80t24.5 69q8 27 21 35.5t32 55.5q-37 -37 -45 -45.5t-10 31.5q-5 15 5 50.5t15 66.5
q4 35 32 67t59 60q37 30 80 62.5t94 40.5q41 6 84 -9t73 -40q12 -13 12 -34t5 -52q5 21 5 43.5t18 10.5q37 -29 57 -73.5t37 -88.5q36 -104 76.5 -210.5t38.5 -270.5q-2 -30 -33.5 -31.5t-60.5 10.5q-22 8 -27 32t-16 44q-1 -22 4 -43.5t-10 -37.5q-9 -11 -52 -2.5t-47 21.5
q-17 35 -14.5 91.5t-3.5 92.5l41 69l-86 -17q-41 8 -89.5 -14t-95.5 -12q-7 2 -10 7t-7 7q-3 1 -6 33q0 5 2 8.5t4 4.5q5 1 30.5 2t47.5 7q-9 1 -22.5 0.5t-26 -0.5t-22 1t-10.5 6zM117 223q-9 -23 -20 -45t-11 -46q0 -11 13 -18t22 -15q-15 26 -13.5 58t9.5 66z" />
    <glyph glyph-name="afii10018" unicode="&#x411;" horiz-adv-x="727" 
d="M63 110q-17 15 -4 39q12 21 16 36q11 40 7 49q-2 34 8 76q-1 7 -3 15t-2 15q-6 42 -6 91.5t4 92.5q44 18 91 80q-49 -55 -91 -63l5 23q5 33 9 62.5t11 66.5q7 24 33.5 15t43.5 -21q4 12 -31 29.5t1 29.5q38 13 77.5 8t83.5 -7q36 -1 77 -3t78 -14q15 -7 21.5 -24
t15.5 -29q0 9 -1.5 25.5t8.5 13.5q39 -12 85 3q43 15 63 -18q25 -42 16 -80.5t-27 -82.5q-22 -41 -191 19q-124 43 -170 8t-5 -146q108 10 200.5 -12t114.5 -48q46 -52 42 -106q35 -48 27 -123q-8 -72 -48 -102q-56 -39 -144 -30q-92 8 -169 0q-61 9 -108 5q-50 -5 -102 12
q-32 8 -32 57q-2 26 19 26q25 1 56 6zM426 69q61 9 104 38t52 87q-20 -40 -57.5 -71.5t-98.5 -53.5zM290 271q-3 -20 -4.5 -33.5t-2.5 -20.5q0 -14 -10 -54q4 -21 33 -24t52 2t46 12q38 7 56 39q12 14 8 52q-24 26 -49.5 29.5t-58.5 4.5z" />
    <glyph glyph-name="afii10019" unicode="&#x412;" horiz-adv-x="753" 
d="M63 112q-19 15 -4 38.5t16 35.5q6 21 8 32t-1 17q-1 32 10 75q-3 15 -7 30q-6 51 2 106.5t11 76.5q46 18 96 80q-52 -55 -96 -62q1 13 3 23q12 67 26 140q0 12 23 1.5t43 -11.5q-10 10 -25.5 27t-1.5 22q38 14 85.5 9.5t92.5 -5.5q38 -2 82 -4.5t83 -13.5q16 -6 23 -23.5
t17 -29.5q2 10 0.5 25.5t7.5 13.5q42 -12 89.5 -30t67.5 -50q27 -42 -2.5 -86t-49.5 -87q-17 -36 -62 -53.5t-38 -20.5q20 -18 71 -50t47 -86q38 -48 29 -121t-52 -102q-58 -38 -154 -30t-178 0q-63 9 -115.5 5t-109.5 12q-34 9 -34 57q-1 26 19.5 26.5t60.5 5.5zM310 190
q28 -24 56.5 -18.5t60.5 22.5q30 15 29 45.5t-16 49.5q-14 14 -33.5 29.5t-40.5 22.5q-50 15 -48.5 48t27.5 61q17 19 51 23.5t57 19.5q14 8 28 22.5t11 29.5q-5 17 -25 27.5t-36 16.5q-24 7 -49.5 7t-49.5 3q-14 0 -36 4.5t-35 5.5q11 -7 34 -15t30 -8q1 -23 -9 -37.5
t-10 -27.5q-4 -36 4 -73.5t-11 -80.5q2 0 -14.5 7t-26.5 25q2 -32 11 -35.5t23 -11.5q-11 -64 -10 -102.5t28 -59.5zM562 194q-21 -38 -61 -70t-105 -54q78 13 122 45q23 16 31 35.5t13 43.5zM392 433q-25 -7 -33 -20.5t11 -10.5q25 1 46 19t41 34q-19 -5 -34.5 -12
t-30.5 -10z" />
    <glyph glyph-name="afii10020" unicode="&#x413;" horiz-adv-x="632" 
d="M192 280q-4 -13 -11 -25t-5 -25q3 -25 14 -49t20 -47q-12 40 -15 75.5t-3 70.5zM595 696q0 -20 2 -55.5t-8 -54.5q-6 -9 -38.5 -10t-73.5 3t-79 10.5t-52 13.5q4 -4 24.5 -13.5t27.5 -11.5q-110 17 -147 22t-49 -4v0h1.5h1.5q11 -7 9.5 -23.5t2.5 -30.5q3 10 3 23.5
t11 13.5q30 0 32 -33q5 -47 4.5 -74t-4.5 -74q-2 -14 -16 -26t-16 -27q3 8 37 32q-2 -23 -2 -43t2 -35q2 -37 3.5 -87t4.5 -68q1 -17 2.5 -44.5t4.5 -65.5q0 -7 -2.5 -18t-7.5 -11q-27 -5 -67 -6q-38 -1 -56 8q-11 4 0 22q9 16 8 28q-7 20 -8.5 38.5t-6.5 38.5
q-4 -15 -5 -30t-3 -27q-5 -20 -4 -34q1 -10 -2.5 -21t-11.5 -16q-21 -9 -36.5 -0.5t-15.5 16.5q-2 35 -3.5 64.5t1.5 46.5q2 14 4.5 39.5t8.5 61.5q0 6 11 6t17 4q-5 9 -20.5 19t-16.5 22q-4 36 -5 71.5t1 71.5q1 28 4 55.5t2 55.5q-1 15 -3.5 26.5t-1.5 22.5q1 20 8 32
t13 16q-15 -6 -21.5 -5t-6.5 24q3 6 2 44.5t8 36.5q32 -10 22 -5.5t0 8.5q5 5 20.5 -2.5t35.5 -3.5q16 1 79.5 6t135.5 7t134.5 -1.5t77.5 -16.5q3 -15 -27 -24t-39 -5q44 -8 61 3t22 34q1 -10 3 -20t3 -20z" />
    <glyph glyph-name="afii10021" unicode="&#x414;" horiz-adv-x="817" 
d="M347 567q2 -27 0.5 -52t-0.5 -58q0 -28 -15 -52.5t-18 -93.5q23 64 28.5 59t-0.5 -41t-21.5 -85t-35.5 -75q3 0 34.5 8.5t35.5 9.5q21 4 52.5 -1t59.5 -10.5t47.5 -4.5t19.5 19q4 36 -2.5 68t-6.5 123q0 42 3.5 90t5.5 99q0 5 -17 4t-34 -1t-24.5 4t10.5 19
q-10 -1 -19.5 -11t-16.5 -10q-20 -6 -54 2.5t-32 -10.5zM27 -7q8 47 0.5 66.5t-12.5 41.5q-15 59 0.5 66t36.5 2q22 -4 36 10t20 26q11 30 32 110.5t16 168.5q-3 58 -5.5 126.5t5.5 116.5q-7 24 22.5 21.5t40.5 -2.5q20 0 53.5 2t18.5 -24q26 26 65 24t104 -13q0 15 35 15
t55 -4q14 -4 43 2.5t30 -5.5q3 -32 1.5 -67.5t4.5 -63.5q0 29 2 65t13 61q2 7 8 7.5t20 2.5q27 0 39 -2q21 -4 21 -29q3 -43 4.5 -69.5t2 -49t-1 -49.5t-5.5 -70q0 -12 -11 -26t-25 -51q22 29 29.5 33t8.5 -8t-1.5 -32t-0.5 -37q3 -16 7 -82.5t-16 -104.5q19 -6 32 2.5
t22 -4.5q19 -22 17 -51.5t-4 -55.5q-20 -7 -25.5 -19.5t-14.5 -35.5q6 7 20.5 22.5t21.5 -1.5q5 -39 8.5 -49.5t3.5 -51.5q1 -42 1.5 -42t0.5 -33q-9 -30 -50 -22q-21 4 -32 0t-21 -3q-10 16 -14.5 31t-6.5 27q-7 -13 -2 -40q4 -27 -15 -17q-26 -14 -57 4q-11 8 -11 21.5
t3 24.5q9 73 8 120q-24 1 -78 -4t-68 13q-6 6 4.5 23.5t24.5 28.5q-31 -6 -42.5 -28.5t-25.5 -28.5q-16 -8 -45 -4t-68 6q-41 2 -48 17t-14 40q-7 -17 -7 -33q-1 -7 -7 -16.5t-21 -13.5q-5 -2 4.5 -41t2.5 -41q-5 -2 -2.5 -18.5t4.5 -34.5t0 -30.5t-15 -5.5q-21 1 -34.5 1.5
t-31.5 7.5q-9 4 -10 17.5t-4 22.5q-3 7 -3.5 -9t-2.5 -34q-65 -9 -86.5 -4t-21.5 24q0 15 2 55t12 85zM218 467q23 34 26.5 51t3.5 56q0 11 6 34t21 40q-44 -35 -47 -84.5t-10 -96.5z" />
    <glyph glyph-name="afii10022" unicode="&#x415;" horiz-adv-x="679" 
d="M59 649q-21 46 53 67t115 14q17 -4 28 -21.5t-25 -47.5l85 63q46 16 107.5 20t116.5 -7q25 0 27 -40.5t2 -66.5q0 -10 -14.5 -21t-21.5 -17l43 8q5 0 5 -14t-6 -14q-40 -7 -70 -13t-39 -12q-35 -27 -60.5 -15.5t-72.5 5.5q3 28 -23 54q19 0 -8 -57.5t-24 -72.5
q1 -16 53 5.5t86 5.5q5 -4 -1 -21.5t-6 -25.5q53 51 100 61q21 4 46 -18.5t22 -44.5q-7 -43 -17 -77.5t-34 -44.5q-38 -18 -90 -14t-94 2q-28 -2 -27.5 25.5t0.5 38.5q-3 8 -11.5 -9.5t-8.5 -25.5q-1 -28 1 -56t9 -54q2 -6 10.5 2.5t15.5 11.5q34 2 87.5 17t55.5 -20
q0 -32 -50.5 -65.5t-14.5 -5.5q-3 -13 57 35t90 45q18 -4 42 -9.5t30 -27.5q8 -34 -1.5 -79t-22.5 -77q-6 -11 -18 -26.5t-22 -9.5q-82 38 -189.5 39.5t-234.5 -24.5q-22 -3 1.5 20.5t39.5 41.5q-54 -23 -85 -50q-5 -3 -12 1t-7 8q3 87 13.5 157t6.5 135q0 5 10 1t28 -33
q-14 40 -21 48.5t-11 17.5q-21 57 -13.5 131t-30.5 157zM199 443q-13 13 -28.5 -11.5t-1.5 -47.5q42 -41 39 -76.5t-19 -69.5q10 18 32 39.5t12 37.5q-21 31 -39 71t5 57z" />
    <glyph glyph-name="afii10024" unicode="&#x416;" horiz-adv-x="1171" 
d="M486 713q0 27 31 36q23 6 56 7.5t57 -8.5q11 -6 10 -23t2 -30q3 9 3 22.5t10 15.5q12 0 26 -10t15 -25q2 -23 -0.5 -106.5t-8.5 -135.5q42 19 69 71.5t29 60.5q5 26 22.5 41t32.5 25q8 6 3 -11.5t8 -25.5q-4 7 0.5 23.5t-1.5 25.5q-13 15 -2 25q52 49 67.5 46.5t31.5 2.5
q35 10 90 -12q28 -10 60.5 4t30.5 -5q-2 -27 -41 -76q-34 -45 -59 -69q-11 -11 -30 0q-24 14 -35 17q12 -15 25 -22q17 -12 11 -21q-11 -23 -33 -78.5t-44 -73.5q-21 -20 -34 -19.5t-27 -49.5q18 30 26.5 29.5t26.5 -7.5q33 -13 53 -47t37 -66q17 -30 66.5 -84.5t75.5 -76.5
q15 -12 15 -39q0 -18 -11 -36q-9 -13 -16 -7.5t-11 22.5q-7 27 -24 43.5t-29 19.5q29 -28 36.5 -50.5t3.5 -31.5q-7 -12 -34.5 -2.5t-39.5 2.5q-12 -6 -31 -2t-27 2q-17 -5 -24.5 -9.5t-30.5 4.5q-33 12 -56.5 66.5t-40.5 91.5q-5 10 -13.5 32t-33.5 44q-12 9 -15.5 31.5
t-19.5 24.5q-37 4 -57 19t-36 15q21 -13 25.5 -31.5t5.5 -38.5q2 -37 3.5 -64.5t3.5 -45.5q3 -17 4.5 -45t3.5 -65q0 -7 -2.5 -18t-6.5 -11q-21 -5 -66 -5q-44 -1 -62 7q-9 5 0 22q8 17 8 28q-7 20 -8.5 38.5t-5.5 39.5q-4 -15 -5 -30.5t-3 -27.5q-6 -20 -4 -35
q1 -20 -14 -27q-21 -10 -36 -1.5t-15 17.5q-5 70 -2 102q2 15 2.5 20t5.5 41q0 6 10.5 6.5t16.5 3.5q-6 9 -14 20t-11 23q-1 20 -2 42q-41 -11 -72 -62.5t-39 -68.5q-19 -39 -46 -48q-13 -6 -41.5 -24t-42.5 -11q5 -11 38.5 -5.5t29.5 -3.5q-11 -22 -21 -41t-31 -25
q-25 -9 -63.5 -8t-62.5 12q-15 5 -54.5 -5t-53.5 1q-15 11 4 44t19 48q0 34 26 64q24 27 56 50q3 3 40 1l37 -2q-6 12 -31 12t-20 10q13 23 43 40q15 8 22.5 25t18.5 27q12 10 15 30.5t16 33.5q22 21 22.5 26.5t-12 11.5t-34 19t-43.5 49q-24 38 -54 86.5t-47 74.5
q-4 5 -31 43t-26 48q0 10 13.5 5t20.5 -5q12 0 36 -27t52 -39q-17 23 -35.5 39t-7.5 27q3 4 24 5.5t42 5.5q29 6 51 1t31 -12q26 -21 50.5 -60.5t36.5 -86.5q11 -47 24.5 -55t38.5 -16q5 -2 16.5 -34t46.5 -29q1 24 2 49t3 49q0 7 20.5 37t20.5 36q-11 -12 -24 -29t-14 6
q-1 20 -4.5 57t-2.5 49zM601 280q-4 -13 -10.5 -25t-4.5 -26q2 -25 12.5 -48.5t20.5 -46.5q-13 40 -15.5 75.5t-2.5 70.5z" />
    <glyph glyph-name="afii10025" unicode="&#x417;" horiz-adv-x="733" 
d="M68 674q9 20 27.5 32.5t42.5 19.5t50.5 9.5t54.5 3.5q17 2 33 5.5t33 5.5q34 7 77 7t84 -7.5t76.5 -25t55.5 -43.5q8 -11 11 -18t5 -13.5t3.5 -14t9.5 -20.5q15 -30 6.5 -63.5t-31.5 -56.5q-4 -3 -12 -8t-17.5 -10.5t-18 -9.5t-12.5 -7q-2 -1 3.5 0t12.5 2t11.5 1.5
t2.5 -1.5q-10 -6 -16 -12t-16 -12q-4 -2 -13 -3.5t-16 -2.5t-11.5 -1.5t0.5 -1.5q25 -4 47 -7.5t41.5 -10.5t35 -18.5t26.5 -30.5q12 -19 16.5 -42t13.5 -44q16 -39 12.5 -84.5t-34.5 -79.5q-1 -2 0 7t0 20.5t-3.5 18.5t-10.5 21q-4 0 -5 -13.5t-2.5 -29.5t-2 -30t-1.5 -15
q-17 -13 -29.5 -25t-25 -23t-28 -21t-39.5 -18q-26 -10 -54.5 -16t-58.5 -9t-58.5 -1t-53.5 11q-4 1 6.5 6t23 10.5t22 9t5.5 3.5q-6 0 -25.5 -5t-41 -11.5t-41 -11t-25.5 -4.5q-24 0 -48 3t-44 12.5t-33.5 25t-16.5 38.5q-2 28 4.5 53t18.5 46h5q0 1 1.5 -5t4.5 -12.5
t5.5 -12.5t5.5 -5q1 2 1 10t-0.5 16.5t0 15.5t3.5 7v3q31 7 71.5 3.5t79 -7.5t70.5 -0.5t49 25.5q1 3 6 1t10.5 -4.5t10.5 -4.5t9 0q1 1 -2 6t-7.5 10.5t-8 10.5t-1.5 6q9 5 16.5 14t11 18t3.5 18t-6 14q0 1 -2.5 -1.5t-6.5 -6t-7 -6.5t-4 -1q-2 4 -5.5 17.5t-5.5 17.5
q-3 2 -7 13t-8 13q-8 6 -22 8t-31.5 4t-36 5t-33.5 9v6.5t0.5 14t1 13.5t-0.5 6q-3 0 -7.5 2.5t-9 6t-8.5 7t-4 4.5q0 11 3.5 16t9.5 7.5t15.5 3.5t20.5 6q4 3 16 6t15 6q1 2 8 4t15 3.5t13.5 3.5t5.5 5q-1 12 9.5 26l21 28t15 25.5t-7.5 19.5q-12 5 -26 7.5t-29 0
t-27.5 -7.5t-17.5 -15h-3t-3 -2q-6 -10 -18 -10q-1 -2 -3 -2t-3 -2q-6 -9 -17 -15.5t-24.5 -9.5t-27 -3t-24.5 5q-4 2 -15.5 14.5t-16.5 16.5q-4 4 -3 8h-4q-6 12 -11 19.5t-6 22.5q0 8 -5 14t-11 12l-12 12t-9 14q-2 5 -8 6.5t-4 5.5zM331 686q17 5 36 8.5t36 7.5
q17 3 33.5 -2.5t27.5 -13.5q5 -3 11 -10t12.5 -15t12.5 -15.5l10 -12.5q-36 26 -58.5 34t-38 9.5t-29 0t-33.5 5.5zM506 372q19 -1 37.5 -2t36.5 -3q12 -1 19 -11t7 -24q0 -8 3.5 -16.5t2.5 -15.5q-1 -9 -2.5 -12t-6.5 -7q-11 38 -19.5 51.5t-17.5 16.5t-17.5 3t-17.5 10z
" />
    <glyph glyph-name="afii10026" unicode="&#x418;" horiz-adv-x="824" 
d="M76 446q-15 48 -11.5 111t11.5 123q1 20 8.5 45t30.5 27q44 0 45.5 -20t3.5 -40q4 -8 6.5 -20.5t4.5 -23.5q4 26 3.5 55t17.5 49q8 13 28 10t36 -10q16 -3 33 -14t19 -25q8 -70 5 -140t-2 -130q-11 -10 -21.5 2t-21.5 14q13 -13 24 -31t19 -36q9 -11 4.5 -27t-4.5 -32
q34 84 77 144.5t84 115.5q18 27 33 56.5t38 53.5q8 11 25.5 21t30.5 2q12 -10 19 -15.5t23 -9.5q-15 13 -17.5 17.5t4.5 11.5q15 11 39.5 15.5t42.5 -6.5q15 -9 21 -32t8 -40q7 -81 11 -181.5t4 -184.5q-1 -64 4.5 -128.5t-4.5 -130.5q-3 -10 -17 -23.5t-23 -10.5
q-18 10 -20.5 29.5t-9.5 36.5q-6 -18 -5.5 -38.5t-15.5 -30.5q-20 -11 -45.5 -5.5t-45.5 8.5q-20 7 -20 18q0 80 -8 137.5t4 134.5q2 19 8 25.5t6 19.5q-14 5 -19 0t-15 -17q-41 -51 -70.5 -89t-73.5 -86q-11 -8 -26.5 14t-25.5 31q3 -10 11 -31t5 -42q-13 -20 -25 -34
t-27 -34q-9 -11 -19.5 -23.5t-24.5 -16.5q-13 -3 -25.5 5.5t-24.5 5.5q-8 0 -8.5 -10.5t-5.5 -10.5q-45 -6 -72 10q-29 18 -30 54q-9 82 -18.5 165.5t8.5 163.5q4 19 21.5 6.5t37.5 -26.5q-19 27 -35 36.5t-28 31.5zM632 470q11 9 29 13.5t18 17.5q0 12 -26.5 21t-33.5 24
q-7 9 -7.5 12t0.5 14q-7 -9 -11.5 -17t-2.5 -19q0 -6 26.5 -14.5t26.5 -18.5q0 -15 -8.5 -17t-10.5 -16z" />
    <glyph glyph-name="afii10027" unicode="&#x419;" horiz-adv-x="824" 
d="M383 937q-22 -33 0.5 -56t55 -21.5t52 23t-6.5 56.5l146 -23q-3 -67 -34 -107.5t-123 -44.5q-106 -5 -151 40t-22 89zM76 446q-15 48 -11.5 111t11.5 123q1 20 8.5 45t30.5 27q44 0 45.5 -20t3.5 -40q4 -8 6.5 -20.5t4.5 -23.5q4 26 3.5 55t17.5 49q8 13 28 10t36 -10
q16 -3 33 -14t19 -25q8 -70 5 -140t-2 -130q-11 -10 -21.5 2t-21.5 14q13 -13 24 -31t19 -36q9 -11 4.5 -27t-4.5 -32q34 84 77 144.5t84 115.5q18 27 33 56.5t38 53.5q8 11 25.5 21t30.5 2q12 -10 19 -15.5t23 -9.5q-15 13 -17.5 17.5t4.5 11.5q15 11 39.5 15.5t42.5 -6.5
q15 -9 21 -32t8 -40q7 -81 11 -181.5t4 -184.5q-1 -64 4.5 -128.5t-4.5 -130.5q-3 -10 -17 -23.5t-23 -10.5q-18 10 -20.5 29.5t-9.5 36.5q-6 -18 -5.5 -38.5t-15.5 -30.5q-20 -11 -45.5 -5.5t-45.5 8.5q-20 7 -20 18q0 80 -8 137.5t4 134.5q2 19 8 25.5t6 19.5q-14 5 -19 0
t-15 -17q-41 -51 -70.5 -89t-73.5 -86q-11 -8 -26.5 14t-25.5 31q3 -10 11 -31t5 -42q-13 -20 -25 -34t-27 -34q-9 -11 -19.5 -23.5t-24.5 -16.5q-13 -3 -25.5 5.5t-24.5 5.5q-8 0 -8.5 -10.5t-5.5 -10.5q-45 -6 -72 10q-29 18 -30 54q-9 82 -18.5 165.5t8.5 163.5
q4 19 21.5 6.5t37.5 -26.5q-19 27 -35 36.5t-28 31.5zM632 470q11 9 29 13.5t18 17.5q0 12 -26.5 21t-33.5 24q-7 9 -7.5 12t0.5 14q-7 -9 -11.5 -17t-2.5 -19q0 -6 26.5 -14.5t26.5 -18.5q0 -15 -8.5 -17t-10.5 -16z" />
    <glyph glyph-name="afii10028" unicode="&#x41a;" horiz-adv-x="782" 
d="M114 731q21 15 54 12t58 -12q12 -5 11.5 -21t4.5 -27q6 14 8.5 30t16.5 27q26 20 45 -4q11 -15 10.5 -34t0.5 -37q2 -42 0 -84q-4 -32 0 -77t-18 -60q28 -4 42 24t27 38q26 22 45 40.5t47 39.5q33 26 76.5 60.5t86.5 51.5q53 38 107.5 8t42.5 -48q-28 -13 -61.5 -20
t-36.5 -21q15 1 33 8t33 0q13 -7 21 -24.5t0 -27.5q-24 -32 -61.5 -51.5t-66.5 -45.5q-21 -18 -49 -37t-38 -50q32 -73 105.5 -172t88.5 -178q4 -22 -31.5 -26t-59.5 -5q-40 50 -51 58t-22 14q9 -12 25.5 -23.5t7.5 -35.5q-4 -4 -27 -11t-36 4q-33 25 -55 62t-32 74
q-8 42 -23 68t-38 88q-5 28 -19 4t-32 -20q-16 2 -22 17t-10 28q0 -48 1 -71q0 -14 3 -26.5t3 -25.5q-3 -48 2.5 -98t-19.5 -92q-12 -20 -45.5 -17.5t-55.5 12.5q-17 8 -15 27.5t-1 34.5q-5 -14 -4.5 -33.5t-15.5 -23.5q-24 -7 -55.5 -0.5t-36.5 26.5q-20 54 -8 113.5
t13 116.5q0 46 0.5 94t5.5 94q1 44 0.5 89t14.5 88q4 10 21 10t30 4q-29 6 -31 8q-9 14 -20 35t5 31zM618 604q-32 -19 -63.5 -37t-59.5 -38q-20 -18 -16 -30q3 -20 27 -4q32 25 57.5 53t54.5 56z" />
    <glyph glyph-name="afii10029" unicode="&#x41b;" horiz-adv-x="817" 
d="M545 735q49 -61 71 -140q10 -39 22 -77t21 -76q5 -24 1.5 -43t-2.5 -34q4 7 5 16t4 19q5 15 16 0q28 -72 52.5 -151t29.5 -158q1 -40 -20.5 -54.5t-37.5 -10.5q-24 4 -16 35t-17 55q6 -21 8.5 -49.5t-9.5 -44.5q-15 -17 -67 -22q-56 -3 -69 17q-45 52 -42 122
q0 67 -20 129q-9 21 -8.5 49.5t0.5 50.5q-2 -4 -6.5 -15.5t-10.5 -43.5q-14 45 1.5 101.5t-7.5 63.5q-6 -2 -16 -11.5t-7 -35.5q0 -15 -9 -26.5t-19 -27.5l-25 -88q-1 -17 -10 -32.5t-8 -32.5q1 -18 -19 -39t-33 -38q-6 -10 -21 -4.5t-27 11.5q9 -15 22.5 -18t15.5 -19
q0 -8 -13.5 -31t-16.5 -35q-10 -24 -25 -30q-18 -8 -38 -13t-64 -10q-89 -11 -105 26q-31 59 -4 132q12 35 53.5 89t53.5 87q17 47 74 143q26 43 33.5 82t41.5 37q-6 11 -15 8t-5 7q12 23 28.5 51t43.5 49q16 12 32 12.5t27 9.5q25 18 81 26q18 1 40 -1t35 -17zM437 626
q23 28 51 -1q28 -31 57 -75q-16 27 -27 64q-10 35 -37 53q-11 8 -21 -12q-17 -6 -20 -14.5t-3 -14.5zM86 77q5 39 17.5 74.5t29.5 70.5q-37 -40 -50 -73t3 -72z" />
    <glyph glyph-name="afii10030" unicode="&#x41c;" horiz-adv-x="1058" 
d="M280 729q18 23 68.5 17t74.5 -25q21 -17 29.5 -53.5t35.5 -79.5q5 -11 -4.5 -11t-13.5 -15q11 7 20.5 1.5t22.5 -7.5q13 -4 17.5 -32.5t15.5 -18.5q22 19 27.5 54.5t16.5 63.5q21 63 26.5 89t62.5 26q18 0 23.5 -30.5t15.5 -48.5q0 20 -3 38.5t11 33.5q7 9 24 11t23 -9
q19 -47 32 -108.5t17 -111.5q0 -15 -14 -27t-22 -25q14 4 31 17.5t27 1.5q29 -36 43 -84t29 -93q18 -64 50 -132t11 -130q-12 -37 -94 -35.5t-118 11.5q-14 4 -24.5 27.5t-10.5 40.5q-1 15 9.5 30.5t17.5 30.5q-11 -7 -24 -13.5t-19 1.5q-28 31 -30 65.5t-8 67.5
q0 39 -5.5 75.5t-7.5 61.5q-59 -29 -79.5 -99t-42.5 -70q-41 -2 -53 23.5t-20 39.5q-14 23 -36 53.5t-22 60.5q-1 19 20.5 22.5t25.5 19.5q-12 -13 -32 -12t-27 -13q-16 -29 -18.5 -57.5t-11.5 -64.5q-9 -9 -8 16t-8 43q0 -13 -0.5 -48.5t-6.5 -50.5q-18 -59 -17.5 -127.5
t-39.5 -121.5q-14 -19 -63.5 -15.5t-62.5 21.5q-11 15 -9 43.5t8 48.5q-15 -19 -12 -51t-18 -37q-16 -4 -32.5 10t-20.5 54q18 156 69 299q10 15 15.5 0.5t13.5 -28.5q3 16 0 34t-1 42q21 75 40 152.5t66 137.5zM379 621q-11 9 -20.5 29t-20.5 12q-25 -18 -34 -53t-24 -63
q27 46 52.5 74.5t46.5 0.5z" />
    <glyph glyph-name="afii10031" unicode="&#x41d;" horiz-adv-x="791" 
d="M76 714q0 12 14.5 15.5t25.5 3.5q32 0 37.5 -9t12.5 -13q7 4 14 12.5t17 9.5q43 3 75.5 5t48.5 -12q14 -18 13 -44.5t-4 -50.5q0 -7 -11 -10.5t-11 -10.5q0 -28 9.5 -55.5t12.5 -53.5q3 -18 1.5 -56.5t-1.5 -56.5q1 7 3 35t4 36q3 10 4 22.5t11 16.5q20 7 57.5 4.5
t60.5 -1.5q-2 58 -13.5 117.5t6.5 114.5q7 22 37.5 16.5t50.5 -16.5q67 -7 68.5 -26t8.5 -33q4 12 6 28.5t15 23.5q11 7 33.5 9t25.5 -13q13 -73 18 -203t-6 -136q-3 -17 -17.5 17t-21.5 75q2 -10 4 -39.5t13 -54.5q5 -20 15 -28.5t10 -24.5q-3 -80 -10.5 -161.5
t-12.5 -158.5q-1 -9 -22.5 3.5t-27.5 18.5q-9 -6 -33.5 -13.5t-72.5 -8.5q-12 -1 -27.5 -0.5t-18.5 12.5q-16 61 -5.5 131t-14.5 127q-11 25 -59 15.5t-71 -0.5q-10 5 -13.5 15t-7.5 20q-2 -11 -4 -20t-2 -18q-8 -71 -8 -144t-18 -142q-3 -13 -31.5 -1t-34.5 24
q-39 25 -42 53.5t-8 55.5q0 -27 5 -55.5t-5 -53.5q-6 -15 -36.5 -16.5t-44.5 1.5q-22 3 -22 27q-8 84 -9.5 171.5t9.5 172.5q0 11 13.5 11.5t24.5 4.5q-10 11 -20.5 38.5t-11.5 41.5q-8 57 -12 117.5t6 117.5zM498 383q27 -15 38 -41t58 -56q-45 25 -45.5 50.5t-12.5 46.5
q-5 9 -17 4.5t-21 -4.5z" />
    <glyph glyph-name="afii10032" unicode="&#x41e;" horiz-adv-x="784" 
d="M299 672q-15 -3 -31.5 -3t-28.5 -10q-11 -8 -15.5 -24t-10.5 -29q35 52 86 66zM579 33q2 -16 -23 -18q-36 -9 -73 -18t-143 0q-44 9 -103.5 29t-120.5 59q-21 23 -34.5 62t-15.5 73q-1 17 25 36.5t32 55.5q-8 -26 -33 -41t-32 -10q-10 4 -9.5 22t0.5 29q-9 62 -9 123.5
t26 135.5q7 37 43.5 71t66.5 63q34 19 87 32.5t79 10.5q14 -7 11 -29.5t-31 -56.5q31 11 37.5 41t34.5 50q16 1 88 0t93 -14q38 -25 60.5 -62.5t49.5 -78.5q26 -42 25 -103q0 -16 -13.5 -48.5t-24.5 -65.5q20 33 27.5 53t20.5 21q13 -16 17 -39.5t4 -44.5q-1 -39 -6 -78
t-20 -72q-22 -48 -53.5 -89.5t-45.5 -75.5q-8 -7 -43 6.5t-44 16.5q5 -9 32 -22.5t18 -23.5zM437 640q-4 -15 -23.5 -39.5t-42.5 -28.5q-19 -11 -40.5 -15t-34.5 -26q-22 -34 -28.5 -69.5t-15.5 -74.5q-10 -37 -26 -65q9 4 18 21t15 9q18 -27 25 -60.5t28 -57.5
q20 -25 44.5 -48t48.5 -5q28 20 63.5 30.5t37.5 49.5q-2 51 16.5 72t50.5 46q-11 0 -19.5 -7.5t-16.5 -5.5q-31 -16 -32 27t-6 82q-6 40 -23 53q-15 10 -27.5 24.5t-28.5 23.5q-11 6 3 23t14 41zM425 81q-12 4 -24.5 10.5t-35.5 -4.5q-35 -4 -59.5 0.5t-62.5 23.5
q48 -41 80.5 -46t101.5 16z" />
    <glyph glyph-name="afii10033" unicode="&#x41f;" horiz-adv-x="791" 
d="M71 737q0 11 15 15t27 4q25 0 30.5 -9t17.5 -14q7 5 14 13t17 10q44 2 189 -18q2 -19 3 -35t4 -9q2 10 3 23.5t11 16.5q21 8 32 7.5t35 0.5q61 25 82 14q62 -8 64 -27.5t9 -34.5q4 13 6.5 30t14.5 24q12 8 36.5 9.5t27.5 -13.5q14 -76 19 -210.5t-6 -140.5
q-4 -18 -18.5 17t-20.5 78q1 -10 2.5 -41t13.5 -57q6 -20 16 -28.5t10 -26.5q-3 -83 -6.5 -167.5t-8.5 -164.5q-1 -9 -26 -3.5t-32 27.5q-9 -6 -34.5 -14t-73.5 -10q-13 -1 -29 -0.5t-18 13.5q-16 64 -7.5 239.5t-16.5 235.5q-12 25 -60.5 16t-71.5 1q-10 3 -13.5 14
t-7.5 21q-3 -11 -5 -20.5t-2 -18.5q-7 -74 -5 -253.5t-16 -251.5q-12 -12 -47.5 -4.5t-52.5 16.5q-6 37 -9 67t-9 58q0 -28 5.5 -58t-5.5 -55q-6 -15 -36 -16.5t-43 1.5q-24 3 -24 28q-6 87 -7.5 177.5t7.5 179.5q0 11 14 11.5t24 4.5q-9 11 -19.5 40t-11.5 43
q-8 60 -11.5 122.5t4.5 122.5zM557 244q28 -15 39.5 -42.5t56.5 -58.5q-43 26 -43.5 52.5t-13.5 48.5q-5 8 -17 4t-22 -4z" />
    <glyph glyph-name="afii10034" unicode="&#x420;" horiz-adv-x="743" 
d="M73 76q0 38 1.5 77.5t3.5 79.5q1 35 0 72t9 71q2 10 16.5 14.5t25.5 11.5q-10 1 -23.5 -0.5t-15.5 8.5q-11 54 -10.5 110.5t2.5 112.5q0 24 -0.5 50.5t18.5 43.5t50 19t57 -7q62 -5 78 -20.5t31 -42.5q-1 14 -10.5 35t10.5 24q35 6 76.5 5.5t77.5 -17.5q12 -5 12.5 -21
t4.5 -28q4 8 5.5 20.5t12.5 12.5q24 0 68 -18.5t60 -37.5q27 -35 42 -78.5t22 -87.5q3 -31 -5 -64t-22 -62q-28 -61 -111 -85q-28 -14 -62.5 -17.5t-65.5 -2.5q-20 0 -55.5 4t-48.5 21q-14 18 -11.5 44t7.5 48q5 28 29 34q26 7 67.5 -0.5t63.5 8.5q18 14 23 40.5t3 49.5
q-2 14 -20 19.5t-23 18.5q-6 9 -3 20t3 23q-10 -8 -17 -18t-18 -13q-24 -7 -63 4t-47 -12q-26 -65 -22 -138t5 -142q0 -63 18.5 -125.5t3.5 -122.5q-6 -20 -71 -13t-83 17q-12 6 -13 21.5t-5 28.5q-11 -16 -19.5 -35t-22.5 -32q-7 -6 -19 -8t-15 4q-9 16 -7 36.5t2 39.5z
M573 385q-16 -10 -30 -23t-34 -18q-30 -6 -60 -4.5t-83 1.5q55 -7 87.5 -20.5t63.5 -6.5q25 6 33.5 29.5t22.5 41.5z" />
    <glyph glyph-name="afii10035" unicode="&#x421;" horiz-adv-x="750" 
d="M616 714q50 -28 70 -79q2 -78 -6 -69q-24 1 -52.5 15.5t-52.5 24.5q11 -8 26 -17t33 -22q39 -21 19 -36q-19 -17 -29 -30t-28 -4q-31 18 -59.5 25t-81.5 16q-3 2 -11 9t-16.5 13.5t-16 14t-10.5 11.5q-4 -11 11 -27q13 -17 -27 -13q-30 1 -38.5 -3.5t-38.5 -28.5
q-25 -16 -45 -115q-1 -26 6.5 -53t10.5 -50q6 -14 -3 -37t3 -59q-2 20 -1 30.5t3 15.5t5 6t8 1q9 -5 19.5 -12.5t23 -16t24.5 -15t24 -7.5q44 -20 98 3q12 5 21.5 14.5t18.5 19l18 19t21 16.5q20 38 58 6q27 -41 -4 -39q4 -8 -8.5 -17.5t-16.5 -18.5q15 4 29 18q14 13 29 1
q30 -1 41 -27q27 -19 19 -28q-18 -27 -55.5 -65.5t-106.5 -72.5q-66 -31 -141 -30t-151 18q-47 12 -75.5 38.5t-56.5 61.5q-6 11 -12 24t-8.5 26.5t-4 25.5t0.5 19q-11 -10 -8 -35q1 -12 -2.5 -9t-12.5 22q-40 59 -40 172q0 60 17 120t44 118q34 60 92 94q24 11 45 20
t42 14.5t42.5 9t50.5 6.5q51 2 91.5 -2t77 -8t77.5 -22zM265 659q-33 0 -47 -7q-39 -22 -43 -55q-5 -35 -14 -63q8 16 12.5 31t9.5 32q11 33 50 51q18 1 27 1h23q-17 10 -18 10zM571 107q-27 -7 -55.5 -16.5t-57.5 -10.5q-30 -2 -59 3t-56 8q24 -12 49.5 -20t53.5 -6
q36 3 64 14.5t61 27.5z" />
    <glyph glyph-name="afii10036" unicode="&#x422;" horiz-adv-x="644" 
d="M248 159q-4 -51 -31 -84q9 8 19.5 12.5t14.5 15.5q5 13 1 27.5t-4 28.5zM309 522q23 -38 27 -88q0 17 4.5 35t1.5 32q-3 10 -13.5 13.5t-19.5 7.5zM22 511q-1 37 -4.5 70t2.5 70q0 9 11 12t19 3q45 -8 90.5 -1.5t87.5 4.5q13 -1 12 -26t4 -41q1 21 -2.5 44.5t9.5 35.5
q25 24 58 32.5t65 14.5q45 7 91.5 15.5t91.5 -2.5q22 -6 45.5 -30t24.5 -54q0 -34 -3.5 -90t-28.5 -67q-35 -15 -81 14t-87 36q-12 0 -21 11.5t-19 18.5q3 -11 10 -23t7 -22q2 -96 -8 -196q-3 -20 -11.5 -39.5t-14.5 -40.5q6 -9 16 -16.5t10 -17.5q0 -52 4.5 -111.5
t-26.5 -89.5q-19 -15 -52.5 -18t-61.5 -13q-18 -7 -44.5 1.5t-26.5 29.5q-4 76 9 151t19 144q1 11 12 18.5t19 15.5q-3 4 -8.5 8t-8.5 9q-10 31 2.5 77t-5.5 49q-37 8 -80 -10.5t-84 -6.5q-12 3 -27 10t-15 21z" />
    <glyph glyph-name="afii10037" unicode="&#x423;" horiz-adv-x="740" 
d="M197 406q-25 27 -76 67t-50 75q-1 7 14 7t25 3q-20 8 -41 11.5t-34 16.5q-14 13 -24 34t-2 37q9 22 39.5 46.5t54.5 32.5q13 9 33 13t37 -6q19 -12 35 -34t32 -50q24 -89 58.5 -97.5t69.5 -90.5q36 98 89.5 172t53.5 105q11 11 39 6t36 -17q11 -16 -1 -38t-15 -42
q19 35 35 53t43 38q55 -3 66.5 -9t7.5 -62q-19 -66 -60 -103.5t-73 -88.5q-21 -25 -32.5 -58.5t-43.5 -97.5q-23 -42 -32 -89t-21 -99q-3 -9 -28.5 11t-37.5 19q14 -10 43.5 -36.5t-9.5 -75t-145 -61.5q-53 -1 -123 3t-52 148q159 58 153 15.5t28 -69.5q-11 8 -13 65.5
t-5 94.5q0 60 -23.5 89t-50.5 62zM405 415q-12 -15 -25 -24t-21 -38q-5 -23 3.5 -43t12.5 -41q-9 64 30 146z" />
    <glyph glyph-name="afii10038" unicode="&#x424;" horiz-adv-x="1040" 
d="M620 745q5 -7 3.5 -15.5t-1.5 -32.5q1 -7 1 -23q5 2 8 3q33 6 73 5.5t75 -16.5q11 -5 12 -21t4 -28q4 9 5 30.5t12 21.5q25 0 66 -19q41 -17 58 -36q26 -34 41.5 -86t22.5 -96q1 -15 0 -48.5t-4 -70t-8.5 -69t-11.5 -47.5q-28 -62 -106 -84q-27 -15 -60.5 -18.5
t-62.5 -3.5q-10 0 -31 -3.5t-38 -1.5h-24.5h-34.5q1 -45 0.5 -69t-66.5 -16q-31 3 -36.5 2.5t-7.5 10.5q-3 15 -11.5 10t-19.5 -17q-6 -6 -32.5 -7t-29.5 6q-9 15 -5 28.5t5 32.5v9v11q-1 -1 -7 -2q-34 -7 -73.5 -7t-75.5 18q-11 4 -12 20t-4 28q-4 -9 -5 -30t-12 -21
q-26 0 -65 18q-42 17 -58 36q-27 34 -42.5 86t-21.5 96q-2 15 -1 48t4 70t8 69.5t13 47.5q26 60 106 85q26 14 59.5 17.5t63.5 3.5q9 0 30 3.5t38 1.5q7 -1 22 -0.5t33 1.5q-3 26 -2 38t5 22q6 13 21.5 11.5l46.5 -4.5q31 -5 33 -7t10 -6q11 -6 9 -25.5t9 -23.5
q-3 6 -3.5 28t13.5 34q6 7 32 7.5t30 -5.5zM624 630q1 -3 3 -6l4 -6q-1 5 -2.5 11.5t-4.5 15.5v-8v-7zM620 250q36 -4 43 -2q12 3 31 6t39 0q20 -4 30 14t21 26q17 14 15.5 51t-3.5 61q-1 6 -2.5 23t-9.5 19q-11 3 -6 33t-2 47q-2 -45 -33 -30q-12 -4 -25 3.5t-32 12.5
q-19 4 -38 -5.5t-23 -19.5q-11 -31 -9 -114.5t4 -124.5zM882 222q-15 -10 -28.5 -23t-32.5 -18q-29 -6 -58 -5t-80 1q54 -7 84 -20q31 -13 62 -5q24 5 31 28q8 23 22 42zM416 511q-38 3 -39 3q-14 -5 -32.5 -7.5t-37.5 1.5q-21 3 -31 -15t-21 -26q-17 -15 -15.5 -52t3.5 -60
q1 -7 2.5 -23t10.5 -19t5 -33.5t2 -46.5q2 45 33 31q11 4 24.5 -4.5t32.5 -12.5q18 -5 35 6.5t21 22.5q11 30 9.5 111.5t-2.5 123.5zM143 517q20 21 31.5 36.5t32.5 16.5q32 1 62 16.5t82 16.5q-68 8 -134.5 -4.5t-73.5 -81.5z" />
    <glyph glyph-name="afii10039" unicode="&#x425;" horiz-adv-x="775" 
d="M216 323q12 10 24.5 23t25.5 25q-16 -3 -35 -11t-30 3q-50 37 -79.5 123.5t-63.5 138.5q-8 9 -6 28.5t15 19.5q29 0 54 -20t53 -33q-19 21 -47 38.5t-27 45.5q0 26 58 38t75 -2q52 -42 75.5 -137t74.5 -113q33 -12 42 42t40 73q9 7 21 -6t25 -21q-7 15 -20.5 32t-2.5 26
q105 100 138 110q34 10 90.5 -11.5t52.5 -62.5q-2 -28 -40.5 -77t-59.5 -70q-11 -10 -30 1.5t-35 16.5q9 -12 25.5 -22.5t10.5 -21.5q-23 -47 -65.5 -85t-76.5 -78q17 7 34 22t34 9q64 -27 98 -89.5t86 -105.5q15 -12 15 -40q0 -14 1.5 -33.5t-11.5 -19.5q-31 0 -59 18.5
t-57 29.5q25 -18 59 -32t43 -42q5 -18 -19 -31t-41 -19q-17 -5 -36.5 -7.5t-32.5 4.5q-65 30 -100 103t-104 87q-32 4 -50 -34.5t-47 -49.5q-13 -5 -25.5 5t-26.5 17q5 -11 14.5 -23t4.5 -21q-22 -44 -66 -58q-25 -9 -56.5 -12.5t-56.5 7.5q-29 11 -57.5 35t-28.5 54
q0 35 27 65t56 50q8 7 22.5 -5t27.5 -18q-6 12 -17 23t-6 21q13 25 42.5 41.5t50.5 35.5z" />
    <glyph glyph-name="afii10040" unicode="&#x426;" horiz-adv-x="810" 
d="M140 -2q-40 -12 -59 12t-24 60t-1 73.5t11 53.5q-13 58 -7.5 131t1.5 160q-4 86 -6 145t4 91q2 12 24.5 14t49 -2t50.5 -11t31 -12q6 22 30 27q22 5 24 -3q4 -79 8 -163t7 -165q0 -18 -9.5 -26.5t-15.5 -28.5q-12 -26 -13 -56q-1 -15 -1.5 -25t-0.5 -15q4 39 19 76
q13 34 18 18q9 -7 5 -139q0 -13 -1 -37q3 0 6.5 0.5t8.5 1.5q23 4 58 5t67.5 3t57 9t24.5 24q3 36 0.5 113.5t-2.5 167.5q-2 169 15 235q11 12 44 5q17 -5 29 -2.5t20 -1.5q4 -2 -1 -25t1 -48q0 25 10.5 50.5t40.5 27.5q27 1 40 -2q23 -4 23 -28q3 -43 4.5 -69t1.5 -48.5
t-1.5 -49t-4.5 -70.5q-1 -11 -12.5 -25t-27.5 -50q23 29 31.5 32t10 -8.5t-1 -31t-0.5 -37.5q2 -15 4 -74t-38 -81q20 -5 49.5 -16t40.5 -22q20 -23 6 -57.5t-16 -60.5q-17 -5 -37 -15q-24 -13 -26 -56q6 39 33 50q29 9 34 -2q4 -38 7.5 -48.5t4.5 -50.5q0 -41 1 -41t1 -34
q-11 -28 -53 -21q-21 4 -37.5 6t-26.5 3q-11 17 -15.5 31.5t-6.5 27.5q-6 -12 -1 -40q3 -26 -17 -18q-14 -7 -18 -8.5t-18 6.5q-12 9 -12 22t2 25q5 34 3.5 62t-2.5 49q-1 9 -38.5 10.5t-89.5 0t-109 -4t-100 -0.5q-42 1 -49.5 16t-13.5 41q-7 -16 -9 -34q0 -10 -5 -14.5
t-34 -7.5zM137 453q8 3 20.5 26.5t14.5 32.5q8 37 4.5 48t16.5 50q-21 -15 -25.5 -36t-4.5 -35q-1 -15 -8.5 -45t-17.5 -41z" />
    <glyph glyph-name="afii10041" unicode="&#x427;" horiz-adv-x="763" 
d="M91 733q13 -2 24.5 -5t26.5 -80q2 78 6 82.5t11 6.5q24 3 94.5 7t44.5 -21q39 -35 12.5 -68.5t-29.5 -67.5q-4 -21 -26 -35t8 -40q-14 -41 27.5 -45t68.5 -21q-35 4 -57.5 -16.5t-35 -37t-17.5 0.5q-23 -10 10 -15q4 -3 24.5 13.5t52.5 24.5q46 15 80 23.5t56 42.5
q3 9 23 -17q-10 45 -7 57q-11 193 7 211q71 44 194 0q7 -124 5 -173q-60 -66 -3 -23q-8 -80 -13 -99t-20 -25q-43 -3 -50 -9t-52 -34q47 25 61 28t42 6q15 3 15 -19t-5 -33q-8 -10 14 -99q-2 -18 -1 -92t-8 -116q-8 -41 -18 -41q-43 -3 -56 -5q8 13 -13 21q-7 -21 -18 -22
q-146 -5 -139.5 18t4.5 34q-12 35 10 68q8 18 28 29q45 3 63 56q-88 -92 -87 -9t-66 64.5t-219 3.5q-44 19 -52 38.5t-6 34.5q2 50 -1.5 91.5t4.5 94.5q5 37 -4 77t-24 76q-31 69 11 59zM211 651q0 -41 -18 -68.5t-28 -48.5q10 12 32 10q12 23 19.5 49t-5.5 58z" />
    <glyph glyph-name="afii10042" unicode="&#x428;" horiz-adv-x="1118" 
d="M62 23q-7 58 -4 119t11 120q1 16 11 42q8 29 17 39q-9 3 -22 4t-13 12q-8 87 -6.5 175t6.5 174q0 23 23 27q11 3 39 2q25 -1 32 -17q10 -24 5 -53.5t-5 -56.5q4 27 7 56.5t9 65.5q14 7 47 16q33 7 43 -4q16 -72 15 -246q-1 -88 -2.5 -178.5t2.5 -126.5q0 -12 6 -38
q2 9 6 20t13 14q20 10 64 1q44 -8 55 16q11 29 17 115.5t2 172.5q-7 175 7 233q3 13 17.5 13.5t24.5 -0.5q44 -2 66.5 -10t31.5 -13q6 21 30 26q21 5 23 -3q4 -78 7.5 -161t6.5 -164q0 -17 -10 -25.5t-15 -27.5q-11 -27 -11 -56q-2 -36 -3 -40q5 39 18 76q13 32 18 17
q9 -6 5 -137q0 -13 -2 -37q4 0 7.5 1t8.5 1q43 9 102.5 15.5t59.5 40.5q3 36 2.5 101.5t-0.5 153.5q-2 178 15 246q10 11 43 4q32 -9 47 -16q5 -36 8 -65.5t8 -56.5q0 27 -5.5 56.5t5.5 53.5q6 16 33 17q26 1 38 -2q22 -4 22 -27q5 -86 4.5 -107t-8.5 -108q0 -11 -7 0
t-26 63q10 -76 37 -119q-4 -23 -7.5 -29t-2.5 -12q7 -59 12.5 -187t-2.5 -186v0q0 -12 -13.5 -15.5t-23.5 -3.5q-25 0 -28 9q-6 9 -16 13q-6 -5 -12.5 -12.5t-15.5 -9.5q-42 -2 -170 17q0 9 -1 21t-5 22q-14 -38 -39 -48.5t-100 -7.5q-41 2 -48 16.5t-14 39.5q-7 -15 -8 -33
q-3 -20 -58 -27q-20 -11 -73 14q-23 0 -32.5 -0.5t-29.5 7.5q-9 2 -9.5 15.5t-2.5 23.5q-3 6 -4 -9.5t-3 -33.5q-129 -19 -170 -17q-9 2 -15.5 9.5t-13.5 12.5q-9 -4 -15 -13q-5 -9 -27 -9q-11 0 -25 3.5t-14 15.5zM502 504q9 0 19 -4t15 4q12 21 12 48q1 26 40 51
q-41 -31 -52 -57q-9 -27 -34 -42z" />
    <glyph glyph-name="afii10043" unicode="&#x429;" horiz-adv-x="1137" 
d="M65 21q-8 59 -5 120t11 120q1 16 9 42q9 26 18 39q-9 4 -21 4t-12 12q-9 86 -7.5 175t7.5 174q0 24 21 27q11 3 37 2q26 -2 32 -17q10 -24 5 -53.5t-5 -56.5q5 27 7.5 57t8.5 65q11 7 45 16q32 7 42 -4q15 -67 14 -245q0 -89 -1.5 -179.5t1.5 -126.5q0 -12 7 -38
q2 9 5.5 20t12.5 14q17 10 62 1q43 -9 53 16q11 29 17 115t2 173q-7 172 7 234q2 11 16 11.5t25 0.5q42 -2 64.5 -9.5t30.5 -14.5q7 23 28 27q20 6 23 -3q4 -79 7 -161t6 -163q0 -19 -9 -27t-14 -28q-10 -24 -13 -55q0 -16 -0.5 -25.5t-0.5 -14.5q4 39 18 76q12 34 17 17
q9 -7 4 -137q0 -10 -0.5 -19t-0.5 -18q6 0 14 3q42 8 100.5 14.5t58.5 40.5q3 36 2.5 101.5t-0.5 154.5q-2 178 14 245q10 11 42 4q33 -9 45 -16q5 -35 8 -65t8 -57q0 27 -5 56.5t5 53.5q5 15 32 17q25 1 37 -2q21 -3 21 -27q2 -43 4 -69t2.5 -48t-1 -48.5t-5.5 -69.5
q0 -11 -11 -25t-25 -49q22 29 29.5 32t8.5 -8.5t-1.5 -31.5t-0.5 -37q2 -14 4 -72.5t-34 -79.5q17 -6 61 -13.5t54 -18.5q17 -22 4 -56.5t-13 -59.5q-20 -7 -36 -15q-21 -12 -23 -56q5 38 30 50q27 10 31 -2q5 -38 8.5 -48t3.5 -50t1 -40t1 -34q-9 -28 -49 -21
q-19 4 -45.5 6t-35.5 3q-11 17 -15 31.5t-6 26.5q-5 -13 -1 -39q3 -26 -16 -18q-26 -13 -55 4q-11 9 -11 22t3 24q8 67 6 107q-44 2 -138 16q-1 9 -1.5 21t-5.5 22q-12 -38 -36 -48.5t-98 -7.5q-40 2 -46.5 16.5t-12.5 39.5q-7 -12 -9 -33q-1 -20 -55 -27q-19 -11 -72 13
q-21 1 -31 0.5t-28 8.5q-9 2 -10 15.5t-2 22.5q-3 7 -4 -8.5t-3 -34.5q-126 -19 -165 -17q-9 2 -15.5 9.5t-12.5 12.5q-9 -4 -15 -13q-4 -9 -27 -9q-10 0 -23 4t-13 14zM490 503q9 0 19.5 -4t15.5 4q11 21 11 48q1 26 39 51q-40 -30 -50 -56q-9 -28 -35 -43z" />
    <glyph glyph-name="afii10044" unicode="&#x42a;" horiz-adv-x="823" 
d="M175 586h-8q-2 1 -6 5q-8 10 -19 9q-25 0 -53 -11q-29 -12 -48 -6q-11 5 -13 23q-3 19 1 36q3 10 14 16.5t39 15.5q-28 -2 -38 -4.5t-14 2.5q-7 8 -22 27q-12 16 3 24q43 27 91 29q22 0 46.5 -3t50.5 -7q24 2 51 5.5t53 5.5q55 6 74 -15q15 -5 -1 -35q-4 -6 -5 -14
q7 -4 10 -10q11 -55 -5 -113q-15 -60 -15 -118q0 -32 -1 -65.5t-4 -66.5q0 -13 7 -25t9 -25q2 -21 1.5 -44t6.5 -42q4 -11 30.5 -13.5t44.5 2.5q17 5 45 5t38 -4q9 -3 21.5 -5t21.5 -9q2 11 -9.5 19t16.5 24q16 9 19 28q2 21 -3.5 41.5t-20.5 32.5q-10 7 -58 13.5t-65 3.5
q-42 -9 -68 0q-21 6 -25 31q-4 20 -6 44.5t10 41.5q5 8 20.5 13t30.5 7q35 3 48 3h42t61.5 -2t60.5 -6t41 -11q70 -23 95 -78q12 -28 18.5 -58.5t4.5 -59.5q-6 -42 -15.5 -92.5t-32.5 -82.5q-13 -17 -52 -34t-57 -17q-10 0 -11.5 11.5t-3.5 18.5q-5 -11 -5.5 -23.5
t-9.5 -16.5q-17 -8 -50 -9.5t-69 0t-68 5.5t-48 8q-16 0 -8 23q7 18 8 31q-13 -26 -26 -39q-15 -15 -67 -20q-47 -16 -81 15q-16 16 -15.5 41t0.5 46q-2 52 -2.5 105t9.5 103q0 9 12.5 8t21.5 0q-10 5 -22.5 10t-14.5 14q-9 31 -8.5 65t0.5 68q-3 57 -3 105zM636 117
q19 4 42.5 2t36.5 16q17 23 17 53q-3 29 12 76q-18 -42 -27 -66.5t-25 -45.5q-11 -13 -26.5 -20t-29.5 -15zM284 606q39 41 36 67.5t-24 31.5q-27 5 -55 -6q-26 -13 -76 -20q45 0 71.5 1.5t51.5 -3.5q15 -6 10.5 -24.5t-14.5 -46.5z" />
    <glyph glyph-name="afii10045" unicode="&#x42b;" horiz-adv-x="1060" 
d="M69 478q-2 35 -9.5 111.5t9.5 107.5q3 6 13 32.5t17 21.5q11 -14 18.5 -60t17.5 -61q2 12 -10 63t-2 58q9 4 42.5 0.5t61.5 -0.5t35.5 -30.5t9.5 -42.5q11 -58 -4 -115q-6 -24 -3 -51.5t6 -57.5q7 5 18.5 1t24.5 -2q15 1 27 2t21 1q12 0 41 -0.5t61.5 -2.5t60.5 -6
t41 -10q70 -23 96 -80q12 -28 18.5 -58t3.5 -59q-6 -43 -15 -93.5t-33 -83.5q-14 -18 -51 -34q-39 -17 -58 -17q-9 0 -10.5 12t-4.5 18q-4 -11 -4.5 -23t-9.5 -17q-17 -8 -50 -9.5t-69 0.5t-68.5 5.5t-47.5 7.5q-17 1 -9 22q7 18 9 32q-15 -27 -27 -38q-13 -16 -66 -21
q-47 -16 -81 16q-17 15 -16 40t1 46q-2 54 -3 106.5t10 102.5q0 10 12 9t22 -1q-11 6 -23.5 11t-14.5 13q-8 32 -7.5 67t-0.5 67zM273 318q-2 -13 -6.5 -28.5t-2.5 -25.5q2 -23 1 -46t6 -42q4 -11 31 -14t44 3q17 5 45.5 5t38.5 -3q9 -4 21.5 -6t21.5 -9q2 11 -9.5 19
t16.5 24q16 10 18 28q2 22 -3 42t-20 32q-10 7 -58 14t-65 3q-43 -9 -68 0zM528 112q19 4 42.5 2t36.5 16q16 22 16 53q-2 30 12 78q-18 -43 -27 -67t-24 -46q-11 -13 -27 -19.5t-29 -16.5zM799 699q-13 0 6.5 21.5t22.5 22.5q22 9 48 11t48 -11q11 -7 9.5 -28t2.5 -39
q2 13 2.5 29.5t9.5 18.5q11 0 25 -12.5t14 -30.5q5 -59 2.5 -122t-5.5 -121q-2 -18 -18 -33t-18 -34q3 8 14.5 16t27.5 24q-2 -30 -1.5 -55t1.5 -44l3.5 -80.5t3.5 -56.5t4 -56.5t4 -82.5q1 -40 -25 -41.5t-48 -1.5q-42 -2 -59 10q-5 2 -6.5 21.5t3.5 30.5q11 27 4 47t-7 60
q-4 -23 -9 -57t-3 -58q2 -39 -30 -39.5t-32 25.5q-5 88 -3 127q3 20 5.5 51.5t7.5 76.5q0 8 10.5 8t17.5 4q-24 10 -26 24t1 31q-6 84 -9.5 170.5t2.5 173.5zM929 162q-10 45 -14 87.5t-3 96.5q-17 -40 -13 -80q3 -30 11.5 -51.5t18.5 -52.5z" />
    <glyph glyph-name="afii10046" unicode="&#x42c;" horiz-adv-x="727" 
d="M65 478q-2 33 -9.5 109.5t9.5 107.5q3 5 -2.5 28.5t31.5 23.5q15 0 8.5 -35.5t21.5 -64.5q-17 40 -10 67t16 33q8 5 36.5 1t55.5 -1q27 4 34.5 -29.5t10.5 -41.5q11 -55 -4 -114q-7 -24 -3.5 -51t5.5 -57q7 4 18.5 0t24.5 -1q14 0 26 1.5t21 1.5q12 0 41.5 -0.5t61 -2.5
t60 -6t40.5 -10q70 -24 96 -79q10 -28 17 -58.5t5 -58.5q-6 -42 -15.5 -92t-32.5 -83q-13 -18 -51 -33q-39 -18 -58 -18q-8 0 -10 12t-4 19q-5 -11 -5.5 -23.5t-10.5 -16.5q-16 -8 -48.5 -10t-68 0.5t-68 6t-47.5 7.5q-16 0 -8 23q7 21 8 30q-12 -24 -26 -37
q-13 -16 -67 -21q-46 -16 -80 15q-15 16 -15 40.5v46.5q-2 51 -2.5 104t10.5 103q0 10 12 8t20 -1q-9 6 -21 10.5t-14 13.5q-10 32 -9 66t0 67zM268 319q-2 -13 -7 -28t-3 -27q2 -21 1.5 -44t6.5 -41q4 -12 30 -15t44 3q16 5 44.5 4.5t38.5 -2.5q9 -4 21.5 -6t19.5 -9
q3 11 -8.5 19.5t16.5 23.5q17 9 18 28q2 21 -2.5 41.5t-20.5 31.5q-10 7 -57 14t-65 3q-41 -9 -67 0zM586 226q26 55 10 106t-83 65q31 -32 54 -73t19 -98zM192 687q6 -39 4.5 -76t-7.5 -74q6 11 14.5 21.5t8.5 26.5q0 24 -7 49.5t-13 52.5z" />
    <glyph glyph-name="afii10047" unicode="&#x42d;" horiz-adv-x="740" 
d="M423 725q-3 5 -5.5 11.5t-4.5 12.5q50 -6 92.5 -16.5t80.5 -44.5q-3 5 -8 15t-7 16q34 -15 58 -45t43 -59q26 -57 19 -122t-7 -123q0 -54 7 -101.5t-13 -76.5q-5 -24 -10 -29.5t-5 6.5q2 12 -10.5 43t-17.5 36q4 -14 16 -74t-4 -86q-22 -38 -69.5 -55t-93.5 -28
q-75 -17 -170.5 -14.5t-160.5 31.5q-58 31 -84.5 66t-34 68.5t-4 61.5t4.5 44q0 10 32 9q24 13 48 -4q20 0 22 -19q1 -18 11 -31q2 11 -1 24q-4 15 4 19q-13 8 5 9.5t41 8.5q49 2 41 -39q9 -25 8.5 -59.5t26.5 5.5q52 -22 96 -3q18 1 49.5 15.5t47.5 35.5q7 -9 6 -28
q6 16 9 32.5t-1 27.5q-5 11 5 36h-3.5h-2.5q5 8 13 18l0.5 1t0.5 2q1 8 1 12q-4 -6 -10 -12l-12 -12l-9 -9h-12.5h-12.5q-3 1 -6 5q-7 8 -19 7q-24 0 -52 -9q-29 -12 -47 -6q-11 4 -15 21q-2 14 2 30q3 9 14 15t39 13q-28 -2 -38 -4t-14 2q-5 6 -4.5 15t-4.5 15q-12 14 2 22
q21 11 37.5 14.5t40.5 3.5q23 0 46.5 -2t49.5 -6q4 0 7 0.5t8 0.5q-3 32 -1.5 55t-7.5 29q-15 11 -24.5 28t-12.5 19q-5 2 -29.5 -4t-39.5 -6q-43 -6 -26 12q15 18 8 33q-5 -9 -22 -21t-24 -5q-6 5 -26 -28.5t-41 -57.5q-14 -15 -28 -5q-7 4 -16 8.5t-20 9.5
q-12 4 -44 -13.5t-22 0.5q18 35 52 69q-23 -12 -42 -43t-42 -27q-13 0 -25.5 -7.5t-15.5 30.5q-3 39 21.5 81t68.5 76.5t100.5 57t118.5 24.5q28 1 43 -4t36 -24zM462 652q33 0 62 -10t40 -46q5 -16 11 -35t14 -33q-4 13 -6 31t-4 35q-2 15 -10.5 30.5t-27.5 26.5
q-18 10 -41.5 10t-37.5 -9zM186 115q32 -16 59.5 -27t63.5 -14q27 -2 52.5 5.5t48.5 19.5q-27 -3 -55.5 -8t-57.5 -3q-29 0 -57 10t-54 17z" />
    <glyph glyph-name="afii10048" unicode="&#x42e;" horiz-adv-x="1122" 
d="M870 432q11 0 12 16.5t-3 36t-11.5 37t-12.5 21.5q-15 10 -29 18t-18 10t-22 6t-33 4q-22 -2 -34 -4.5t-5 4.5q10 11 3 25q-5 -9 -23 -21t-24 -6q-7 6 -39 -10.5t-38 -64.5q-2 -10 -13.5 -19.5t-14.5 -37.5q7 11 14 24.5t11 -5.5q7 -49 7 -117t-27 -88q10 0 16 -19
t12 -37.5t14 -27.5t23 11q28 -11 50 -22t45 -1q19 1 55 4t53 24q7 -8 7 -28q5 17 16.5 54t7.5 49q-3 6 19 20t28 36q-26 -22 -40 -22.5t-3 12.5q0 1 22.5 29t37.5 68q-20 -39 -43.5 -54t-23.5 -10q-4 28 2 42t2 43zM477 465q-9 20 6.5 50t33.5 47q-23 -11 -44.5 -46.5
t-43.5 -23.5q-5 -7 0.5 -9t15 -10t19.5 -29t15 -65q4 -45 -10.5 -72t1.5 -38q-6 35 9.5 17t13.5 -35q1 -19 11 -31q0 12 -3 27.5t7 14.5q-9 11 -13 40.5t-7 63t-5 62t-6 37.5zM312 294q2 6 6 13t8 16q9 21 3 39q1 -19 -12 -41q-7 -9 -11 -15.5t-6 -11.5q-2 0 -5.5 -1.5
t-9.5 1.5q-6 4 -22.5 50t-43.5 46q18 -8 36.5 -51t19.5 -57v-78.5t1 -39.5q1 -38 -2 -125q0 -26 -34 -25t-31 40q0 23 -4.5 56t-8.5 57q0 -40 -7.5 -60t4.5 -45q4 -12 2.5 -31t-5.5 -22q-21 -12 -62 -9q-23 0 -50.5 1.5t-25.5 40.5q3 90 8 137q2 21 3.5 55t3.5 80
q1 18 1.5 43t-1.5 55q16 -16 28 -24.5t16 -15.5q-2 18 -18.5 33t-19.5 32q-3 58 -11 149.5t-3 150.5q0 17 19.5 14t32.5 -3q10 -1 10 -32.5t3 -43.5q3 18 2 38t10 28q23 12 52 15t52 -5q20 -8 24.5 -68t2.5 -88q3 -16 1 -30t-26 -24q6 -4 17 -3.5t11 -8.5q0 -8 1 -22.5
t1 -31.5q8 -2 16 -3.5t17 -3.5q18 2 39 5.5t40 6.5q4 23 3 39q-4 39 9 82.5t50 78.5t101.5 57.5t163.5 20.5q29 -1 44.5 -5.5t37.5 -22.5q-4 5 -6.5 10.5t-4.5 12.5q53 -7 97.5 -16.5t83.5 -43.5q-2 4 -7 14.5t-8 15.5q35 -14 60.5 -44t45.5 -60q27 -56 20 -121t-7 -123
q0 -54 7 -101.5t-14 -75.5q-5 -25 -10.5 -30t-4.5 7q1 11 -11.5 42.5t-18.5 36.5q4 -15 16.5 -74.5t-3.5 -86.5q-24 -38 -73.5 -54.5t-97.5 -28.5q-79 -17 -179 -14.5t-168 32.5q-50 29 -76 69t-37.5 78.5t-12.5 71.5t1 50q-19 -5 -37 -2.5t-36 2.5zM131 167q10 30 19 50.5
t12 50.5q4 40 -13 79q1 -53 -3.5 -94.5t-14.5 -85.5zM833 654q35 0 65 -10t43 -45q5 -18 11 -36.5t15 -33.5q-5 13 -6.5 31t-3.5 35q-3 16 -12 31.5t-29 26.5q-18 9 -42.5 9t-40.5 -8zM545 117q33 -15 62 -26.5t66 -13.5q28 -3 54.5 5t51.5 20q-28 -3 -58 -8t-60 -3
q-31 1 -60 10.5t-56 15.5z" />
    <glyph glyph-name="afii10049" unicode="&#x42f;" horiz-adv-x="736" 
d="M671 271q2 -33 9.5 -108.5t-9.5 -105.5q-4 -6 2 -29.5t-31 -24.5q-17 0 -9.5 36t-20.5 65q15 -40 8.5 -67t-16.5 -34q-9 -5 -37.5 -1t-56.5 1q-29 -4 -36.5 29.5t-9.5 43.5q-13 56 3 111q7 23 3.5 32t-5.5 38q-8 -5 -20 -1t-24 3q-7 -1 -25.5 -1.5t-23.5 -0.5
q-6 -11 -17 -26.5t-21 -30.5q-2 -9 -8 -17t-35 -13q5 -3 16 -3t9 -5q-9 -25 -15.5 -43t-10.5 -29q-8 -20 -41 -73q-8 -15 -43.5 -14.5t-20.5 23.5q9 13 14.5 32.5t8.5 33.5q-14 -24 -27.5 -35.5t-8.5 -25.5q1 -7 -6.5 -18t-13.5 -12q-24 -8 -68 -6q-23 0 -52 0.5t-14 23.5
q31 51 51 79q9 13 21.5 32.5t29.5 46.5q6 10 15 24t16 32q12 -9 22 -14t11 -9q4 10 -9 18.5t-10 19.5q6 13 12.5 27t43.5 28q-48 4 -58 10q-72 21 -97 77q-13 27 -20 57t-4 59q6 41 15.5 91t33.5 83q14 17 54 33q39 17 58 17q9 0 10.5 -11.5t5.5 -18.5q3 11 3.5 22.5
t11.5 16.5q16 8 49.5 9.5t70.5 0t70 -5.5t49 -6q16 -3 9 -23q-7 -18 -9 -32q14 26 27 39q14 14 69 19q47 16 83 -15q15 -15 15 -39.5v-45.5q2 -52 2.5 -104t-9.5 -102q-1 -10 -13.5 -8.5t-21.5 1.5q10 -7 23 -11t15 -13q9 -32 8 -66t0 -66zM140 92q21 17 36.5 29t28.5 29
q16 22 11 45q-16 -30 -34 -54t-42 -49zM462 429q3 12 7 27.5t4 26.5q-4 22 -3 44.5t-5 41.5q-5 10 -32.5 12.5t-44.5 -2.5t-46.5 -5t-39.5 4q-9 3 -21.5 5.5t-21.5 8.5q-2 -11 9.5 -19t-16.5 -23q-18 -10 -19 -27q-3 -22 2.5 -42t21.5 -31q9 -8 58 -15t68 -3q42 9 69 0
q2 0 4.5 -1.5t5.5 -1.5zM134 521q-27 -54 -10 -104.5t85 -64.5q-31 30 -55.5 71.5t-19.5 97.5zM540 65q-6 37 -4.5 73.5t8.5 74.5q-6 -12 -15.5 -22.5t-9.5 -25.5q0 -25 7 -50.5t14 -49.5z" />
    <glyph glyph-name="afii10065" unicode="&#x430;" horiz-adv-x="609" 
d="M205 218v3q0 1 1 2q0 3 11 10q4 3 6 5.5t5 3.5t22.5 7t47.5 11q9 0 -2.5 -0.5t-20 -0.5t19 4.5t108.5 13.5q-18 4 -22.5 6.5t-17.5 5.5q-9 25 -36.5 53t-45.5 31q-2 12 13 23.5t23 24.5q-11 -7 -22 -13.5t-21 -13.5q-13 -8 -26.5 -15.5t-19.5 -19.5q-13 -23 -16 -39.5
t-12 -39.5q-7 -19 -20 -38t-22 -36q9 10 25 31.5t16 8.5q3 -49 3 -106.5t-7 -122.5q0 -35 -60.5 -20.5t-89.5 35.5q-19 14 -6 42t16 50q5 29 11.5 57.5t16.5 49.5q6 19 15 25t22 39q-26 -26 -31.5 -32t-6.5 22q-4 11 3 36.5t11 47.5q2 25 21.5 47.5t40.5 42.5
q26 21 55.5 44.5t64.5 28.5q28 5 57.5 -6t50.5 -28q8 -10 8 -25t4 -37q3 15 3 31t13 8q25 -21 39 -52.5t25 -63.5q25 -74 53 -149.5t26 -192.5q-1 -21 -22.5 -22.5t-41.5 7.5q-15 6 -18.5 23t-11.5 31q-1 -16 2.5 -31t-6.5 -27q-6 -7 -35.5 -1t-32.5 15q-12 25 -10 65t-3 66
l29 49l-60 -12q-28 6 -61 -10t-66 -9q-5 2 -7 5.5t-4 4.5q-3 1 -5 24q0 6 5 9q3 1 20.5 1.5t32.5 5.5q-6 0 -15 -0.5t-18 -0.5t-15.5 1.5t-7.5 4.5zM112 154q-6 -17 -13.5 -32.5t-7.5 -32.5q0 -8 9 -13t15 -11q-10 19 -9 41.5t6 47.5z" />
    <glyph glyph-name="afii10066" unicode="&#x431;" horiz-adv-x="609" 
d="M53 77q-14 10 -3 27q10 15 13 26q10 28 6 35q-1 24 7 53q-1 5 -2.5 11t-1.5 11q-5 29 -5 64t3 66q38 12 78 57q-42 -40 -78 -45l5 16q4 24 7.5 44.5t9.5 47.5q6 16 28.5 10t36.5 -15q4 9 -26 21t1 21q32 9 65.5 5.5t71.5 -4.5q30 -1 65 -2.5t67 -10.5q13 -5 18.5 -16.5
t12.5 -20.5q0 7 -1 18.5t7 8.5q34 -8 73 3q36 10 53 -13q22 -30 14 -57t-23 -58q-19 -29 -163 13q-105 31 -144.5 6t-4.5 -103q92 7 171 -9t98 -34q39 -37 35 -75q30 -34 23 -87q-6 -51 -41 -72q-47 -28 -122 -21q-79 5 -144 0q-52 6 -92 3q-43 -3 -87 9q-27 6 -27 40
q-2 19 16 19q21 0 48 4zM363 48q51 6 88 26.5t44 62.5q-17 -29 -49 -51t-83 -38zM247 191q-3 -14 -4 -24t-2 -15q0 -9 -9 -38q4 -15 28 -17q25 -2 44.5 1.5t39.5 8.5q32 5 47 28q11 10 7 37q-20 18 -42 20.5t-50 3.5z" />
    <glyph glyph-name="afii10067" unicode="&#x432;" horiz-adv-x="580" 
d="M44 78q-14 11 -3 27.5t12 24.5q5 15 6.5 22.5t-1.5 11.5q0 23 8 53q-2 10 -5 21q-5 36 1 74.5t8 53.5q35 13 72 56q-39 -38 -72 -43q1 9 3 16q9 47 19 98q0 8 17 0.5t32 -7.5q-7 7 -18.5 19t-1.5 15q29 10 64.5 7t68.5 -4q29 -2 62 -3.5t62 -9.5q12 -4 17 -16t13 -21
q1 7 0 18t6 9q31 -8 66.5 -20.5t50.5 -35.5q20 -29 -2 -60t-37 -61q-13 -25 -46.5 -37t-28.5 -14q15 -13 53.5 -35.5t35.5 -60.5q28 -33 21.5 -84t-39.5 -72q-43 -26 -115 -20.5t-133 -0.5q-47 7 -86.5 4t-81.5 8q-26 6 -26 40q0 18 15 18.5t45 3.5zM229 133q21 -17 42 -13
t45 16q23 10 22 31.5t-12 34.5q-10 10 -25 21t-30 16q-38 10 -36.5 33t20.5 43q13 13 38.5 16.5t42.5 13.5q10 6 20.5 16t8.5 20q-4 12 -19 19.5t-27 11.5q-18 5 -37 5t-37 2q-10 0 -26.5 3.5t-26.5 3.5q8 -5 25.5 -10.5t22.5 -5.5q1 -16 -6.5 -26t-7.5 -19q-3 -26 3 -52
t-8 -56q1 0 -11.5 5t-19.5 17q1 -22 8 -24.5t17 -8.5q-8 -44 -7 -71t21 -42zM417 136q-15 -27 -45 -49.5t-79 -37.5q59 9 91 31q18 12 24 25.5t9 30.5zM290 303q-18 -5 -24 -14.5t8 -7.5q18 1 34 13.5t31 23.5q-14 -3 -26 -8t-23 -7z" />
    <glyph glyph-name="afii10068" unicode="&#x433;" horiz-adv-x="457" 
d="M148 196q-2 -9 -7.5 -17.5t-3.5 -17.5q2 -17 9.5 -34t14.5 -33q-9 28 -11 52.5t-2 49.5zM430 485q0 -14 1.5 -38.5t-5.5 -37.5q-4 -6 -27.5 -7t-49.5 2t-53 7.5t-38 9.5q3 -3 18 -9.5t20 -8.5q-79 12 -105.5 15.5t-35.5 -2.5v0h1.5h0.5q9 -5 7.5 -16.5t1.5 -21.5
q2 7 2 16.5t8 9.5q22 0 23 -23q3 -33 3 -51.5t-3 -51.5q-1 -10 -11.5 -18.5t-11.5 -18.5q2 6 26 22v-30v-24q2 -26 3 -60.5t3 -47.5q1 -12 2 -31t3 -45q0 -5 -1.5 -13t-5.5 -8q-19 -3 -48 -4q-27 0 -40 6q-8 3 0 15q6 11 5 20q-4 14 -5 26.5t-5 26.5q-3 -10 -3.5 -20.5
t-2.5 -18.5q-10 -14 -10 -24q1 -7 -1.5 -14.5t-7.5 -11.5q-16 -6 -27 0t-11 11q-1 25 -2.5 45.5t1.5 31.5q1 10 3 28t6 43q0 4 8 4t12 3q-4 6 -15 13t-11 15q-3 25 -4 50t1 50q0 19 2.5 38.5t1.5 38.5q-1 10 -2.5 18.5t-1.5 15.5q1 14 6.5 22.5t8.5 11.5q-10 -5 -15 -4
t-5 17q2 4 1.5 31t6.5 25q22 -7 15.5 -4t-0.5 6q4 4 15 -1.5t26 -2.5q11 1 56.5 4.5t97 5t96.5 -1t55 -11.5q3 -11 -18.5 -17t-28.5 -4q32 -5 44 2.5t16 23.5q1 -7 2.5 -14t1.5 -14z" />
    <glyph glyph-name="afii10069" unicode="&#x434;" horiz-adv-x="659" 
d="M277 397q1 -19 0 -36.5t0 -41.5q0 -19 -12 -36.5t-14 -66.5q18 45 22.5 41.5t-0.5 -29t-17 -60t-28 -52.5q2 0 27 6t28 6q17 3 42 -0.5t47 -7.5t37.5 -3t15.5 13q3 26 -2 48.5t-5 87.5q0 29 2.5 63t4.5 70q0 4 -13.5 3.5t-27 -0.5t-19.5 2.5t8 13.5q-7 -1 -15 -8t-13 -7
q-16 -4 -43 2t-25 -8zM23 -9q7 33 1 47t-10 29q-12 42 0.5 47t28.5 2q18 -3 29 7t16 18q8 21 25 78t13 120q-3 41 -5 89.5t5 82.5q-6 17 17.5 15t31.5 -2q16 0 42.5 1.5t14.5 -16.5q21 18 52 16.5t82 -9.5q0 11 28 11t44 -3q11 -3 34 1.5t23 -3.5q3 -23 1.5 -48t3.5 -45
q0 21 1.5 46.5t10.5 42.5q2 5 6.5 5.5t15.5 1.5q22 0 31 -1q17 -3 17 -20q2 -31 3 -49.5t1.5 -34.5t-0.5 -35.5t-4 -49.5q0 -8 -9 -18t-20 -36q18 20 24 23t6.5 -5.5t-1.5 -23t0 -26.5q2 -11 5 -58t-12 -74q15 -4 25 2t17 -3q15 -16 13.5 -37t-2.5 -39q-16 -5 -20.5 -14
t-11.5 -25q5 5 16.5 16t16.5 -1q4 -28 7 -35.5t3 -36.5l1 -30v-23q-7 -21 -39 -15q-17 2 -25.5 -0.5t-16.5 -2.5q-8 12 -11.5 22.5t-5.5 18.5q-5 -9 -1 -28q3 -19 -12 -12q-21 -10 -45 3q-9 6 -9 15.5t2 17.5q7 51 7 84q-19 1 -62 -2.5t-54 9.5q-5 4 3.5 16.5t19.5 20.5
q-25 -5 -34 -20.5t-20 -20.5q-13 -5 -36 -2.5t-53 4.5q-33 1 -38.5 11.5t-11.5 28.5q-5 -12 -5 -23q-1 -5 -5.5 -12t-16.5 -10q-4 -1 3.5 -28.5t1.5 -29.5q-4 -1 -2 -12.5t3.5 -24.5t0 -22t-11.5 -4q-17 1 -27.5 1.5t-24.5 5.5q-7 3 -8 12.5t-3 15.5q-3 5 -3.5 -6.5
t-1.5 -23.5q-52 -7 -69 -3.5t-17 17.5q0 10 1.5 38.5t9.5 60.5zM175 327q18 24 20.5 36t2.5 39q0 8 5 24.5t17 28.5q-35 -25 -37.5 -60t-7.5 -68z" />
    <glyph glyph-name="afii10070" unicode="&#x435;" horiz-adv-x="583" 
d="M46 458q-18 33 46 48t100 10q14 -3 24 -15.5t-22 -33.5l74 45q40 11 93.5 14t101.5 -5q21 0 23 -29t2 -48q0 -7 -12.5 -15t-19.5 -12l37 6q5 0 5 -10.5t-6 -10.5q-34 -5 -60 -9t-34 -9q-30 -19 -52 -10.5t-63 3.5q2 20 -20 39q16 0 -7.5 -41.5t-20.5 -51.5q1 -12 46 3.5
t75 3.5q4 -2 -1.5 -15t-5.5 -18q47 36 88 44q18 2 39.5 -14t18.5 -32q-5 -31 -14 -55.5t-30 -32.5q-32 -13 -77.5 -10t-81.5 2q-25 -2 -24.5 18t0.5 28q-2 6 -9.5 -7t-7.5 -18q-1 -21 0.5 -41t7.5 -39q2 -4 9.5 2t13.5 8q29 2 75.5 13t48.5 -15q0 -23 -43.5 -47t-13.5 -4
q-1 -9 50.5 25.5t77.5 32.5q15 -3 36.5 -7t26.5 -20q6 -24 -2 -56.5t-19 -55.5q-5 -8 -16 -19t-19 -7q-71 27 -164 28t-204 -17q-19 -2 1.5 14.5t34.5 29.5q-47 -16 -74 -36q-4 -2 -10.5 1t-6.5 6q3 62 12.5 112.5t5.5 97.5q0 4 8.5 1t24.5 -24q-12 29 -18.5 35t-9.5 13
q-18 41 -11.5 94t-26.5 113zM167 310q-11 9 -24 -8.5t-2 -34.5q37 -29 34.5 -55t-17.5 -50q9 13 28 28.5t11 26.5q-18 23 -33.5 51.5t3.5 41.5z" />
    </font>
</defs>
</svg>
